<?xml version="1.0" encoding="UTF-8" standalone="no"?>
<!DOCTYPE svg PUBLIC "-//W3C//DTD SVG 1.1//EN" "http://www.w3.org/Graphics/SVG/1.1/DTD/svg11.dtd">
<svg width="100%" height="100%" viewBox="0 0 288 288" version="1.1" xmlns="http://www.w3.org/2000/svg" xmlns:xlink="http://www.w3.org/1999/xlink" xml:space="preserve" xmlns:serif="http://www.serif.com/" style="fill-rule:evenodd;clip-rule:evenodd;stroke-linecap:round;stroke-linejoin:round;stroke-miterlimit:1.5;">
    <g id="Alluvial-Diagram" serif:id="Alluvial Diagram" transform="matrix(0.137959,0,0,0.165,-87.6068,-77.9108)">
        <rect x="635.018" y="472.187" width="2087.57" height="1745.46" style="fill:none;"/>
        <g id="Columns" transform="matrix(1.81735,0,0,1.49706,-977.428,-425.422)">
            <g transform="matrix(0.916264,0,0,0.927149,1346.88,436.447)">
                <g id="_3" serif:id="3">
                    <rect x="484.086" y="412.874" width="58.555" height="144.252" style="fill:rgb(255,195,5);"/>
                </g>
            </g>
            <g transform="matrix(0.916264,0,0,1.0093,1346.88,879.449)">
                <g id="_31" serif:id="3">
                    <rect x="484.225" y="398.266" width="58.555" height="144.252" style="fill:rgb(88,24,69);"/>
                </g>
            </g>
            <g transform="matrix(0.916264,0,0,1.77756,1347.13,294.097)">
                <g id="_32" serif:id="3">
                    <rect x="484.253" y="390.171" width="58.555" height="144.252" style="fill:rgb(199,0,57);"/>
                </g>
            </g>
            <g id="_2" serif:id="2">
                <g transform="matrix(0.916264,0,0,1.44285,990.774,219.266)">
                    <rect x="484.225" y="398.266" width="58.555" height="144.252" style="fill:rgb(255,195,5);"/>
                </g>
                <g transform="matrix(0.916264,0,0,0.267431,990.774,931.232)">
                    <rect x="484.225" y="398.266" width="58.555" height="144.252" style="fill:rgb(255,87,51);"/>
                </g>
                <g transform="matrix(0.916264,0,0,0.977858,990.774,723.698)">
                    <rect x="484.225" y="398.266" width="58.555" height="144.252" style="fill:rgb(199,0,57);"/>
                </g>
                <g transform="matrix(0.916264,0,0,0.523706,990.774,1080.81)">
                    <rect x="484.225" y="398.266" width="58.555" height="144.252" style="fill:rgb(144,12,63);"/>
                </g>
                <g transform="matrix(0.916264,0,0,0.523706,990.774,1189.91)">
                    <rect x="484.225" y="398.266" width="58.555" height="144.252" style="fill:rgb(88,24,69);"/>
                </g>
            </g>
            <g id="_1" serif:id="1">
                <g transform="matrix(0.916264,0,0,0.846477,635.018,472.187)">
                    <rect x="484.225" y="398.266" width="58.555" height="144.252" style="fill:rgb(255,195,5);"/>
                </g>
                <g transform="matrix(0.916264,0,0,1.44285,635.018,398.911)">
                    <rect x="484.225" y="398.266" width="58.555" height="144.252" style="fill:rgb(199,0,57);"/>
                </g>
                <g transform="matrix(0.916264,0,0,1.44285,635.018,647.13)">
                    <rect x="484.225" y="398.266" width="58.555" height="144.252" style="fill:rgb(88,24,69);"/>
                </g>
            </g>
        </g>
        <g id="Links" transform="matrix(1.81735,0,0,1.49706,-977.428,-425.422)">
            <g id="_2-3" serif:id="2-3">
                <g transform="matrix(0.916264,0,0,0.846477,635.018,472.187)">
                    <path d="M931.048,380.065C990.506,380.065 1053.76,452.144 1116.63,515.405C1123.93,522.746 1131.22,529.969 1138.5,536.947C1140.58,538.934 1142.65,540.9 1144.72,542.844C1165.29,562.159 1185.76,579.224 1205.97,591.175C1224.72,602.261 1243.25,608.947 1261.44,608.947L1261.44,855C1205.27,855 1145.88,791.206 1086.73,730.951C1070.17,714.076 1053.62,697.479 1037.18,682.639C1031.2,677.25 1025.25,672.092 1019.3,667.237C1009.38,659.131 999.496,651.867 989.679,645.777C969.834,633.465 950.243,625.947 931.048,625.947L931.048,380.065Z" style="fill:rgb(230,230,230);"/>
                    <path d="M931.048,377.673C955.213,377.673 980.021,389.313 1005.15,407.488C1042.33,434.383 1080.29,475.596 1118.1,513.641C1125.39,520.97 1132.66,528.18 1139.93,535.145C1142,537.126 1144.07,539.087 1146.13,541.026C1166.58,560.222 1186.91,577.192 1207,589.069C1225.41,599.952 1243.59,606.556 1261.44,606.556C1262.65,606.556 1263.62,607.627 1263.62,608.947L1263.62,855C1263.62,856.321 1262.65,857.391 1261.44,857.391C1238.6,857.391 1215.21,847.083 1191.55,830.712C1156.53,806.484 1120.84,768.963 1085.25,732.704C1068.72,715.863 1052.21,699.298 1035.8,684.487C1029.85,679.123 1023.92,673.989 1018,669.157C1008.15,661.112 998.351,653.903 988.609,647.859C969.121,635.769 949.897,628.339 931.048,628.339C929.846,628.339 928.872,627.268 928.872,625.947L928.872,380.065C928.872,378.744 929.846,377.673 931.048,377.673ZM931.048,380.065L931.048,625.947C950.243,625.947 969.834,633.465 989.679,645.777C999.496,651.867 1009.38,659.131 1019.3,667.237C1025.25,672.092 1031.2,677.25 1037.18,682.639C1053.62,697.479 1070.17,714.076 1086.73,730.951C1145.88,791.206 1205.27,855 1261.44,855L1261.44,608.947C1243.25,608.947 1224.72,602.261 1205.97,591.175C1185.76,579.224 1165.29,562.159 1144.72,542.844C1142.65,540.9 1140.58,538.934 1138.5,536.947C1131.22,529.969 1123.93,522.746 1116.63,515.405C1053.76,452.144 990.506,380.065 931.048,380.065Z" style="fill:white;"/>
                </g>
                <g transform="matrix(0.916264,0,0,0.846477,635.018,472.187)">
                    <path d="M1116.63,515.405C1165.71,459.653 1214.51,410 1261,410L1261,456C1221.42,456 1180.17,491.924 1138.5,536.947C1098.79,579.854 1058.69,631.023 1019.3,667.237C989.318,694.8 959.741,713.7 931.048,713.7L931.048,668.126C950.244,668.126 969.836,659.653 989.679,645.777C1031.33,616.656 1074.08,563.739 1116.63,515.405Z" style="fill:rgb(230,230,230);"/>
                    <path d="M1115.07,513.742C1144.65,480.138 1174.15,448.757 1203.09,429.014C1222.67,415.652 1242.03,407.609 1261,407.609C1262.2,407.609 1263.18,408.679 1263.18,410L1263.18,456C1263.18,457.321 1262.2,458.391 1261,458.391C1245.51,458.391 1229.77,464.056 1213.83,473.625C1189.55,488.201 1164.87,511.809 1140.03,538.652C1100.27,581.603 1060.13,632.82 1020.7,669.071C990.262,697.051 960.175,716.091 931.048,716.091C929.846,716.091 928.872,715.021 928.872,713.7L928.872,668.126C928.872,666.805 929.846,665.734 931.048,665.734C949.868,665.734 969.056,657.364 988.511,643.76C1030.04,614.724 1072.64,561.934 1115.07,513.742ZM1116.63,515.405C1074.08,563.739 1031.33,616.656 989.679,645.777C969.836,659.653 950.244,668.126 931.048,668.126L931.048,713.7C959.741,713.7 989.318,694.8 1019.3,667.237C1058.69,631.023 1098.79,579.854 1138.5,536.947C1180.17,491.924 1221.42,456 1261,456L1261,410C1214.51,410 1165.71,459.653 1116.63,515.405Z" style="fill:white;"/>
                </g>
                <g transform="matrix(0.916264,0,0,0.846477,635.018,472.187)">
                    <path d="M1205.97,591.175C1166.87,621.559 1126.76,677.317 1086.73,730.951C1033.84,801.83 981.099,869 931.048,869L931.048,757.207C965.43,757.207 1001.08,725.489 1037.18,682.639C1072.85,640.291 1108.96,587.069 1144.72,542.844C1184.27,493.916 1223.39,456 1261,456L1261,568C1242.96,568 1224.58,576.713 1205.97,591.175Z" style="fill:rgb(230,230,230);"/>
                    <path d="M1207.23,593.127C1168.26,623.41 1128.31,679.012 1088.41,732.467C1056.56,775.149 1024.75,816.474 993.561,842.718C972.407,860.518 951.489,871.391 931.048,871.391C929.846,871.391 928.872,870.321 928.872,869L928.872,757.207C928.872,755.887 929.846,754.816 931.048,754.816C944.45,754.816 958.039,749.83 971.785,741.223C992.778,728.078 1014.09,706.524 1035.58,681.015C1071.25,638.678 1107.35,585.469 1143.09,541.256C1166.98,511.703 1190.73,486.161 1214.08,470.439C1229.91,459.773 1245.59,453.609 1261,453.609C1262.2,453.609 1263.18,454.679 1263.18,456L1263.18,568C1263.18,569.321 1262.2,570.391 1261,570.391C1243.37,570.391 1225.42,578.989 1207.23,593.127ZM1205.97,591.175C1224.58,576.713 1242.96,568 1261,568L1261,456C1223.39,456 1184.27,493.916 1144.72,542.844C1108.96,587.069 1072.85,640.291 1037.18,682.639C1001.08,725.489 965.43,757.207 931.048,757.207L931.048,869C981.099,869 1033.84,801.83 1086.73,730.951C1126.76,677.317 1166.87,621.559 1205.97,591.175Z" style="fill:white;"/>
                </g>
                <g transform="matrix(0.916264,0,0,0.846477,635.018,472.187)">
                    <path d="M931.048,923.849L931.048,869C1037,869 1155,855 1261.44,855L1261.44,911.869C1155,911.869 1037,923.849 931.048,923.849Z" style="fill:rgb(230,230,230);"/>
                    <path d="M928.872,923.849L928.872,869C928.872,867.679 929.846,866.609 931.048,866.609C1037,866.609 1155,852.609 1261.44,852.609C1262.65,852.609 1263.62,853.679 1263.62,855L1263.62,911.869C1263.62,913.19 1262.65,914.26 1261.44,914.26C1155,914.26 1037,926.24 931.048,926.24C929.846,926.24 928.872,925.169 928.872,923.849ZM931.048,923.849C1037,923.849 1155,911.869 1261.44,911.869L1261.44,855C1155,855 1037,869 931.048,869L931.048,923.849Z" style="fill:white;"/>
                </g>
                <g transform="matrix(0.916264,0,0,0.846477,635.018,472.187)">
                    <path d="M931.048,965.406C1037,965.406 1155,956 1261.14,956L1261.14,1041C1155,1041 1037,1054.65 931.048,1054.65L931.048,965.406Z" style="fill:rgb(230,230,230);"/>
                    <path d="M931.048,963.015C1037,963.015 1155,953.609 1261.14,953.609C1262.34,953.609 1263.32,954.679 1263.32,956L1263.32,1041C1263.32,1042.32 1262.34,1043.39 1261.14,1043.39C1155,1043.39 1037,1057.05 931.048,1057.05C929.846,1057.05 928.872,1055.97 928.872,1054.65L928.872,965.406C928.872,964.085 929.846,963.015 931.048,963.015ZM931.048,965.406L931.048,1054.65C1037,1054.65 1155,1041 1261.14,1041L1261.14,956C1155,956 1037,965.406 931.048,965.406Z" style="fill:white;"/>
                </g>
                <g transform="matrix(0.916264,0,0,0.846477,635.018,472.187)">
                    <path d="M931.048,1183.54L931.048,1094.29C1037,1094.29 1155,1041 1261.14,1041L1261.14,1128C1155,1128 1037,1183.54 931.048,1183.54Z" style="fill:rgb(230,230,230);"/>
                    <path d="M928.872,1183.54L928.872,1094.29C928.872,1092.97 929.846,1091.9 931.048,1091.9C1037,1091.9 1155,1038.61 1261.14,1038.61C1262.34,1038.61 1263.32,1039.68 1263.32,1041L1263.32,1128C1263.32,1129.32 1262.34,1130.39 1261.14,1130.39C1155,1130.39 1037,1185.93 931.048,1185.93C929.846,1185.93 928.872,1184.86 928.872,1183.54ZM931.048,1183.54C1037,1183.54 1155,1128 1261.14,1128L1261.14,1041C1155,1041 1037,1094.29 931.048,1094.29L931.048,1183.54Z" style="fill:white;"/>
                </g>
            </g>
            <g id="_1-2" serif:id="1-2">
                <g transform="matrix(0.916264,0,0,0.846477,635.018,472.187)">
                    <path d="M542.78,398.266C654.494,398.266 762.751,380.065 872.493,380.065L872.493,526.905C870.357,526.905 868.216,526.931 866.071,526.982C757.115,527.43 651.621,542.518 542.78,542.518L542.78,398.266Z" style="fill:rgb(230,230,230);"/>
                    <path d="M542.78,395.875C654.494,395.875 762.751,377.673 872.493,377.673C873.695,377.673 874.67,378.744 874.67,380.065L874.67,526.905C874.67,528.225 873.695,529.296 872.493,529.296C870.372,529.296 868.247,529.322 866.119,529.373C866.106,529.373 866.092,529.374 866.079,529.374C757.12,529.822 651.623,544.91 542.78,544.91C541.578,544.91 540.604,543.839 540.604,542.518L540.604,398.266C540.604,396.945 541.578,395.875 542.78,395.875ZM542.78,398.266L542.78,542.518C651.621,542.518 757.115,527.43 866.071,526.982C868.216,526.931 870.357,526.905 872.493,526.905L872.493,380.065C762.751,380.065 654.494,398.266 542.78,398.266Z" style="fill:white;"/>
                </g>
                <g transform="matrix(0.916264,0,0,0.846477,635.018,472.187)">
                    <path d="M872.493,625.947C765.96,625.947 649.446,691.324 542.78,691.324L542.78,592.291C647.17,592.291 761.272,529.501 866.071,526.982C868.216,526.931 870.357,526.905 872.493,526.905L872.493,625.947Z" style="fill:rgb(230,230,230);"/>
                    <path d="M872.493,628.339C819.406,628.339 763.837,644.657 708.247,660.946C652.281,677.345 596.293,693.715 542.78,693.715C541.578,693.715 540.604,692.644 540.604,691.324L540.604,592.291C540.604,590.97 541.578,589.899 542.78,589.899C594.795,589.899 649.226,574.227 703.712,558.27C758.558,542.208 813.459,525.855 866.024,524.592C868.184,524.54 870.341,524.513 872.493,524.513C873.695,524.513 874.67,525.584 874.67,526.905L874.67,625.947C874.67,627.268 873.695,628.339 872.493,628.339ZM872.493,625.947L872.493,526.905C870.357,526.905 868.216,526.931 866.071,526.982C761.272,529.501 647.17,592.291 542.78,592.291L542.78,691.324C649.446,691.324 765.96,625.947 872.493,625.947Z" style="fill:white;"/>
                </g>
                <g transform="matrix(0.916264,0,0,0.846477,635.018,472.187)">
                    <path d="M716.796,768.215C735.426,766.22 754.038,764.261 772.539,762.561C806.419,759.449 839.927,757.207 872.493,757.207L872.493,812.908C871.331,812.908 870.167,812.911 869.003,812.917C815.974,813.185 761.053,819.508 705.68,825.76C705.569,825.623 705.457,825.487 705.345,825.35L704.828,825.856C686.283,827.95 667.689,830.032 649.099,831.872C644.07,832.37 639.042,832.85 634.016,833.308C603.473,836.09 572.981,838.052 542.78,838.173L542.78,781.17C581.643,781.17 621.81,777.991 662.32,773.949C680.439,772.141 698.626,770.161 716.796,768.215Z" style="fill:rgb(230,230,230);"/>
                    <path d="M705.197,828.092L704.828,828.248L705.051,828.235C686.497,830.329 667.893,832.412 649.294,834.254C644.26,834.752 639.227,835.233 634.195,835.691C603.595,838.479 573.046,840.443 542.788,840.564C542.21,840.567 541.654,840.316 541.244,839.867C540.834,839.418 540.604,838.809 540.604,838.173L540.604,781.17C540.604,779.849 541.578,778.779 542.78,778.779C581.579,778.779 621.68,775.603 662.123,771.568C680.237,769.76 698.42,767.78 716.584,765.835C735.225,763.839 753.847,761.879 772.357,760.178C806.299,757.06 839.867,754.816 872.493,754.816C873.695,754.816 874.67,755.887 874.67,757.207L874.67,812.908C874.67,814.228 873.695,815.299 872.493,815.299C871.334,815.299 870.174,815.302 869.013,815.308C816.053,815.576 761.204,821.895 705.903,828.139C705.664,828.166 705.425,828.149 705.197,828.092ZM704.717,825.869L704.722,825.966L705.345,827.741L706.173,825.704C761.379,819.471 816.131,813.185 869.003,812.917C870.167,812.911 871.331,812.908 872.493,812.908L872.493,757.207C839.927,757.207 806.419,759.449 772.539,762.561C754.038,764.261 735.426,766.22 716.796,768.215C698.626,770.161 680.439,772.141 662.32,773.949C621.81,777.991 581.643,781.17 542.78,781.17L542.78,838.173C572.981,838.052 603.473,836.09 634.016,833.308C639.042,832.85 644.07,832.37 649.099,831.872C667.652,830.035 686.209,827.958 704.717,825.869Z" style="fill:white;"/>
                </g>
                <g transform="matrix(0.916264,0,0,0.846477,635.018,472.187)">
                    <path d="M542.78,691.324C581.49,691.324 621.709,727.703 662.32,773.949C669.629,782.273 676.951,790.916 684.279,799.724C691.298,808.16 698.322,816.747 705.345,825.35C705.173,825.519 705.001,825.687 704.828,825.856C705.112,825.824 705.396,825.792 705.68,825.76C720.276,843.638 734.871,861.573 749.414,878.349C771.151,903.424 792.772,925.907 814.106,941.73C833.86,956.382 853.368,965.323 872.493,965.323L872.493,1054.57C836.175,1054.57 798.52,1022.49 760.434,980.303C742.768,960.737 725.01,938.998 707.25,917.278C692.713,899.501 678.174,881.737 663.684,865.189C655.798,856.184 647.926,847.539 640.077,839.447C638.055,837.363 636.035,835.315 634.016,833.308C603.062,802.529 572.486,781.17 542.78,781.17L542.78,691.324Z" style="fill:rgb(230,230,230);"/>
                    <path d="M707.122,823.969C707.185,824.029 707.244,824.094 707.301,824.163C721.881,842.023 736.461,859.941 750.99,876.7C772.61,901.639 794.106,924.011 815.324,939.748C834.674,954.101 853.759,962.932 872.493,962.932C873.695,962.932 874.67,964.003 874.67,965.323L874.67,1054.57C874.67,1055.89 873.695,1056.96 872.493,1056.96C835.716,1056.96 797.457,1024.71 758.889,981.987C741.199,962.394 723.416,940.626 705.63,918.876C691.11,901.119 676.589,883.376 662.115,866.847C654.256,857.872 646.411,849.255 638.588,841.191C636.575,839.117 634.564,837.079 632.555,835.081C602.07,804.768 572.037,783.561 542.78,783.561C541.578,783.561 540.604,782.491 540.604,781.17L540.604,691.324C540.604,690.003 541.578,688.932 542.78,688.932C558.614,688.932 574.707,694.841 590.962,705.011C614.961,720.025 639.36,744.359 663.887,772.289C671.209,780.628 678.544,789.286 685.886,798.11C692.909,806.552 699.937,815.144 706.966,823.753C707.022,823.822 707.074,823.894 707.122,823.969ZM542.78,691.324L542.78,781.17C572.486,781.17 603.062,802.529 634.016,833.308C636.035,835.315 638.055,837.363 640.077,839.447C647.926,847.539 655.798,856.184 663.684,865.189C678.174,881.737 692.713,899.501 707.25,917.278C725.01,938.998 742.768,960.737 760.434,980.303C798.52,1022.49 836.175,1054.57 872.493,1054.57L872.493,965.323C853.368,965.323 833.86,956.382 814.106,941.73C792.772,925.907 771.151,903.424 749.414,878.349C734.871,861.573 720.276,843.638 705.68,825.76L704.828,825.856L705.345,825.35C698.322,816.747 691.298,808.16 684.279,799.724C676.951,790.916 669.629,782.273 662.32,773.949C621.709,727.703 581.49,691.324 542.78,691.324Z" style="fill:white;"/>
                </g>
                <g transform="matrix(0.916264,0,0,0.846477,635.018,472.187)">
                    <path d="M716.796,768.215C769.667,716.865 822.351,668.126 872.493,668.126L872.493,713.7C839.927,713.7 806.421,734.161 772.539,762.561C750.25,781.243 727.799,803.361 705.345,825.35L704.828,825.856C691.102,839.297 677.375,852.68 663.684,865.189C622.731,902.609 582.103,932.217 542.78,932.217L542.78,885.769C574.447,885.769 607.074,866.509 640.077,839.447C643.081,836.984 646.089,834.456 649.099,831.872C660.794,821.832 672.529,810.947 684.279,799.724C695.112,789.376 705.958,778.741 716.796,768.215Z" style="fill:rgb(230,230,230);"/>
                    <path d="M706.779,827.149L706.288,827.63L704.828,828.248L706.276,827.641C692.531,841.101 678.785,854.501 665.076,867.028C623.679,904.853 582.53,934.608 542.78,934.608C541.578,934.608 540.604,933.538 540.604,932.217L540.604,885.769C540.604,884.448 541.578,883.378 542.78,883.378C574.039,883.378 606.197,864.244 638.775,837.531C641.767,835.078 644.761,832.561 647.759,829.988C659.425,819.973 671.13,809.115 682.851,797.919C693.68,787.576 704.521,776.945 715.354,766.423C747.202,735.492 778.994,705.52 810.196,686.478C831.269,673.618 852.094,665.734 872.493,665.734C873.695,665.734 874.67,666.805 874.67,668.126L874.67,713.7C874.67,715.021 873.695,716.091 872.493,716.091C840.34,716.091 807.311,736.422 773.859,764.462C751.612,783.109 729.205,805.188 706.794,827.135L706.779,827.149ZM716.796,768.215C705.958,778.741 695.112,789.376 684.279,799.724C672.529,810.947 660.794,821.832 649.099,831.872C646.089,834.456 643.081,836.984 640.077,839.447C607.074,866.509 574.447,885.769 542.78,885.769L542.78,932.217C582.103,932.217 622.731,902.609 663.684,865.189C677.375,852.68 691.102,839.297 704.828,825.856L705.345,825.35C727.799,803.361 750.25,781.243 772.539,762.561C806.421,734.161 839.927,713.7 872.493,713.7L872.493,668.126C822.351,668.126 769.667,716.865 716.796,768.215Z" style="fill:white;"/>
                </g>
                <g transform="matrix(0.916264,0,0,0.846477,635.018,472.187)">
                    <path d="M716.398,1019.78C769.255,1058.01 822.053,1094.29 872.493,1094.29L872.493,1183.54C804.428,1183.54 732.127,1117.67 661.153,1070.03C620.932,1043.03 581.137,1021.87 542.78,1021.87L542.78,932.217C576.707,932.217 611.779,948.83 647.284,971.419C670.205,986.002 693.307,1003.08 716.398,1019.78Z" style="fill:rgb(230,230,230);"/>
                    <path d="M717.595,1017.78C770.066,1055.73 822.42,1091.9 872.493,1091.9C873.695,1091.9 874.67,1092.97 874.67,1094.29L874.67,1183.54C874.67,1184.86 873.695,1185.93 872.493,1185.93C844.95,1185.93 816.709,1175.32 788.155,1159.44C745.768,1135.87 702.652,1100.69 660.018,1072.07C620.172,1045.32 580.78,1024.27 542.78,1024.27C541.578,1024.27 540.604,1023.2 540.604,1021.87L540.604,932.217C540.604,930.897 541.578,929.826 542.78,929.826C577.054,929.826 612.507,946.53 648.374,969.35C671.331,983.955 694.469,1001.05 717.595,1017.78ZM716.398,1019.78C693.307,1003.08 670.205,986.002 647.284,971.419C611.779,948.83 576.707,932.217 542.78,932.217L542.78,1021.87C581.137,1021.87 620.932,1043.03 661.153,1070.03C732.127,1117.67 804.428,1183.54 872.493,1183.54L872.493,1094.29C822.053,1094.29 769.255,1058.01 716.398,1019.78Z" style="fill:white;"/>
                </g>
                <g transform="matrix(0.916264,0,0,0.846477,635.018,472.187)">
                    <path d="M814.106,941.73C796.382,951.694 778.458,965.141 760.434,980.303C745.782,992.629 731.063,1006.09 716.331,1019.73C697.889,1036.81 679.425,1054.17 661.043,1069.95C620.877,1104.45 581.097,1131.41 542.78,1131.41L542.78,1021.87C576.946,1021.87 611.971,1000.5 647.284,971.419C667.215,955.006 687.238,936.14 707.25,917.278C721.322,904.015 735.388,890.753 749.414,878.349C789.906,842.538 830.056,813.87 869.003,812.917C870.167,812.911 871.331,812.908 872.493,812.908L872.493,923.849C853.368,923.849 833.861,930.626 814.106,941.73Z" style="fill:rgb(230,230,230);"/>
                    <path d="M815.097,943.859C797.481,953.762 779.671,967.132 761.757,982.202C747.131,994.505 732.44,1007.94 717.733,1021.56C699.271,1038.65 680.786,1056.03 662.383,1071.84C621.784,1106.7 581.51,1133.8 542.78,1133.8C541.578,1133.8 540.604,1132.73 540.604,1131.41L540.604,1021.87C540.604,1020.55 541.578,1019.48 542.78,1019.48C576.536,1019.48 611.089,998.235 645.978,969.505C665.873,953.123 685.857,934.29 705.832,915.463C719.922,902.183 734.006,888.906 748.049,876.486C788.964,840.302 829.601,811.489 868.955,810.526C868.967,810.526 868.98,810.525 868.993,810.525C870.161,810.519 871.327,810.516 872.493,810.516C873.695,810.516 874.67,811.587 874.67,812.908L874.67,923.849C874.67,925.169 873.695,926.24 872.493,926.24C853.69,926.24 834.52,932.941 815.097,943.859ZM814.106,941.73C833.861,930.626 853.368,923.849 872.493,923.849L872.493,812.908C871.331,812.908 870.167,812.911 869.003,812.917C830.056,813.87 789.906,842.538 749.414,878.349C735.388,890.753 721.322,904.015 707.25,917.278C687.238,936.14 667.215,955.006 647.284,971.419C611.971,1000.5 576.946,1021.87 542.78,1021.87L542.78,1131.41C581.097,1131.41 620.877,1104.45 661.043,1069.95C679.425,1054.17 697.889,1036.81 716.331,1019.73C731.063,1006.09 745.782,992.629 760.434,980.303C778.458,965.141 796.382,951.694 814.106,941.73Z" style="fill:white;"/>
                </g>
            </g>
        </g>
        <g id="labels" transform="matrix(0.943326,0,0,0.943326,75.1759,-1295.19)">
            <g transform="matrix(7.32141,0,0,6.12157,286.373,-4332.56)">
                <g transform="matrix(14.6933,0,0,14.6933,196.723,1056.91)">
                </g>
                <text x="188.465px" y="1056.91px" style="font-family:'BloggerSans-Medium', 'Blogger Sans';font-weight:500;font-size:14.693px;">B</text>
            </g>
            <g transform="matrix(7.32141,0,0,6.12157,979.224,-4332.56)">
                <g transform="matrix(14.6933,0,0,14.6933,196.282,1056.91)">
                </g>
                <text x="188.906px" y="1056.91px" style="font-family:'BloggerSans-Medium', 'Blogger Sans';font-weight:500;font-size:14.693px;">C</text>
            </g>
            <g transform="matrix(7.32141,0,0,6.12157,-399.407,-4332.56)">
                <g transform="matrix(14.6933,0,0,14.6933,196.775,1056.91)">
                </g>
                <text x="188.414px" y="1056.91px" style="font-family:'BloggerSans-Medium', 'Blogger Sans';font-weight:500;font-size:14.693px;">A</text>
            </g>
        </g>
        <g id="Palette" transform="matrix(1,0,0,1,260.946,0)">
            <g transform="matrix(0.943326,0,0,0.943326,75.1759,-1295.19)">
                <g transform="matrix(7.32141,0,0,6.12157,-78.923,-2999.56)">
                    <g transform="matrix(14.6933,0,0,14.6933,196.084,1056.91)">
                    </g>
                    <text x="189.105px" y="1056.91px" style="font-family:'BloggerSans-Medium', 'Blogger Sans';font-weight:500;font-size:14.693px;">L</text>
                </g>
                <g transform="matrix(7.32141,0,0,6.12157,105.493,-2999.56)">
                    <g transform="matrix(14.6933,0,0,14.6933,197.95,1056.91)">
                    </g>
                    <text x="187.239px" y="1056.91px" style="font-family:'BloggerSans-Medium', 'Blogger Sans';font-weight:500;font-size:14.693px;">M</text>
                </g>
                <g transform="matrix(7.32141,0,0,6.12157,289.908,-2999.56)">
                    <g transform="matrix(14.6933,0,0,14.6933,197.149,1056.91)">
                    </g>
                    <text x="188.039px" y="1056.91px" style="font-family:'BloggerSans-Medium', 'Blogger Sans';font-weight:500;font-size:14.693px;">N</text>
                </g>
                <g transform="matrix(7.32141,0,0,6.12157,474.324,-2999.56)">
                    <g transform="matrix(14.6933,0,0,14.6933,196.855,1056.91)">
                    </g>
                    <text x="188.333px" y="1056.91px" style="font-family:'BloggerSans-Medium', 'Blogger Sans';font-weight:500;font-size:14.693px;">O</text>
                </g>
                <g transform="matrix(7.32141,0,0,6.12157,658.74,-2999.56)">
                    <g transform="matrix(14.6933,0,0,14.6933,196.635,1056.91)">
                    </g>
                    <text x="188.554px" y="1056.91px" style="font-family:'BloggerSans-Medium', 'Blogger Sans';font-weight:500;font-size:14.693px;">P</text>
                </g>
            </g>
            <g id="colors" transform="matrix(1,0,0,1,86.9821,0)">
                <g transform="matrix(7.2485,0,0,5.38721,1330.87,649.965)">
                    <rect x="72" y="255" width="24" height="9" style="fill:rgb(255,195,5);stroke:rgb(215,215,215);stroke-width:1.06px;"/>
                </g>
                <g transform="matrix(7.2485,0,0,5.38721,1156.91,649.965)">
                    <rect x="72" y="255" width="24" height="9" style="fill:rgb(255,87,51);stroke:rgb(215,215,215);stroke-width:1.06px;"/>
                </g>
                <g transform="matrix(7.2485,0,0,5.38721,982.946,649.965)">
                    <rect x="72" y="255" width="24" height="9" style="fill:rgb(199,0,57);stroke:rgb(215,215,215);stroke-width:1.06px;"/>
                </g>
                <g transform="matrix(7.2485,0,0,5.38721,808.982,649.965)">
                    <rect x="72" y="255" width="24" height="9" style="fill:rgb(144,12,63);stroke:rgb(215,215,215);stroke-width:1.06px;"/>
                </g>
                <g transform="matrix(7.2485,0,0,5.38721,635.018,649.965)">
                    <rect x="72" y="255" width="24" height="9" style="fill:rgb(88,24,69);stroke:rgb(215,215,215);stroke-width:1.06px;"/>
                </g>
            </g>
        </g>
    </g>
</svg>
