<?xml version="1.0" encoding="UTF-8" standalone="no"?>
<!DOCTYPE svg PUBLIC "-//W3C//DTD SVG 1.1//EN" "http://www.w3.org/Graphics/SVG/1.1/DTD/svg11.dtd">
<svg width="100%" height="100%" viewBox="0 0 289 288" version="1.1" xmlns="http://www.w3.org/2000/svg" xmlns:xlink="http://www.w3.org/1999/xlink" xml:space="preserve" xmlns:serif="http://www.serif.com/" style="fill-rule:evenodd;clip-rule:evenodd;stroke-linejoin:round;stroke-miterlimit:1.5;">
    <g transform="matrix(1,0,0,1,-2912,0)">
        <g id="Chord-Diagram" serif:id="Chord Diagram" transform="matrix(-0.137959,0,0,0.165,3287.64,-77.9108)">
            <rect x="635.018" y="472.187" width="2087.57" height="1745.46" style="fill:none;"/>
            <g id="sectors" transform="matrix(-0.724212,-0.356924,0.510551,-0.724212,2206.24,2812.26)">
                <g transform="matrix(6.24444,-3.07754,-3.68074,-5.22109,10005.9,18754.4)">
                    <path d="M533.186,3132.73C529.311,3136.06 525.129,3139.12 520.651,3141.87C520.111,3142.2 519.566,3142.53 519.018,3142.86C518.469,3143.18 517.918,3143.5 517.366,3143.81C512.786,3146.39 508.084,3148.57 503.301,3150.35C502.106,3150.8 500.906,3151.22 499.701,3151.61C494.735,3153.24 489.694,3154.46 484.626,3155.27C483.368,3155.47 482.109,3155.65 480.848,3155.8C475.683,3156.42 470.5,3156.62 465.35,3156.43C465.451,3153.76 465.557,3151.1 465.668,3148.43C470.386,3148.61 475.133,3148.43 479.865,3147.86C481.037,3147.72 482.208,3147.55 483.378,3147.37C488.021,3146.62 492.638,3145.51 497.187,3144.01C498.307,3143.65 499.424,3143.26 500.535,3142.84C504.916,3141.21 509.224,3139.22 513.419,3136.85C513.933,3136.56 514.445,3136.26 514.955,3135.96C515.466,3135.66 515.972,3135.36 516.475,3135.05C520.575,3132.52 524.406,3129.72 527.956,3126.68C529.703,3128.69 531.446,3130.71 533.186,3132.73Z" style="fill:rgb(128,128,128);"/>
                </g>
                <g transform="matrix(6.24444,-3.07754,-3.68074,-5.22109,10005.9,18754.4)">
                    <path d="M529.778,2980.47C533.82,2983.63 537.641,2987.13 541.196,2990.97C542.058,2991.9 542.904,2992.85 543.734,2993.81C547.056,2997.69 550.116,3001.87 552.872,3006.35C553.204,3006.89 553.532,3007.43 553.856,3007.98C554.179,3008.53 554.497,3009.08 554.808,3009.63C557.391,3014.21 559.568,3018.92 561.35,3023.7C561.795,3024.89 562.215,3026.09 562.611,3027.3C564.243,3032.26 565.459,3037.31 566.27,3042.37C566.471,3043.63 566.647,3044.89 566.799,3046.15C567.42,3051.32 567.625,3056.5 567.428,3061.65C567.379,3062.92 567.306,3064.19 567.209,3065.46C566.81,3070.63 566.007,3075.75 564.81,3080.78C564.516,3082.02 564.198,3083.25 563.857,3084.47C562.468,3089.45 560.69,3094.32 558.535,3099.04C558.007,3100.19 557.456,3101.34 556.883,3102.47C554.561,3107.08 551.872,3111.51 548.827,3115.73C548.084,3116.76 547.319,3117.78 546.534,3118.78C543.37,3122.82 539.866,3126.64 536.032,3130.2C534.219,3128.24 532.41,3126.28 530.604,3124.32C534.114,3121.06 537.325,3117.56 540.224,3113.86C540.954,3112.93 541.665,3111.98 542.356,3111.02C545.144,3107.16 547.608,3103.1 549.736,3098.88C550.269,3097.83 550.781,3096.76 551.272,3095.68C553.245,3091.37 554.874,3086.9 556.147,3082.34C556.465,3081.2 556.76,3080.06 557.034,3078.91C558.128,3074.3 558.865,3069.61 559.231,3064.87C559.322,3063.7 559.39,3062.51 559.435,3061.33C559.614,3056.61 559.426,3051.87 558.858,3047.14C558.718,3045.96 558.554,3044.79 558.366,3043.62C557.622,3038.98 556.509,3034.36 555.015,3029.81C554.647,3028.69 554.256,3027.58 553.842,3026.47C552.209,3022.08 550.215,3017.78 547.85,3013.58C547.56,3013.07 547.265,3012.55 546.964,3012.05C546.663,3011.53 546.358,3011.03 546.049,3010.53C543.524,3006.43 540.721,3002.59 537.678,2999.04C536.907,2998.14 536.119,2997.26 535.317,2996.4C532.061,2992.89 528.56,2989.68 524.859,2986.78C526.494,2984.67 528.134,2982.57 529.778,2980.47Z" style="fill:rgb(128,128,128);"/>
                </g>
                <g transform="matrix(6.24444,-3.07754,-3.68074,-5.22109,10005.9,18754.4)">
                    <path d="M420.634,2972.19C425.214,2969.61 429.916,2967.43 434.699,2965.65C435.894,2965.2 437.094,2964.78 438.299,2964.39C443.265,2962.76 448.306,2961.54 453.374,2960.73C454.632,2960.53 455.891,2960.35 457.152,2960.2C462.317,2959.58 467.5,2959.38 472.65,2959.57C473.921,2959.62 475.191,2959.69 476.457,2959.79C481.626,2960.19 486.75,2960.99 491.779,2962.19C493.016,2962.48 494.246,2962.8 495.471,2963.14C500.45,2964.53 505.322,2966.31 510.037,2968.47C511.193,2968.99 512.339,2969.54 513.474,2970.12C518.076,2972.44 522.511,2975.13 526.729,2978.17C525.165,2980.33 523.596,2982.49 522.023,2984.64C518.158,2981.86 514.096,2979.39 509.882,2977.26C508.825,2976.73 507.759,2976.22 506.685,2975.73C502.365,2973.76 497.902,2972.13 493.342,2970.85C492.203,2970.53 491.058,2970.24 489.908,2969.97C485.301,2968.87 480.608,2968.14 475.873,2967.77C474.695,2967.68 473.515,2967.61 472.332,2967.57C467.614,2967.39 462.867,2967.57 458.135,2968.14C456.963,2968.28 455.792,2968.45 454.622,2968.63C449.979,2969.38 445.362,2970.49 440.813,2971.99C439.693,2972.35 438.576,2972.74 437.465,2973.16C433.084,2974.79 428.776,2976.78 424.581,2979.15C423.261,2976.83 421.945,2974.51 420.634,2972.19Z" style="fill:rgb(128,128,128);"/>
                </g>
                <g transform="matrix(7.42801,-3.66085,-4.37839,-6.2107,-20469.2,13319.3)">
                    <path d="M3050,209.093C3045.66,208.758 3041.35,208.082 3037.12,207.076C3036.08,206.829 3035.05,206.562 3034.02,206.275C3029.83,205.107 3025.74,203.612 3021.78,201.801C3020.8,201.357 3019.84,200.894 3018.89,200.412C3015.02,198.461 3011.29,196.199 3007.74,193.64C3006.88,193.015 3006.02,192.373 3005.18,191.713C3001.78,189.053 2998.57,186.106 2995.58,182.884C2994.86,182.102 2994.14,181.305 2993.45,180.491C2990.65,177.233 2988.08,173.718 2985.76,169.954C2985.49,169.499 2985.21,169.042 2984.94,168.58C2984.67,168.119 2984.4,167.656 2984.14,167.192C2981.97,163.342 2980.14,159.389 2978.64,155.368C2980.74,154.589 2982.85,153.814 2984.95,153.043C2986.32,156.726 2988,160.347 2989.99,163.873C2990.23,164.306 2990.48,164.736 2990.73,165.165C2990.99,165.594 2991.24,166.02 2991.5,166.442C2993.62,169.89 2995.98,173.11 2998.54,176.095C2999.19,176.852 2999.85,177.594 3000.52,178.321C3003.26,181.272 3006.2,183.97 3009.32,186.408C3010.1,187.022 3010.89,187.619 3011.7,188.2C3014.95,190.544 3018.36,192.615 3021.91,194.404C3022.79,194.852 3023.69,195.283 3024.59,195.695C3028.22,197.354 3031.98,198.723 3035.81,199.793C3036.77,200.061 3037.73,200.309 3038.7,200.539C3042.57,201.459 3046.51,202.078 3050.49,202.386C3050.34,204.622 3050.17,206.857 3050,209.093Z" style="fill:rgb(128,128,128);"/>
                </g>
                <g transform="matrix(7.42801,-3.66085,-4.37839,-6.2107,-20469.2,13319.3)">
                    <path d="M2973.71,120.263C2974.05,115.918 2974.72,111.611 2975.73,107.383C2975.98,106.344 2976.24,105.309 2976.53,104.28C2977.7,100.094 2979.19,95.998 2981.01,92.034C2981.45,91.063 2981.91,90.099 2982.39,89.144C2984.35,85.276 2986.61,81.548 2989.17,78.002C2989.79,77.136 2990.43,76.282 2991.09,75.439C2993.75,72.041 2996.7,68.829 2999.92,65.84C3000.7,65.116 3001.5,64.404 3002.32,63.706C3005.57,60.914 3009.09,58.341 3012.85,56.025C3014.03,57.934 3015.2,59.846 3016.36,61.761C3012.92,63.883 3009.7,66.24 3006.71,68.797C3005.95,69.446 3005.21,70.108 3004.49,70.782C3001.53,73.52 2998.84,76.462 2996.4,79.574C2995.78,80.358 2995.19,81.153 2994.61,81.958C2992.26,85.207 2990.19,88.622 2988.4,92.165C2987.95,93.053 2987.52,93.949 2987.11,94.852C2985.45,98.484 2984.08,102.235 2983.01,106.069C2982.74,107.027 2982.5,107.989 2982.27,108.956C2981.35,112.829 2980.73,116.774 2980.42,120.754C2980.34,121.745 2980.29,122.737 2980.25,123.731C2980.1,127.697 2980.26,131.688 2980.73,135.666C2980.85,136.651 2980.99,137.636 2981.15,138.619C2981.77,142.522 2982.71,146.404 2983.96,150.228C2981.84,150.937 2979.71,151.641 2977.58,152.342C2976.21,148.167 2975.18,143.929 2974.5,139.668C2974.33,138.611 2974.18,137.552 2974.06,136.493C2973.54,132.15 2973.36,127.794 2973.53,123.464C2973.57,122.395 2973.63,121.328 2973.71,120.263Z" style="fill:rgb(128,128,128);"/>
                </g>
            </g>
            <g id="ribbons" transform="matrix(-0.724212,-0.356924,0.510551,-0.724212,2206.27,2812.18)">
                <g transform="matrix(-7.2485,4.44089e-16,0,6.06061,2722.59,-17188.4)">
                    <path d="M62.964,3089.7C61.114,3084.98 59.665,3080.06 58.658,3074.98C90.995,3068.54 99.444,3069.1 97.467,3072.27C94.225,3077.47 62.964,3089.7 62.964,3089.7Z" style="fill:url(#_Radial1);"/>
                </g>
                <g transform="matrix(-7.2485,0,0,6.06061,2722.59,-17188.4)">
                    <path d="M71.667,3009.67C83.963,2991.31 103.058,2977.89 125.335,2973.01C128.73,2988.47 133.154,2998.76 138.12,3005.24C139.062,3006.47 140.024,3007.56 141.003,3008.53C146.296,3013.76 152.063,3015.25 157.778,3014.49C162.355,3013.88 166.898,3011.82 171.137,3009.09C183.806,3000.91 193.755,2986.64 193.755,2986.64C196.893,2988.83 199.88,2991.23 202.697,2993.81C216.111,3006.08 225.671,3022.5 229.342,3041.02C209.718,3044.93 190.782,3045.38 173.254,3043.76C168.074,3043.28 163.017,3042.62 158.101,3041.81C148.717,3040.28 139.85,3038.21 131.628,3035.86C95.379,3025.51 71.69,3009.68 71.667,3009.67Z" style="fill:url(#_Radial2);"/>
                </g>
                <g transform="matrix(-7.2485,0,0,6.06061,2722.59,-17188.4)">
                    <path d="M177.299,3138.39C167.545,3142.44 156.898,3144.76 145.738,3144.98C145.738,3144.98 145.579,3136.99 143.641,3127.56C142.063,3119.87 139.303,3111.24 134.488,3105.2C134.028,3104.62 133.549,3104.07 133.051,3103.55C124.057,3094.05 108.701,3093.3 82.494,3119.51C74.882,3111.89 68.672,3102.88 64.287,3092.89C87.56,3082.7 106.876,3082.34 122.562,3086.94C129.621,3089.01 135.945,3092.08 141.564,3095.71C143.184,3096.76 144.745,3097.85 146.249,3098.98C148.6,3100.75 150.809,3102.61 152.879,3104.51C169.641,3119.9 177.299,3138.39 177.299,3138.39Z" style="fill:url(#_Radial3);"/>
                </g>
                <g transform="matrix(-7.2485,0,4.44089e-16,6.06061,2722.59,-17188.4)">
                    <path d="M57.413,3049.47C58.839,3034.84 63.895,3021.27 71.667,3009.67C71.667,3009.67 116.906,3039.9 140.036,3009.84C140.363,3009.41 140.685,3008.98 141.003,3008.53C146.634,3000.57 150.82,2988.76 152.503,2971.67C152.519,2971.5 152.528,2971.41 152.528,2971.41C166.555,2972.78 179.61,2977.49 190.889,2984.72C184.87,2994.13 178.197,3002.19 171.137,3009.09C167.34,3012.8 163.432,3016.18 159.453,3019.25C155.865,3022.02 152.221,3024.54 148.549,3026.84C142.917,3030.36 137.222,3033.35 131.574,3035.88C93.423,3053.02 57.413,3049.47 57.413,3049.47Z" style="fill:url(#_Radial4);"/>
                </g>
                <g transform="matrix(-7.2485,0,0,6.06061,2722.59,-17188.4)">
                    <path d="M229.342,3041.02C230.43,3046.51 231,3052.19 231,3058C231,3063.21 230.541,3068.32 229.66,3073.28C229.66,3073.28 223.351,3072.15 213.492,3072.12C206.313,3072.1 197.252,3072.65 187.373,3074.64C179.562,3076.22 171.241,3078.69 162.934,3082.48C155.787,3085.74 148.651,3089.98 141.861,3095.47C141.762,3095.55 141.663,3095.63 141.564,3095.71C138.652,3098.09 135.806,3100.69 133.051,3103.55C124.435,3112.47 116.715,3123.87 110.701,3138.39C100.074,3133.98 90.507,3127.52 82.494,3119.51C95.157,3106.84 108.831,3096.07 122.562,3086.94C122.89,3086.72 123.218,3086.5 123.546,3086.29C130.607,3081.64 137.677,3077.42 144.626,3073.6C154.304,3068.28 163.749,3063.74 172.61,3059.89C176.588,3058.17 180.447,3056.58 184.158,3055.12C210.508,3044.77 229.342,3041.02 229.342,3041.02Z" style="fill:url(#_Radial5);"/>
                </g>
                <g transform="matrix(-7.2485,0,0,6.06061,2722.59,-17188.4)">
                    <path d="M128.72,2972.34C133.682,2971.46 138.788,2971 144,2971C146.877,2971 149.722,2971.14 152.528,2971.41C152.528,2971.41 152.519,2971.5 152.503,2971.67C152.281,2974.05 150.812,2993.03 157.778,3014.49C158.289,3016.06 158.846,3017.65 159.453,3019.25C162.576,3027.47 167.008,3035.91 173.272,3043.78C176.417,3047.73 180.024,3051.55 184.158,3055.12C191.926,3061.84 201.557,3067.72 213.492,3072.12C218.278,3073.89 223.435,3075.41 228.99,3076.66C227.259,3084.57 224.452,3092.07 220.731,3099.01C220.731,3099.01 205.567,3091.08 187.373,3074.64C182.588,3070.32 177.593,3065.41 172.61,3059.89C167.7,3054.46 162.801,3048.45 158.124,3041.85C154.794,3037.14 151.577,3032.14 148.549,3026.84C145.493,3021.48 142.629,3015.82 140.036,3009.84C139.379,3008.33 138.74,3006.79 138.12,3005.24C134.081,2995.13 130.831,2984.17 128.72,2972.34Z" style="fill:url(#_Radial6);"/>
                </g>
                <g transform="matrix(-7.2485,0,0,6.06061,2722.59,-17188.4)">
                    <path d="M205.506,3119.51C197.493,3127.52 187.926,3133.98 177.299,3138.39C165.938,3110.96 158.251,3103.02 153.053,3104.45C152.995,3104.47 152.937,3104.49 152.879,3104.51C147.667,3106.18 144.999,3117.37 143.641,3127.56C142.428,3136.67 142.262,3144.98 142.262,3144.98C131.102,3144.76 120.455,3142.44 110.701,3138.39C117.842,3122.01 126.009,3111.52 134.488,3105.2C138.366,3102.31 142.309,3100.29 146.249,3098.98C146.351,3098.95 146.454,3098.92 146.556,3098.88C176.171,3089.32 205.506,3119.51 205.506,3119.51Z" style="fill:url(#_Radial7);"/>
                </g>
                <g transform="matrix(-7.2485,0,0,6.06061,2722.59,-17188.4)">
                    <path d="M58.669,3075.06C57.581,3069.57 57.017,3063.79 57.017,3057.98C57.017,3055.11 57.123,3052.69 57.396,3049.88C91.45,3053.31 123.996,3061.3 150.933,3070.22C159.03,3072.91 166.621,3075.64 173.597,3078.29C201.381,3088.88 219.535,3098.45 220.71,3099.05C215.683,3107.96 211.894,3113.09 205.489,3119.47C205.489,3119.47 203.502,3117.44 200.013,3114.57C192.239,3107.99 176.538,3096.09 154.976,3086.54C148.793,3083.8 142.129,3081.26 135.031,3079.09C113.198,3072.41 87.278,3069.37 58.669,3075.06Z" style="fill:url(#_Radial8);"/>
                </g>
            </g>
            <g id="bands" transform="matrix(-0.724212,-0.356924,0.510551,-0.724212,2210.88,2815.34)">
                <g transform="matrix(-7.2485,0,0,6.06061,2722.59,-17188.4)">
                    <path d="M55.462,3049.41C142.049,3058.13 220.634,3099.66 220.634,3099.66" style="fill:none;stroke:rgb(255,251,251);stroke-width:1.19px;"/>
                </g>
                <g transform="matrix(-7.2485,0,0,6.06061,2722.59,-17188.4)">
                    <path d="M56.726,3075.4C142.068,3058.43 205.187,3120.42 205.187,3120.42" style="fill:none;stroke:rgb(255,251,251);stroke-width:1.19px;"/>
                </g>
            </g>
            <g id="labels" transform="matrix(0.840661,0,0,0.840661,265.778,108.433)">
                <g transform="matrix(-7.68147,-1.97814e-16,3.95628e-16,6.42262,2443.72,-15749.3)">
                    <g transform="matrix(15.7149,0,0,15.7149,41.3515,2753.15)">
                    </g>
                    <text x="33.588px" y="2753.15px" style="font-family:'BloggerSans-Medium', 'Blogger Sans';font-weight:500;font-size:15.715px;">E</text>
                </g>
                <g transform="matrix(-7.68147,-2.35308e-16,-1.88246e-15,6.42262,1680.75,-15660.6)">
                    <g transform="matrix(15.7149,0,0,15.7149,41.9801,2753.15)">
                    </g>
                    <text x="32.96px" y="2753.15px" style="font-family:'BloggerSans-Medium', 'Blogger Sans';font-weight:500;font-size:15.715px;">D</text>
                </g>
                <g transform="matrix(-7.68147,0,4.11788e-16,6.42262,1151.37,-16336)">
                    <g transform="matrix(15.7149,0,0,15.7149,41.4143,2753.15)">
                    </g>
                    <text x="33.525px" y="2753.15px" style="font-family:'BloggerSans-Medium', 'Blogger Sans';font-weight:500;font-size:15.715px;">C</text>
                    <rect x="33.525" y="2755.24" width="7.889" height="0.314"/>
                </g>
                <g transform="matrix(-7.68147,5.88269e-17,7.6475e-16,6.42262,1908.22,-16984.2)">
                    <g transform="matrix(15.7149,0,0,15.7149,41.8858,2753.15)">
                    </g>
                    <text x="33.054px" y="2753.15px" style="font-family:'BloggerSans-Medium', 'Blogger Sans';font-weight:500;font-size:15.715px;">B</text>
                </g>
                <g transform="matrix(-7.68147,0,0,6.42262,2733.72,-16529.3)">
                    <g transform="matrix(15.7149,0,0,15.7149,41.9408,2753.15)">
                    </g>
                    <text x="32.999px" y="2753.15px" style="font-family:'BloggerSans-Medium', 'Blogger Sans';font-weight:500;font-size:15.715px;">A</text>
                    <rect x="32.999" y="2755.24" width="8.942" height="0.314"/>
                </g>
            </g>
            <g id="Palette" transform="matrix(-1,0,0,1,3096.92,0)">
                <g transform="matrix(0.943326,0,0,0.943326,75.1759,-1295.19)">
                    <g transform="matrix(7.32141,0,0,6.12157,-78.923,-2999.56)">
                        <g transform="matrix(14.6933,0,0,14.6933,196.084,1056.91)">
                        </g>
                        <text x="189.105px" y="1056.91px" style="font-family:'BloggerSans-Medium', 'Blogger Sans';font-weight:500;font-size:14.693px;">L</text>
                    </g>
                    <g transform="matrix(7.32141,0,0,6.12157,105.493,-2999.56)">
                        <g transform="matrix(14.6933,0,0,14.6933,197.95,1056.91)">
                        </g>
                        <text x="187.239px" y="1056.91px" style="font-family:'BloggerSans-Medium', 'Blogger Sans';font-weight:500;font-size:14.693px;">M</text>
                    </g>
                    <g transform="matrix(7.32141,0,0,6.12157,289.908,-2999.56)">
                        <g transform="matrix(14.6933,0,0,14.6933,197.149,1056.91)">
                        </g>
                        <text x="188.039px" y="1056.91px" style="font-family:'BloggerSans-Medium', 'Blogger Sans';font-weight:500;font-size:14.693px;">N</text>
                    </g>
                    <g transform="matrix(7.32141,0,0,6.12157,474.324,-2999.56)">
                        <g transform="matrix(14.6933,0,0,14.6933,196.855,1056.91)">
                        </g>
                        <text x="188.333px" y="1056.91px" style="font-family:'BloggerSans-Medium', 'Blogger Sans';font-weight:500;font-size:14.693px;">O</text>
                    </g>
                    <g transform="matrix(7.32141,0,0,6.12157,658.74,-2999.56)">
                        <g transform="matrix(14.6933,0,0,14.6933,196.635,1056.91)">
                        </g>
                        <text x="188.554px" y="1056.91px" style="font-family:'BloggerSans-Medium', 'Blogger Sans';font-weight:500;font-size:14.693px;">P</text>
                    </g>
                </g>
                <g id="colors" transform="matrix(1,0,0,1,86.9821,0)">
                    <g transform="matrix(7.2485,0,0,5.38721,1330.87,649.965)">
                        <rect x="72" y="255" width="24" height="9" style="fill:rgb(255,195,5);stroke:rgb(215,215,215);stroke-width:1.06px;stroke-linecap:round;"/>
                    </g>
                    <g transform="matrix(7.2485,0,0,5.38721,1156.91,649.965)">
                        <rect x="72" y="255" width="24" height="9" style="fill:rgb(255,87,51);stroke:rgb(215,215,215);stroke-width:1.06px;stroke-linecap:round;"/>
                    </g>
                    <g transform="matrix(7.2485,0,0,5.38721,982.946,649.965)">
                        <rect x="72" y="255" width="24" height="9" style="fill:rgb(199,0,57);stroke:rgb(215,215,215);stroke-width:1.06px;stroke-linecap:round;"/>
                    </g>
                    <g transform="matrix(7.2485,0,0,5.38721,808.982,649.965)">
                        <rect x="72" y="255" width="24" height="9" style="fill:rgb(144,12,63);stroke:rgb(215,215,215);stroke-width:1.06px;stroke-linecap:round;"/>
                    </g>
                    <g transform="matrix(7.2485,0,0,5.38721,635.018,649.965)">
                        <rect x="72" y="255" width="24" height="9" style="fill:rgb(88,24,69);stroke:rgb(215,215,215);stroke-width:1.06px;stroke-linecap:round;"/>
                    </g>
                </g>
            </g>
            <g transform="matrix(-7.2485,0,0,6.06061,23827.6,463.85)">
                <g transform="matrix(7,0,0,7,3107.63,98.006)">
                </g>
                <text x="3100.35px" y="98.006px" style="font-family:'BloggerSans-Medium', 'Blogger Sans';font-weight:500;font-size:7px;fill:white;">15</text>
            </g>
        </g>
    </g>
    <defs>
        <radialGradient id="_Radial1" cx="0" cy="0" r="1" gradientUnits="userSpaceOnUse" gradientTransform="matrix(167.078,-48.6778,48.6778,167.078,60.5296,3082.56)"><stop offset="0" style="stop-color:rgb(144,12,63);stop-opacity:1"/><stop offset="1" style="stop-color:rgb(144,12,63);stop-opacity:0.5"/></radialGradient>
        <radialGradient id="_Radial2" cx="0" cy="0" r="1" gradientUnits="userSpaceOnUse" gradientTransform="matrix(-26.0375,172.022,-172.022,-26.0375,158.835,2972.26)"><stop offset="0" style="stop-color:rgb(88,24,69);stop-opacity:1"/><stop offset="1" style="stop-color:rgb(88,24,69);stop-opacity:0.5"/></radialGradient>
        <radialGradient id="_Radial3" cx="0" cy="0" r="1" gradientUnits="userSpaceOnUse" gradientTransform="matrix(72.9131,-157.965,157.965,72.9131,109.243,3137.77)"><stop offset="0" style="stop-color:rgb(144,12,63);stop-opacity:1"/><stop offset="1" style="stop-color:rgb(144,12,63);stop-opacity:0.5"/></radialGradient>
        <radialGradient id="_Radial4" cx="0" cy="0" r="1" gradientUnits="userSpaceOnUse" gradientTransform="matrix(-87.4567,-149.327,87.6693,-51.3454,191.692,3130.76)"><stop offset="0" style="stop-color:rgb(199,0,57);stop-opacity:0.5"/><stop offset="1" style="stop-color:rgb(199,0,57);stop-opacity:1"/></radialGradient>
        <radialGradient id="_Radial5" cx="0" cy="0" r="1" gradientUnits="userSpaceOnUse" gradientTransform="matrix(89.7009,148.328,-148.328,89.7009,98.9564,2983.57)"><stop offset="0" style="stop-color:rgb(255,87,51);stop-opacity:0.5"/><stop offset="1" style="stop-color:rgb(255,87,51);stop-opacity:1"/></radialGradient>
        <radialGradient id="_Radial6" cx="0" cy="0" r="1" gradientUnits="userSpaceOnUse" gradientTransform="matrix(148.569,-88.4282,88.4282,148.569,69.8202,3101.32)"><stop offset="0" style="stop-color:rgb(255,87,51);stop-opacity:0.5"/><stop offset="1" style="stop-color:rgb(255,87,51);stop-opacity:1"/></radialGradient>
        <radialGradient id="_Radial7" cx="0" cy="0" r="1" gradientUnits="userSpaceOnUse" gradientTransform="matrix(-53.2486,-165.334,83.6614,-26.9446,165.497,3142.32)"><stop offset="0" style="stop-color:rgb(255,195,5);stop-opacity:1"/><stop offset="1" style="stop-color:rgb(255,195,5);stop-opacity:0.5"/></radialGradient>
        <radialGradient id="_Radial8" cx="0" cy="0" r="1" gradientUnits="userSpaceOnUse" gradientTransform="matrix(-51.862,166.072,-166.072,-51.862,171.954,2975.6)"><stop offset="0" style="stop-color:rgb(199,0,57);stop-opacity:0.5"/><stop offset="1" style="stop-color:rgb(199,0,57);stop-opacity:1"/></radialGradient>
    </defs>
</svg>
