<?xml version="1.0" encoding="UTF-8" standalone="no"?>
<!DOCTYPE svg PUBLIC "-//W3C//DTD SVG 1.1//EN" "http://www.w3.org/Graphics/SVG/1.1/DTD/svg11.dtd">
<svg width="100%" height="100%" viewBox="0 0 288 288" version="1.1" xmlns="http://www.w3.org/2000/svg" xmlns:xlink="http://www.w3.org/1999/xlink" xml:space="preserve" xmlns:serif="http://www.serif.com/" style="fill-rule:evenodd;clip-rule:evenodd;stroke-linecap:round;stroke-linejoin:round;stroke-miterlimit:1.5;">
    <g transform="matrix(1,0,0,1,-3884,0)">
        <g id="Choropleth-Map" serif:id="Choropleth Map" transform="matrix(-0.137959,0,0,0.165,4259.61,-77.9108)">
            <rect x="635.018" y="472.187" width="2087.57" height="1745.46" style="fill:none;"/>
            <g id="North">
                <g transform="matrix(0.611111,0,0,0.611111,370.176,347.265)">
                    <g transform="matrix(-7.2485,0,0,6.06061,28527.3,472.187)">
                        <path d="M3812,36L3824,72L3812,62L3800,72L3812,36Z" style="fill:none;stroke:black;stroke-width:3.27px;"/>
                    </g>
                    <g transform="matrix(-7.2485,0,0,6.06061,28527.3,472.187)">
                        <path d="M3812,36L3812,62" style="fill:none;stroke:black;stroke-width:1.64px;"/>
                    </g>
                    <g transform="matrix(-7.2485,0,0,6.06061,28527.3,472.187)">
                        <path d="M3812,36L3824,72L3812,62L3812,36Z" style="stroke:black;stroke-width:1.64px;"/>
                    </g>
                </g>
                <g transform="matrix(-7.2485,0,0,6.06061,28549,472.187)">
                    <g transform="matrix(14,0,0,14,3816.34,41.061)">
                    </g>
                    <text x="3807.66px" y="41.061px" style="font-family:'BloggerSans-Medium', 'Blogger Sans';font-weight:500;font-size:14px;">N</text>
                </g>
            </g>
            <g id="Palette" transform="matrix(-1,0,0,1,3618.55,-3.41061e-13)">
                <g transform="matrix(0.943326,0,0,0.943326,75.1759,-1295.19)">
                    <g transform="matrix(7.32141,0,0,6.12157,-78.923,-2999.56)">
                        <g transform="matrix(14.6933,0,0,14.6933,196.084,1056.91)">
                        </g>
                        <text x="189.105px" y="1056.91px" style="font-family:'BloggerSans-Medium', 'Blogger Sans';font-weight:500;font-size:14.693px;">L</text>
                    </g>
                    <g transform="matrix(7.32141,0,0,6.12157,105.493,-2999.56)">
                        <g transform="matrix(14.6933,0,0,14.6933,197.95,1056.91)">
                        </g>
                        <text x="187.239px" y="1056.91px" style="font-family:'BloggerSans-Medium', 'Blogger Sans';font-weight:500;font-size:14.693px;">M</text>
                    </g>
                    <g transform="matrix(7.32141,0,0,6.12157,289.908,-2999.56)">
                        <g transform="matrix(14.6933,0,0,14.6933,197.149,1056.91)">
                        </g>
                        <text x="188.039px" y="1056.91px" style="font-family:'BloggerSans-Medium', 'Blogger Sans';font-weight:500;font-size:14.693px;">N</text>
                    </g>
                    <g transform="matrix(7.32141,0,0,6.12157,474.324,-2999.56)">
                        <g transform="matrix(14.6933,0,0,14.6933,196.855,1056.91)">
                        </g>
                        <text x="188.333px" y="1056.91px" style="font-family:'BloggerSans-Medium', 'Blogger Sans';font-weight:500;font-size:14.693px;">O</text>
                    </g>
                    <g transform="matrix(7.32141,0,0,6.12157,658.74,-2999.56)">
                        <g transform="matrix(14.6933,0,0,14.6933,196.635,1056.91)">
                        </g>
                        <text x="188.554px" y="1056.91px" style="font-family:'BloggerSans-Medium', 'Blogger Sans';font-weight:500;font-size:14.693px;">P</text>
                    </g>
                </g>
                <g id="colors" transform="matrix(1,0,0,1,86.9821,0)">
                    <g transform="matrix(7.2485,0,0,5.38721,1330.87,649.965)">
                        <rect x="72" y="255" width="24" height="9" style="fill:rgb(255,195,5);stroke:rgb(215,215,215);stroke-width:1.06px;"/>
                    </g>
                    <g transform="matrix(7.2485,0,0,5.38721,1156.91,649.965)">
                        <rect x="72" y="255" width="24" height="9" style="fill:rgb(255,87,51);stroke:rgb(215,215,215);stroke-width:1.06px;"/>
                    </g>
                    <g transform="matrix(7.2485,0,0,5.38721,982.946,649.965)">
                        <rect x="72" y="255" width="24" height="9" style="fill:rgb(199,0,57);stroke:rgb(215,215,215);stroke-width:1.06px;"/>
                    </g>
                    <g transform="matrix(7.2485,0,0,5.38721,808.982,649.965)">
                        <rect x="72" y="255" width="24" height="9" style="fill:rgb(144,12,63);stroke:rgb(215,215,215);stroke-width:1.06px;"/>
                    </g>
                    <g transform="matrix(7.2485,0,0,5.38721,635.018,649.965)">
                        <rect x="72" y="255" width="24" height="9" style="fill:rgb(88,24,69);stroke:rgb(215,215,215);stroke-width:1.06px;"/>
                    </g>
                </g>
            </g>
            <g id="Australia" transform="matrix(-0.856473,0,0,0.716113,1999.55,806.836)">
                <path id="path3031" d="M141,46.362L109,40.362L96,36.362L65,8.362L48,1.362L35,-5.638L24,-5.638L16,0.362L19,10.362L12,14.362L8,10.362L-14,18.362L-23,41.362L-34,34.362L-57,45.362L-66,58.362L-55,70.362L-58,70.362L-67,73.362L-65,91.362L-78,88.362L-94,101.362L-97,109.362L-95,119.362L-90,127.362L-99,138.362L-96,146.362L-115,144.362L-127,141.362L-136,144.362L-133,152.362L-137,165.362L-122,181.362L-125,191.362L-131,185.362L-135,213.362C-135,213.362 -145,208.362 -148,204.362C-151,200.362 -167,164.362 -167,164.362L-167,159.362L-174,163.362L-194,187.362L-206,202.362L-208,218.362L-202,235.362L-196,249.362L-203,260.362L-223,278.362L-234,315.362L-247,332.362L-278,350.362L-288,358.362L-315,364.362L-323,371.362L-351,365.362L-360,382.362L-365,386.362L-395,394.362L-402,400.362L-409,412.362L-429,419.362L-450,416.362L-467,418.362L-481,427.362L-502,450.362L-521,474.362L-549,488.362L-560,498.362L-565,530.362L-574,535.362L-581,535.362L-585,504.362L-593,506.362L-603,545.362L-591,562.362L-590,573.362L-593,600.362L-600,617.362L-600,644.362L-586,659.362L-577,679.362L-556,702.362L-543,718.362L-542,742.362L-557,734.362L-585,705.362L-588,718.362L-571,735.362L-561,749.362L-584,746.362L-580,755.362L-548,790.362L-536,811.362L-533,828.362L-501,866.362L-484,891.362L-479,918.362L-478,934.362L-466,960.362L-436,1003.36L-429,1020.36L-424,1064.36L-421,1087.36L-422,1100.36L-427,1117.36L-434,1119.36L-449,1113.36L-449,1124.36L-446,1148.36L-440,1158.36L-429,1154.36L-408,1161.36L-391,1177.36L-376,1183.36L-348,1184.36L-320,1181.36L-291,1170.36L-282,1162.36L-268,1143.36L-253,1138.36L-242,1133.36L-239,1117.36L-220,1106.36L-177,1099.36L-150,1094.36L-127,1099.36L-89,1092.36L-82,1092.36L-73,1094.36L-55,1085.36L-43,1068.36L-38,1042.36L-31,1037.36L-11,1033.36L46,996.362L64,993.362L102,995.362L123,983.362L157,965.362L175,957.362L141,51.362L141,46.362Z" style="fill:rgb(144,12,63);fill-rule:nonzero;stroke:rgb(215,215,215);stroke-width:9.31px;stroke-linecap:butt;stroke-miterlimit:2;"/>
                <g id="g3843">
                    <path id="path3033" d="M150,54.362L165,51.362L180,55.362L181,42.362L166,27.362L165,17.362L171,6.362L182,5.362L188,-25.638L197,-22.638L208,-36.638L202,-48.638L202,-58.638L211,-58.638L214,-67.638L226,-74.638L228,-88.638L243,-88.638L251,-99.638L272,-93.638L294,-96.638L306,-92.638L323,-102.638L338,-106.638L334,-126.638L324,-135.638L310,-137.638L300,-148.638L324,-158.638L344,-136.638L354,-143.638L366,-124.638L390,-118.638L403,-125.638L405,-116.638L449,-108.638L455,-107.638L470,-95.638L478,-94.638L486,-102.638L500,-100.638L503,-93.638L516,-96.638L522,-83.638L531,-82.638L538,-92.638L531,-100.638L545,-107.638L548,-107.638L554,-98.638L561,-96.638L566,-94.638L571,-86.638L561,-75.638L554,-64.638L546,-63.638L548,-50.638L542,-41.638L533,-44.638L513,-31.638L513,-14.638L519,-8.638L510,7.362L511,12.362L502,19.362L490,39.362L486,42.362L490,56.362L528,81.362L532,89.362L549,98.362L553,111.362L572,108.362L592,121.362L608,129.362L616,144.362L598,649.362L500,646.362L377,644.362L214,649.362L170,650.362L150,54.362Z" style="fill:rgb(199,0,57);fill-rule:nonzero;stroke:rgb(215,215,215);stroke-width:9.31px;stroke-linecap:butt;stroke-miterlimit:2;"/>
                    <path id="path3035" d="M193,-116.638L213,-112.638L229,-118.638L244,-114.638L266,-127.638L274,-138.638L273,-150.638L262,-153.638L235,-143.638L215,-149.638L208,-144.638L199,-133.638L200,-128.638L193,-116.638Z" style="fill:rgb(255,195,5);fill-rule:nonzero;stroke:rgb(215,215,215);stroke-width:9.31px;stroke-linecap:butt;stroke-miterlimit:2;"/>
                    <path id="path3037" d="M536,17.362L565,19.362L571,12.362L561,4.362L564,-9.638L544,-16.638L542,-9.638L538,10.362L536,17.362Z" style="fill:rgb(255,195,5);fill-rule:nonzero;stroke:rgb(215,215,215);stroke-width:9.31px;stroke-linecap:butt;stroke-miterlimit:2;"/>
                </g>
                <path id="path3041" d="M739,825.362L885,837.362L992,847.362L1112,860.362L1127,845.362L1139,842.362L1149,845.362L1170,844.362L1177,849.362L1183,851.362L1194,853.362L1201,858.362L1206,862.362L1213,870.362L1214,880.362L1221,882.362L1229,878.362L1234,869.362L1243,874.362L1254,874.362L1258,864.362L1257,855.362L1281,844.362L1292,847.362L1302,852.362L1326,847.362L1325,873.362L1312,897.362L1301,928.362L1288,957.362L1288,975.362L1279,996.362L1268,1020.36L1258,1032.36L1250,1044.36L1245,1058.36L1209,1081.36L1181,1114.36L1172,1136.36L1161,1156.36L1152,1186.36L1139,1199.36L1121,1218.36L1111,1243.36L1103,1267.36L1097,1303.36L1092,1309.36L1026,1266.36L1027,1251.36L1023,1241.36L1023,1224.36L1005,1216.36L984,1219.36L965,1215.36L942,1214.36L915,1205.36L898,1198.36L883,1201.36L882,1207.36L883,1213.36L880,1214.36L873,1210.36L862,1192.36L850,1179.36L834,1170.36L829,1161.36L822,1153.36L826,1136.36L816,1131.86L797.5,1125.86L789,1132.36L782,1116.36L781,1107.36L762,1094.36L753,1091.36L744,1096.36L723,1088.36L739,825.362Z" style="fill:rgb(199,0,57);fill-rule:nonzero;stroke:rgb(215,215,215);stroke-width:9.31px;stroke-linecap:butt;stroke-miterlimit:2;"/>
                <path id="path3043" d="M1057,1200.36L1066,1186.36L1078,1186.36L1082,1197.36L1073,1208.36L1068,1228.36L1059,1218.36L1056,1208.36L1057,1200.36Z" style="fill:rgb(255,195,5);fill-rule:nonzero;stroke:rgb(215,215,215);stroke-width:9.31px;stroke-linecap:butt;stroke-linejoin:miter;stroke-miterlimit:4;"/>
                <path id="path3813" d="M721,1096.36L709,1311.36L733,1328.36L745,1320.36L762,1327.36L788,1341.36L810,1357.36L853,1337.36L862,1329.36L875,1310.36L881,1321.36L875,1335.36L873,1341.36L897,1355.36L911,1364.36L915,1371.36L953,1363.36L984,1335.36L1011,1326.36L1045,1325.36L1076,1327.36L1088,1315.36L1020,1270.36L1017,1262.36L1020,1250.36L1016,1246.36L1014,1230.36L1005,1227.36L993,1225.36L984,1229.36L971,1225.36L962,1221.36L950,1226.36L941,1222.36L912,1212.36L902,1208.36L890,1208.36L888,1219.36L882,1222.36L872.5,1221.36L863,1206.36L855,1192.36L840,1180.36L826,1175.36L818.5,1161.86L817.5,1147.36L814.5,1137.36L804.5,1134.36L796,1132.36L788,1139.36L780,1127.36L775,1120.36L775,1111.36L758,1101.36L749,1104.36L738,1102.36L721,1096.36Z" style="fill:rgb(144,12,63);fill-rule:nonzero;stroke:rgb(215,215,215);stroke-width:9.31px;stroke-linecap:butt;stroke-miterlimit:2;"/>
                <g id="g3834">
                    <path id="path3817" d="M924,1631.86L933.5,1615.86L941.5,1612.86L952,1592.36L956.5,1592.36L968.5,1594.36L974.5,1586.86L983,1557.86L993,1548.36L995.5,1525.86L996.5,1506.86L1001,1493.86C1001,1493.86 991,1479.86 989,1479.86C987,1479.86 974.5,1488.36 974.5,1488.36L948.5,1488.86L937.5,1491.86L919.5,1496.36L888.5,1481.36L856.5,1464.86L852,1465.36L849,1475.86L846.5,1486.36L854,1509.86L861.5,1527.36L870,1543.36L873.5,1557.36L870.5,1566.86L870,1574.36L884.5,1606.36L892,1623.36L898,1626.36L909,1625.36L919.5,1631.86L924,1631.86Z" style="fill:rgb(255,195,5);fill-rule:nonzero;stroke:rgb(215,215,215);stroke-width:9.31px;stroke-linecap:butt;stroke-miterlimit:2;"/>
                    <path id="path3819" d="M985,1428.36L991,1422.36L994.5,1421.86L1001,1431.36L1006.5,1441.36L1006,1453.86L997,1456.36L990.5,1445.36L986,1433.36L985,1428.36Z" style="fill:rgb(255,195,5);fill-rule:nonzero;stroke:rgb(215,215,215);stroke-width:9.31px;stroke-linecap:butt;stroke-miterlimit:2;"/>
                    <path id="path3821" d="M823.5,1395.36L819,1407.36L819,1422.86L822.5,1428.36L827,1429.36L831.5,1423.86L835.5,1411.86L835,1402.36L833.5,1398.36L830.5,1394.36L823.5,1395.36Z" style="fill:rgb(255,195,5);fill-rule:nonzero;stroke:rgb(215,215,215);stroke-width:9.31px;stroke-linecap:butt;stroke-miterlimit:2;"/>
                </g>
                <g id="g3829">
                    <path id="path3039" d="M625,149.362L640,154.362L662,162.362L674,171.362L684,192.362L702,199.362L721,214.362L738,210.362L755,208.362L766,193.362L778,172.362L791,155.362L800,125.362L802,106.362L815,72.362L809,56.362L814,29.362L811,17.362L806,5.362L814,-9.638L822,-21.638L820,-43.638L830,-48.638L837,-57.638L824,-69.638L846,-103.638L854,-137.638L857,-146.638L868,-152.638L878,-162.638L883,-160.638L882,-153.638L894,-143.638L895,-100.638L901,-93.638L909,-88.638L901,-74.638L918,-54.638L918,-46.638L923,-31.638L920,4.362L927,29.362L931,47.362L943,53.362L956,41.362L972,38.362L976,55.362L997,73.362L1007,81.362L1006,110.362L1011,134.362L1010,149.362L1008,163.362L1031,211.362L1038,224.362L1037,246.362L1030,262.362L1043,267.362L1040,291.362L1039,301.362L1053,318.362L1074,332.362L1095,334.362L1099,346.362L1103,360.362L1126,364.362L1136,385.362L1145,378.362L1161,393.362L1156,405.362L1167,429.362L1178,454.362L1182,492.362L1182,512.362L1196,515.362L1200,519.362L1202,497.362L1211,503.362L1233,527.362L1242,543.362L1237,575.362L1261,608.362L1275,611.362L1284,625.362L1287,642.362L1305,655.362L1309,668.362L1314,681.362L1322,688.362L1321,705.362L1329,719.362L1327,726.362L1321,735.362L1322,774.362L1321,784.362L1313,783.362L1318,796.362L1327,816.362L1325,841.362L1301,843.362L1281,835.362L1251,851.362L1249,866.362L1237,865.362L1232,864.362L1223,875.362L1218,876.362L1220,866.362L1213,858.362L1208,851.362L1195,846.362L1182,846.362L1176,836.362L1152,840.362L1137,832.362L1123,837.362L1109,851.362L952,836.362L866,826.362L749,818.362L738,817.362L749,657.362L607,650.362L625,149.362Z" style="fill:rgb(255,87,51);fill-rule:nonzero;stroke:rgb(215,215,215);stroke-width:9.31px;stroke-linecap:butt;stroke-miterlimit:2;"/>
                    <path id="path3823" d="M682.5,156.862L689,157.862L697,155.362L708,149.862L713.5,148.862L715,143.362L713,138.862L698,136.362L690,138.862L683.5,143.862L679.5,149.362L679,154.862L682.5,156.862Z" style="fill:rgb(255,195,5);fill-rule:nonzero;stroke:rgb(215,215,215);stroke-width:9.31px;stroke-linecap:butt;stroke-miterlimit:2;"/>
                    <path id="path3825" d="M1329,683.362L1332,697.362L1339,699.362L1348,686.362L1352,668.362L1341,660.362L1334,665.362L1329,683.362Z" style="fill:rgb(255,195,5);fill-rule:nonzero;stroke:rgb(215,215,215);stroke-width:9.31px;stroke-linecap:butt;stroke-miterlimit:2;"/>
                </g>
                <g id="g3839">
                    <path id="path3815" d="M700.5,1306.86L686.5,1304.86L676,1292.86L657,1258.36L653,1245.36L657,1235.36L652,1213.36L648.5,1191.86L635,1179.86L620.5,1167.86L609.5,1169.36L603,1171.36L590,1169.86L591,1163.36L603.5,1142.36L606,1131.36L605.5,1120.36L589,1094.36L585.5,1104.36L574.5,1141.86L566,1145.86L542.5,1145.86L537.5,1134.36L543,1130.36L555.5,1129.86L557.5,1121.86L560.5,1095.86L566,1075.86L580,1063.86L583.5,1057.86L583,1041.86L589.5,1038.36L591.5,1035.86L580,1003.86L575.5,1004.86L574.5,1022.86L567.5,1030.36L555,1051.86L549,1063.86L537,1065.86L519,1078.36L505.5,1097.86L494,1116.36L482.5,1124.86L471.5,1120.36L460,1081.86L459.5,1071.86L445.5,1058.36L436,1036.86L423.5,1032.36L414.5,1023.36L410.5,1015.86L416.5,1004.86L406.5,999.362L401.5,991.862L395,981.362L385.5,976.862L370,981.862L362,975.862L351.5,970.362L341,968.362L336,972.362L328,972.362L316,963.862L298,952.862L282.5,945.362L277,944.362L272.5,945.362L265,949.362L241.5,949.862L183.5,953.862L171,656.862L352,653.362L494.5,653.862L641,659.862L741,663.862L703.5,1307.86L700.5,1306.86Z" style="fill:rgb(88,24,69);fill-rule:nonzero;stroke:white;stroke-width:25.39px;stroke-linecap:square;stroke-miterlimit:2;"/>
                    <path id="path3827" d="M527,1164.36L526,1175.36L534,1181.36L544,1181.36L572,1179.36L582,1169.36L572,1158.36L562,1158.36L527,1164.36Z" style="fill:rgb(255,195,5);fill-rule:nonzero;stroke:rgb(215,215,215);stroke-width:9.31px;stroke-linecap:butt;stroke-miterlimit:2;"/>
                </g>
                <g transform="matrix(8.4632,0,0,8.4632,-33693.8,-513.001)">
                    <g transform="matrix(14,0,0,14,4043.98,161.061)">
                    </g>
                    <text x="4036.02px" y="161.061px" style="font-family:'BloggerSans-Medium', 'Blogger Sans';font-weight:500;font-size:14px;fill:white;">A</text>
                </g>
            </g>
        </g>
    </g>
</svg>
