<?xml version="1.0" encoding="UTF-8" standalone="no"?>
<!DOCTYPE svg PUBLIC "-//W3C//DTD SVG 1.1//EN" "http://www.w3.org/Graphics/SVG/1.1/DTD/svg11.dtd">
<svg width="100%" height="100%" viewBox="0 0 289 288" version="1.1" xmlns="http://www.w3.org/2000/svg" xmlns:xlink="http://www.w3.org/1999/xlink" xml:space="preserve" xmlns:serif="http://www.serif.com/" style="fill-rule:evenodd;clip-rule:evenodd;stroke-linecap:round;stroke-linejoin:round;stroke-miterlimit:1.5;">
    <g transform="matrix(1,0,0,1,-3236,0)">
        <g id="Heat-Map" serif:id="Heat Map" transform="matrix(-0.137959,0,0,0.165,3611.62,-77.9108)">
            <rect x="635.018" y="472.187" width="2087.57" height="1745.46" style="fill:none;"/>
            <g>
                <g transform="matrix(-7.2485,0,0,6.06061,4897.4,-17043)">
                    <rect x="348.036" y="2938" width="48" height="24" style="fill:rgb(255,87,51);stroke:rgb(215,215,215);stroke-width:2px;"/>
                </g>
                <g transform="matrix(-7.2485,0,0,6.06061,4549.47,-17043)">
                    <rect x="348.036" y="2938" width="48" height="24" style="fill:rgb(255,87,51);stroke:rgb(215,215,215);stroke-width:2px;"/>
                </g>
                <g transform="matrix(-7.2485,0,0,6.06061,4201.54,-17043)">
                    <rect x="348.036" y="2938" width="48" height="24" style="fill:rgb(199,0,57);stroke:rgb(215,215,215);stroke-width:2px;"/>
                </g>
                <g transform="matrix(-7.2485,0,0,6.06061,3853.61,-17043)">
                    <rect x="348.036" y="2938" width="48" height="24" style="fill:rgb(255,195,5);stroke:rgb(215,215,215);stroke-width:2px;"/>
                </g>
                <g transform="matrix(-7.2485,0,0,6.06061,4897.4,-16897.5)">
                    <rect x="348.036" y="2938" width="48" height="24" style="fill:rgb(199,0,57);stroke:rgb(215,215,215);stroke-width:2px;"/>
                </g>
                <g transform="matrix(-7.2485,0,0,6.06061,4549.47,-16897.5)">
                    <rect x="348.036" y="2938" width="48" height="24" style="fill:rgb(144,12,63);stroke:rgb(215,215,215);stroke-width:2px;"/>
                </g>
                <g transform="matrix(-7.2485,0,0,6.06061,4201.54,-16897.5)">
                    <rect x="348.036" y="2938" width="48" height="24" style="fill:rgb(255,195,5);stroke:rgb(215,215,215);stroke-width:2px;"/>
                </g>
                <g transform="matrix(-7.2485,0,0,6.06061,3853.61,-16897.5)">
                    <rect x="348.036" y="2938" width="48" height="24" style="fill:rgb(255,87,51);stroke:rgb(215,215,215);stroke-width:2px;"/>
                </g>
                <g transform="matrix(-7.2485,0,0,6.06061,4897.4,-16752.1)">
                    <rect x="348.036" y="2938" width="48" height="24" style="fill:rgb(88,24,69);stroke:rgb(215,215,215);stroke-width:2px;"/>
                </g>
                <g transform="matrix(-7.2485,0,0,6.06061,4549.47,-16752.1)">
                    <rect x="348.036" y="2938" width="48" height="24" style="fill:rgb(144,12,63);stroke:rgb(215,215,215);stroke-width:2px;"/>
                </g>
                <g transform="matrix(-7.2485,0,0,6.06061,4201.54,-16752.1)">
                    <rect x="348.036" y="2938" width="48" height="24" style="fill:rgb(255,87,51);stroke:rgb(215,215,215);stroke-width:2px;"/>
                </g>
                <g transform="matrix(-7.2485,0,0,6.06061,3853.61,-16752.1)">
                    <rect x="348.036" y="2938" width="48" height="24" style="fill:rgb(199,0,57);stroke:rgb(215,215,215);stroke-width:2px;"/>
                </g>
                <g transform="matrix(-7.2485,0,0,6.06061,4897.4,-16606.6)">
                    <rect x="348.036" y="2938" width="48" height="24" style="fill:rgb(144,12,63);stroke:rgb(215,215,215);stroke-width:2px;"/>
                </g>
                <g transform="matrix(-7.2485,0,0,6.06061,4549.47,-16606.6)">
                    <rect x="348.036" y="2938" width="48" height="24" style="fill:rgb(199,0,57);stroke:rgb(215,215,215);stroke-width:2px;"/>
                </g>
                <g transform="matrix(-7.2485,0,0,6.06061,4201.54,-16606.6)">
                    <rect x="348.036" y="2938" width="48" height="24" style="fill:rgb(199,0,57);stroke:rgb(215,215,215);stroke-width:2px;"/>
                </g>
                <g transform="matrix(-7.2485,0,0,6.06061,3853.61,-16606.6)">
                    <rect x="348.036" y="2938" width="48" height="24" style="fill:rgb(144,12,63);stroke:rgb(215,215,215);stroke-width:2px;"/>
                </g>
                <g transform="matrix(-7.2485,0,0,6.06061,4897.4,-16461.2)">
                    <rect x="348.036" y="2938" width="48" height="24" style="fill:rgb(199,0,57);stroke:rgb(215,215,215);stroke-width:2px;"/>
                </g>
                <g transform="matrix(-7.2485,0,0,6.06061,4549.47,-16461.2)">
                    <rect x="348.036" y="2938" width="48" height="24" style="fill:rgb(199,0,57);stroke:rgb(215,215,215);stroke-width:2px;"/>
                </g>
                <g transform="matrix(-7.2485,0,0,6.06061,3853.61,-16461.2)">
                    <rect x="348.036" y="2938" width="48" height="24" style="fill:rgb(255,195,5);stroke:rgb(215,215,215);stroke-width:2px;"/>
                </g>
                <g transform="matrix(-7.2485,0,0,6.06061,4897.4,-16315.7)">
                    <rect x="348.036" y="2938" width="48" height="24" style="fill:rgb(199,0,57);stroke:rgb(215,215,215);stroke-width:2px;"/>
                </g>
                <g transform="matrix(-7.2485,0,0,6.06061,4549.47,-16315.7)">
                    <rect x="348.036" y="2938" width="48" height="24" style="fill:rgb(144,12,63);stroke:rgb(215,215,215);stroke-width:2px;"/>
                </g>
                <g transform="matrix(-7.2485,0,0,6.06061,4201.54,-16315.7)">
                    <rect x="348.036" y="2938" width="48" height="24" style="fill:rgb(255,87,51);stroke:rgb(215,215,215);stroke-width:2px;"/>
                </g>
                <g transform="matrix(-7.2485,0,0,6.06061,3853.61,-16315.7)">
                    <rect x="348.036" y="2938" width="48" height="24" style="fill:rgb(144,12,63);stroke:rgb(215,215,215);stroke-width:2px;"/>
                </g>
                <g transform="matrix(-7.2485,0,0,6.06061,4897.4,-16170.3)">
                    <rect x="348.036" y="2938" width="48" height="24" style="fill:rgb(88,24,69);stroke:rgb(215,215,215);stroke-width:2px;"/>
                </g>
                <g transform="matrix(-7.2485,0,0,6.06061,4549.47,-16170.3)">
                    <rect x="348.036" y="2938" width="48" height="24" style="fill:rgb(88,24,69);stroke:rgb(215,215,215);stroke-width:2px;"/>
                </g>
                <g transform="matrix(-7.2485,0,0,6.06061,4201.54,-16170.3)">
                    <rect x="348.036" y="2938" width="48" height="24" style="fill:rgb(144,12,63);stroke:rgb(215,215,215);stroke-width:2px;"/>
                </g>
                <g transform="matrix(-7.2485,0,0,6.06061,3853.61,-16170.3)">
                    <rect x="348.036" y="2938" width="48" height="24" style="fill:rgb(88,24,69);stroke:rgb(215,215,215);stroke-width:2px;"/>
                </g>
                <g transform="matrix(-7.2485,0,0,6.06061,4201.54,-16461.2)">
                    <rect x="348.036" y="2938" width="48" height="24" style="fill:white;stroke:rgb(215,215,215);stroke-width:2px;"/>
                </g>
            </g>
            <g id="Quantitative-color-scale" serif:id="Quantitative color scale" transform="matrix(-1,0,0,1,3096.66,3.63798e-12)">
                <g transform="matrix(0.943326,0,0,0.943326,75.1759,-1295.19)">
                    <g transform="matrix(7.32141,0,0,6.12157,-78.923,-2999.56)">
                        <g transform="matrix(14.6933,0,0,14.6933,196.415,1056.91)">
                        </g>
                        <text x="188.774px" y="1056.91px" style="font-family:'BloggerSans-Medium', 'Blogger Sans';font-weight:500;font-size:14.693px;">0</text>
                    </g>
                    <g transform="matrix(7.32141,0,0,6.12157,105.493,-2999.56)">
                        <g transform="matrix(14.6933,0,0,14.6933,196.415,1056.91)">
                        </g>
                        <text x="188.774px" y="1056.91px" style="font-family:'BloggerSans-Medium', 'Blogger Sans';font-weight:500;font-size:14.693px;">1</text>
                    </g>
                    <g transform="matrix(7.32141,0,0,6.12157,289.908,-2999.56)">
                        <g transform="matrix(14.6933,0,0,14.6933,196.415,1056.91)">
                        </g>
                        <text x="188.774px" y="1056.91px" style="font-family:'BloggerSans-Medium', 'Blogger Sans';font-weight:500;font-size:14.693px;">2</text>
                    </g>
                    <g transform="matrix(7.32141,0,0,6.12157,474.324,-2999.56)">
                        <g transform="matrix(14.6933,0,0,14.6933,196.415,1056.91)">
                        </g>
                        <text x="188.774px" y="1056.91px" style="font-family:'BloggerSans-Medium', 'Blogger Sans';font-weight:500;font-size:14.693px;">3</text>
                    </g>
                    <g transform="matrix(7.32141,0,0,6.12157,658.74,-2999.56)">
                        <g transform="matrix(14.6933,0,0,14.6933,196.415,1056.91)">
                        </g>
                        <text x="188.774px" y="1056.91px" style="font-family:'BloggerSans-Medium', 'Blogger Sans';font-weight:500;font-size:14.693px;">4</text>
                    </g>
                </g>
                <g id="colors" transform="matrix(1,0,0,1,86.9821,0)">
                    <g transform="matrix(7.2485,0,0,5.38721,1330.87,649.965)">
                        <rect x="72" y="255" width="24" height="9" style="fill:rgb(255,195,5);stroke:rgb(215,215,215);stroke-width:1.06px;"/>
                    </g>
                    <g transform="matrix(7.2485,0,0,5.38721,1156.91,649.965)">
                        <rect x="72" y="255" width="24" height="9" style="fill:rgb(255,87,51);stroke:rgb(215,215,215);stroke-width:1.06px;"/>
                    </g>
                    <g transform="matrix(7.2485,0,0,5.38721,982.946,649.965)">
                        <rect x="72" y="255" width="24" height="9" style="fill:rgb(199,0,57);stroke:rgb(215,215,215);stroke-width:1.06px;"/>
                    </g>
                    <g transform="matrix(7.2485,0,0,5.38721,808.982,649.965)">
                        <rect x="72" y="255" width="24" height="9" style="fill:rgb(144,12,63);stroke:rgb(215,215,215);stroke-width:1.06px;"/>
                    </g>
                    <g transform="matrix(7.2485,0,0,5.38721,635.018,649.965)">
                        <rect x="72" y="255" width="24" height="9" style="fill:rgb(88,24,69);stroke:rgb(215,215,215);stroke-width:1.06px;"/>
                    </g>
                </g>
            </g>
            <g id="labels">
                <g>
                    <g transform="matrix(-6.45751,-6.65178e-16,-3.32589e-16,5.39925,1398.87,-14143.9)">
                        <g transform="matrix(15.7149,0,0,15.7149,41.9801,2753.15)">
                        </g>
                        <text x="32.96px" y="2753.15px" style="font-family:'BloggerSans-Medium', 'Blogger Sans';font-weight:500;font-size:15.715px;">D</text>
                    </g>
                    <g transform="matrix(-6.45751,-6.65178e-16,-3.32589e-16,5.39925,1746.8,-14143.9)">
                        <g transform="matrix(15.7149,0,0,15.7149,41.4143,2753.15)">
                        </g>
                        <text x="33.525px" y="2753.15px" style="font-family:'BloggerSans-Medium', 'Blogger Sans';font-weight:500;font-size:15.715px;">C</text>
                        <rect x="33.525" y="2755.24" width="7.889" height="0.314"/>
                    </g>
                    <g transform="matrix(-6.45751,-6.65178e-16,-3.32589e-16,5.39925,2094.73,-14143.9)">
                        <g transform="matrix(15.7149,0,0,15.7149,41.8858,2753.15)">
                        </g>
                        <text x="33.054px" y="2753.15px" style="font-family:'BloggerSans-Medium', 'Blogger Sans';font-weight:500;font-size:15.715px;">B</text>
                    </g>
                    <g transform="matrix(-6.45751,-6.65178e-16,-3.32589e-16,5.39925,2450.88,-14143.9)">
                        <g transform="matrix(15.7149,0,0,15.7149,41.9408,2753.15)">
                        </g>
                        <text x="32.999px" y="2753.15px" style="font-family:'BloggerSans-Medium', 'Blogger Sans';font-weight:500;font-size:15.715px;">A</text>
                    </g>
                </g>
                <g>
                    <g transform="matrix(-6.45751,-6.65178e-16,-3.32589e-16,5.39925,2703.6,-13126.6)">
                        <g transform="matrix(15.7149,0,0,15.7149,42.1451,2753.15)">
                        </g>
                        <text x="32.795px" y="2753.15px" style="font-family:'BloggerSans-Medium', 'Blogger Sans';font-weight:500;font-size:15.715px;">R</text>
                    </g>
                    <g transform="matrix(-6.45751,-6.65178e-16,-3.32589e-16,5.39925,2703.6,-13270.3)">
                        <g transform="matrix(15.7149,0,0,15.7149,42.0272,2753.15)">
                        </g>
                        <text x="32.913px" y="2753.15px" style="font-family:'BloggerSans-Medium', 'Blogger Sans';font-weight:500;font-size:15.715px;">Q</text>
                    </g>
                    <g transform="matrix(-6.45751,-6.65178e-16,-3.32589e-16,5.39925,2703.6,-13416.6)">
                        <g transform="matrix(15.7149,0,0,15.7149,41.7915,2753.15)">
                        </g>
                        <text x="33.148px" y="2753.15px" style="font-family:'BloggerSans-Medium', 'Blogger Sans';font-weight:500;font-size:15.715px;">P</text>
                        <rect x="33.148" y="2755.24" width="8.643" height="0.314"/>
                    </g>
                    <g transform="matrix(-6.45751,-6.65178e-16,-3.32589e-16,5.39925,2703.6,-13563)">
                        <g transform="matrix(15.7149,0,0,15.7149,42.0272,2753.15)">
                        </g>
                        <text x="32.913px" y="2753.15px" style="font-family:'BloggerSans-Medium', 'Blogger Sans';font-weight:500;font-size:15.715px;">O</text>
                    </g>
                    <g transform="matrix(-6.45751,-6.65178e-16,-3.32589e-16,5.39925,2707.99,-13707.5)">
                        <g transform="matrix(15.7149,0,0,15.7149,42.3415,2753.15)">
                        </g>
                        <text x="32.598px" y="2753.15px" style="font-family:'BloggerSans-Medium', 'Blogger Sans';font-weight:500;font-size:15.715px;">N</text>
                    </g>
                    <g transform="matrix(-6.45751,-6.65178e-16,-3.32589e-16,5.39925,2707.99,-13853)">
                        <g transform="matrix(15.7149,0,0,15.7149,43.198,2753.15)">
                        </g>
                        <text x="31.742px" y="2753.15px" style="font-family:'BloggerSans-Medium', 'Blogger Sans';font-weight:500;font-size:15.715px;">M</text>
                    </g>
                    <g transform="matrix(-6.45751,-6.65178e-16,-3.32589e-16,5.39925,2707.99,-13998.4)">
                        <g transform="matrix(15.7149,0,0,15.7149,41.2022,2753.15)">
                        </g>
                        <text x="33.738px" y="2753.15px" style="font-family:'BloggerSans-Medium', 'Blogger Sans';font-weight:500;font-size:15.715px;">L</text>
                    </g>
                </g>
            </g>
            <g transform="matrix(-7.2485,0,0,6.06061,26178.9,441.884)">
                <g transform="matrix(14,0,0,14,3407.66,166.061)">
                </g>
                <text x="3400.38px" y="166.061px" style="font-family:'BloggerSans-Medium', 'Blogger Sans';font-weight:500;font-size:14px;">1</text>
            </g>
        </g>
    </g>
</svg>
