<?xml version="1.0" encoding="UTF-8" standalone="no"?>
<!DOCTYPE svg PUBLIC "-//W3C//DTD SVG 1.1//EN" "http://www.w3.org/Graphics/SVG/1.1/DTD/svg11.dtd">
<svg width="100%" height="100%" viewBox="0 0 288 288" version="1.1" xmlns="http://www.w3.org/2000/svg" xmlns:xlink="http://www.w3.org/1999/xlink" xml:space="preserve" xmlns:serif="http://www.serif.com/" style="fill-rule:evenodd;clip-rule:evenodd;stroke-linejoin:bevel;stroke-miterlimit:1.5;">
    <g transform="matrix(1,0,0,1,-1944,0)">
        <g id="Hive-Plot---for-ratios" serif:id="Hive Plot - for ratios" transform="matrix(-0.137959,0,0,0.165,2319.61,-77.9108)">
            <rect x="635.018" y="472.187" width="2087.57" height="1745.46" style="fill:none;"/>
            <g id="axes" transform="matrix(0.514021,0.744405,1.06481,-0.514021,-616.229,748.14)">
                <g id="C" transform="matrix(-0.5,0.7241,-1.048,-0.505903,3918.97,805.49)">
                    <g transform="matrix(7.7791,-1.34427e-14,-1.54974e-14,4.92305,-7002.54,-1062.61)">
                        <path d="M1116,465.26L1116,382" style="fill:none;stroke:rgb(128,128,128);stroke-width:1.02px;"/>
                    </g>
                    <g transform="matrix(-3.45324,4.94263,-5.98119,-2.85363,8630.94,2799.2)">
                        <g transform="matrix(14.2925,0,0,14.2925,195.838,1056.42)">
                        </g>
                        <text x="188.663px" y="1056.42px" style="font-family:'BloggerSans-Medium', 'Blogger Sans';font-weight:500;font-size:14.293px;">C</text>
                    </g>
                </g>
                <g id="B" transform="matrix(1,-1.11022e-16,0,1.01181,0,-7.4769)">
                    <g transform="matrix(7.7791,-1.38451e-14,-1.54974e-14,4.92305,-7002.79,-1062.59)">
                        <path d="M1116,465.26L1116,382" style="fill:none;stroke:rgb(128,128,128);stroke-width:1.02px;"/>
                    </g>
                    <g transform="matrix(-3.45324,-4.94263,5.98119,-2.85363,-3952.79,4689.31)">
                        <g transform="matrix(14.2925,0,0,14.2925,196.267,1056.42)">
                        </g>
                        <text x="188.235px" y="1056.42px" style="font-family:'BloggerSans-Medium', 'Blogger Sans';font-weight:500;font-size:14.293px;">B</text>
                    </g>
                </g>
                <g id="A" transform="matrix(-0.5,-0.7241,1.03577,-0.5,1125.18,3232.99)">
                    <g transform="matrix(7.7791,-1.27966e-14,-1.46897e-14,5.02476,-7002.68,-1101.64)">
                        <path d="M1116,465.26L1116,382" style="fill:none;stroke:rgb(128,128,128);stroke-width:1.01px;"/>
                    </g>
                    <g transform="matrix(6.90648,-4.84842e-16,-1.56031e-15,5.77464,351.017,-5325.04)">
                        <g transform="matrix(14.2925,0,0,14.2925,196.317,1056.42)">
                        </g>
                        <text x="188.185px" y="1056.42px" style="font-family:'BloggerSans-Medium', 'Blogger Sans';font-weight:500;font-size:14.293px;">A</text>
                    </g>
                </g>
            </g>
            <g id="sectors" transform="matrix(0.514021,0.744405,1.06481,-0.514021,-616.229,748.14)">
                <g transform="matrix(7.2485,0,0,6.06061,-6410.53,-1479.33)">
                    <path d="M1118.93,384.981C1177,384.981 1217,453 1187.63,503.974L1173.99,496.096C1200.65,451.062 1155.93,404.533 1118.93,404.533L1118.93,384.981Z" style="fill:rgb(255,195,5);"/>
                </g>
                <g transform="matrix(7.2485,0,0,6.06061,-6410.53,-1479.33)">
                    <path d="M1173.99,496.096L1153.78,484.43C1166.99,462.211 1157.41,424.068 1118.93,424.068L1118.93,404.533C1155.93,404.533 1200.65,451.062 1173.99,496.096Z" style="fill:rgb(199,0,57);"/>
                </g>
                <g transform="matrix(7.2485,0,0,6.06061,-6410.53,-1479.33)">
                    <path d="M1146.7,480.341L1133.05,472.464C1136.91,463 1131,450 1118.93,448L1118.93,432.245C1146.22,432.245 1157.86,461.563 1146.7,480.341Z" style="fill:rgb(88,24,69);"/>
                </g>
                <g transform="matrix(7.2485,0,0,6.06061,-6410.53,-1479.33)">
                    <path d="M1113.07,448C1102,450 1095,461 1098.91,472.402L1092.26,476.327C1078.08,452.054 1093.43,424.368 1113.07,424.368L1113.07,448Z" style="fill:rgb(88,24,69);"/>
                </g>
                <g transform="matrix(7.2485,0,0,6.06061,-6410.53,-1479.33)">
                    <path d="M1113.07,424.368C1082.71,424.368 1055.17,459.974 1071.64,488.188L1064.82,492.134C1041.71,451.98 1073.69,400.735 1113.07,400.735L1113.07,424.368Z" style="fill:rgb(199,0,57);"/>
                </g>
                <g transform="matrix(7.2485,0,0,6.06061,-6410.53,-1479.33)">
                    <path d="M1044.37,503.974C1014.14,451 1056,384.981 1113.07,384.981L1113.07,400.735C1073.69,400.735 1041.71,451.98 1064.82,492.134L1044.37,503.974Z" style="fill:rgb(255,195,5);"/>
                </g>
                <g transform="matrix(7.2485,0,0,6.06061,-6410.53,-1479.33)">
                    <path d="M1060.98,501.23C1082.72,540.768 1158.16,545.823 1181.04,506.94L1184.7,509.046C1157.26,558.604 1077.35,559.939 1047.3,509.046L1060.98,501.23Z" style="fill:rgb(255,195,5);"/>
                </g>
                <g transform="matrix(7.2485,0,0,6.06061,-6410.53,-1479.33)">
                    <path d="M1171.05,501.187L1181.04,506.94C1161.47,540.205 1090.43,538.455 1067.8,497.292L1081.41,489.352C1105.36,529.838 1157.89,524.009 1171.05,501.187Z" style="fill:rgb(199,0,57);"/>
                </g>
                <g transform="matrix(7.2485,0,0,6.06061,-6410.53,-1479.33)">
                    <path d="M1067.8,497.292C1089.95,537.578 1162.03,539.172 1181.04,506.94C1157.22,547.424 1084.09,543.27 1060.98,501.23L1067.8,497.292Z" style="fill:rgb(199,0,57);"/>
                </g>
                <g transform="matrix(7.2485,0,0,6.06061,-6410.53,-1479.33)">
                    <path d="M1130.09,477.598L1150.62,489.423C1139.66,508.433 1100.88,506.795 1088.23,485.414L1101.88,477.536C1108,485.414 1122,487 1130.09,477.598Z" style="fill:rgb(88,24,69);"/>
                </g>
                <g transform="matrix(-3.62425,-5.24864,6.27739,-3.03031,2798.37,8684.18)">
                    <path d="M1091.11,495.229L1098.2,491.14C1108.88,510.199 1140.09,514.773 1153.73,491.14L1160.81,495.229C1141.57,528.557 1103.75,517.78 1091.11,495.229Z" style="fill:rgb(144,12,63);"/>
                </g>
                <g transform="matrix(7.2485,-4.44089e-16,4.44089e-16,6.06061,-6410.53,-1479.33)">
                    <path d="M1088.23,485.414C1100.88,506.795 1139.66,508.433 1150.62,489.423L1171.05,501.187C1157.89,524.009 1104.93,530.086 1081.41,489.352L1088.23,485.414Z" style="fill:rgb(144,12,63);"/>
                </g>
                <g transform="matrix(-3.62425,-5.24864,6.27739,-3.03031,2798.37,8684.18)">
                    <path d="M1128.93,422.217C1161.6,422.059 1178.67,463.71 1163.48,490.007C1173.3,473.013 1157.02,445.905 1128.95,446L1128.93,422.217Z" style="fill:rgb(144,12,63);"/>
                </g>
            </g>
            <g id="curve" transform="matrix(0.514021,0.744405,1.06481,-0.514021,-616.229,748.14)">
                <g transform="matrix(7.2485,0,0,6.06061,-6410.53,-1479.33)">
                    <path d="M1113.07,400.735C1073.69,400.735 1041.69,452 1064.84,492.157" style="fill:none;stroke:white;stroke-width:1.95px;"/>
                </g>
                <g transform="matrix(7.2485,0,0,6.06061,-6410.53,-1479.33)">
                    <path d="M1071.66,488.219C1055.15,460 1082.69,424.368 1113.07,424.368" style="fill:none;stroke:white;stroke-width:1.95px;"/>
                </g>
            </g>
            <g transform="matrix(-7.10015,4.12947e-15,2.98007e-15,5.93657,2613.73,-4904.8)">
                <g transform="matrix(7.14626,0,0,7.14626,192.17,1048.93)">
                </g>
                <text x="182.523px" y="1048.93px" style="font-family:'BloggerSans-Bold', 'Blogger Sans';font-weight:700;font-size:7.146px;fill:rgb(255,249,249);">1:3</text>
            </g>
            <g id="Palette" transform="matrix(-1,0,0,1,3096.66,1.81899e-12)">
                <g transform="matrix(0.943326,0,0,0.943326,75.1759,-1295.19)">
                    <g transform="matrix(7.32141,0,0,6.12157,-78.923,-2999.56)">
                        <g transform="matrix(14.6933,0,0,14.6933,196.084,1056.91)">
                        </g>
                        <text x="189.105px" y="1056.91px" style="font-family:'BloggerSans-Medium', 'Blogger Sans';font-weight:500;font-size:14.693px;">L</text>
                    </g>
                    <g transform="matrix(7.32141,0,0,6.12157,105.493,-2999.56)">
                        <g transform="matrix(14.6933,0,0,14.6933,197.95,1056.91)">
                        </g>
                        <text x="187.239px" y="1056.91px" style="font-family:'BloggerSans-Medium', 'Blogger Sans';font-weight:500;font-size:14.693px;">M</text>
                    </g>
                    <g transform="matrix(7.32141,0,0,6.12157,289.908,-2999.56)">
                        <g transform="matrix(14.6933,0,0,14.6933,197.149,1056.91)">
                        </g>
                        <text x="188.039px" y="1056.91px" style="font-family:'BloggerSans-Medium', 'Blogger Sans';font-weight:500;font-size:14.693px;">N</text>
                    </g>
                    <g transform="matrix(7.32141,0,0,6.12157,474.324,-2999.56)">
                        <g transform="matrix(14.6933,0,0,14.6933,196.855,1056.91)">
                        </g>
                        <text x="188.333px" y="1056.91px" style="font-family:'BloggerSans-Medium', 'Blogger Sans';font-weight:500;font-size:14.693px;">O</text>
                    </g>
                    <g transform="matrix(7.32141,0,0,6.12157,658.74,-2999.56)">
                        <g transform="matrix(14.6933,0,0,14.6933,196.635,1056.91)">
                        </g>
                        <text x="188.554px" y="1056.91px" style="font-family:'BloggerSans-Medium', 'Blogger Sans';font-weight:500;font-size:14.693px;">P</text>
                    </g>
                </g>
                <g id="colors" transform="matrix(1,0,0,1,86.9821,0)">
                    <g transform="matrix(7.2485,0,0,5.38721,1330.87,649.965)">
                        <rect x="72" y="255" width="24" height="9" style="fill:rgb(255,195,5);stroke:rgb(215,215,215);stroke-width:1.06px;stroke-linecap:round;stroke-linejoin:round;"/>
                    </g>
                    <g transform="matrix(7.2485,0,0,5.38721,1156.91,649.965)">
                        <rect x="72" y="255" width="24" height="9" style="fill:rgb(255,87,51);stroke:rgb(215,215,215);stroke-width:1.06px;stroke-linecap:round;stroke-linejoin:round;"/>
                    </g>
                    <g transform="matrix(7.2485,0,0,5.38721,982.946,649.965)">
                        <rect x="72" y="255" width="24" height="9" style="fill:rgb(199,0,57);stroke:rgb(215,215,215);stroke-width:1.06px;stroke-linecap:round;stroke-linejoin:round;"/>
                    </g>
                    <g transform="matrix(7.2485,0,0,5.38721,808.982,649.965)">
                        <rect x="72" y="255" width="24" height="9" style="fill:rgb(144,12,63);stroke:rgb(215,215,215);stroke-width:1.06px;stroke-linecap:round;stroke-linejoin:round;"/>
                    </g>
                    <g transform="matrix(7.2485,0,0,5.38721,635.018,649.965)">
                        <rect x="72" y="255" width="24" height="9" style="fill:rgb(88,24,69);stroke:rgb(215,215,215);stroke-width:1.06px;stroke-linecap:round;stroke-linejoin:round;"/>
                    </g>
                </g>
            </g>
        </g>
    </g>
</svg>
