<?xml version="1.0" encoding="UTF-8" standalone="no"?>
<!DOCTYPE svg PUBLIC "-//W3C//DTD SVG 1.1//EN" "http://www.w3.org/Graphics/SVG/1.1/DTD/svg11.dtd">
<svg width="100%" height="100%" viewBox="0 0 288 288" version="1.1" xmlns="http://www.w3.org/2000/svg" xmlns:xlink="http://www.w3.org/1999/xlink" xml:space="preserve" xmlns:serif="http://www.serif.com/" style="fill-rule:evenodd;clip-rule:evenodd;stroke-linejoin:round;">
    <g transform="matrix(1,0,0,1,-3560,0)">
        <g id="Topographic-Map" serif:id="Topographic Map" transform="matrix(-0.137959,0,0,0.165,3935.61,-77.9108)">
            <rect x="635.018" y="472.187" width="2087.57" height="1745.46" style="fill:none;"/>
            <g id="AU-contour5.afdesign" serif:id="AU contour5.afdesign" transform="matrix(-1.03611,0,0,0.866311,1711.42,1329.48)">
                <g transform="matrix(1,0,0,1,-850,-689.419)">
                    <g id="contours" transform="matrix(1,0,0,-1,-253.553,-543.391)">
                        <path id="_17" serif:id="17" d="M1654.34,-1855.4L1649.53,-1859.82L1636.28,-1862.56L1623.03,-1863.81L1609.78,-1863.62L1596.53,-1858.76L1593.73,-1855.4L1596.53,-1844.8L1598.51,-1842.15L1609.78,-1836.83L1623.03,-1836.11L1636.28,-1835.89L1646.59,-1842.15L1649.53,-1846.69L1654.34,-1855.4" style="fill:none;fill-rule:nonzero;stroke:black;stroke-width:2px;"/>
                        <path id="_13" serif:id="13" d="M1627.37,-1868.65L1623.03,-1873.62L1612.66,-1868.65L1609.78,-1868.48L1596.53,-1864.62L1588.84,-1855.4L1590.99,-1842.15L1596.53,-1831.83L1609.78,-1830.3L1623.03,-1831.33L1636.28,-1831.93L1649.53,-1839.22L1653.2,-1842.15L1659.91,-1855.4L1649.53,-1864.93L1636.28,-1867.38L1627.37,-1868.65" style="fill:none;fill-rule:nonzero;stroke:rgb(128,128,128);stroke-width:2px;"/>
                        <path id="_9" serif:id="9" d="M1639.14,-1908.4L1636.28,-1908.95L1633.97,-1908.4L1623.03,-1902.44L1609.78,-1896.15L1608.04,-1895.15L1599.53,-1881.9L1596.53,-1879.57L1586.68,-1868.65L1583.28,-1863.46L1580.2,-1855.4L1579.47,-1842.15L1571.57,-1828.9L1583.28,-1816.69L1596.53,-1818.45L1609.78,-1820.24L1623.03,-1823.09L1636.28,-1824.82L1646.38,-1828.9L1649.53,-1830.39L1661.27,-1828.9L1662.78,-1828.45L1676.03,-1817.76L1689.28,-1823.81L1690.94,-1828.9L1692.43,-1842.15L1690.96,-1855.4L1689.28,-1859.73L1678.54,-1868.65L1676.03,-1871.47L1662.78,-1873.2L1649.53,-1878.66L1646.18,-1881.9L1649.53,-1888.37L1652.92,-1895.15L1649.53,-1898.96L1639.14,-1908.4" style="fill:none;fill-rule:nonzero;stroke:black;stroke-width:2px;"/>
                        <path id="_5" serif:id="5" d="M1655.13,-1908.4L1649.53,-1910.11L1636.28,-1912.25L1623.03,-1909.07L1619.41,-1908.4L1609.78,-1904L1596.53,-1895.96L1595.67,-1895.15L1587,-1881.9L1583.28,-1877.83L1577.27,-1868.65L1572.61,-1855.4L1570.03,-1845.3L1569.22,-1842.15L1561.22,-1828.9L1560.43,-1815.65L1570.03,-1809.09L1583.28,-1807.8L1596.53,-1810.33L1609.78,-1812.44L1619.55,-1815.65L1623.03,-1816.59L1636.28,-1818.95L1649.53,-1819.7L1657.66,-1815.65L1662.78,-1813.12L1676.03,-1808.55L1689.28,-1807.05L1693.51,-1815.65L1696.93,-1828.9L1697.29,-1842.15L1694.6,-1855.4L1689.43,-1868.65L1689.28,-1869.09L1677.46,-1881.9L1676.03,-1890.73L1672.91,-1895.15L1662.78,-1899.77L1655.13,-1908.4" style="fill:none;fill-rule:nonzero;stroke:rgb(128,128,128);stroke-width:2px;"/>
                        <path id="_1" serif:id="1" d="M1665.18,-1908.4L1662.78,-1909.66L1649.53,-1913.57L1636.28,-1914.89L1623.03,-1911.62L1609.78,-1909.13L1608.05,-1908.4L1596.53,-1900.11L1591.27,-1895.15L1583.28,-1885.15L1580.88,-1881.9L1570.76,-1868.65L1570.03,-1866.51L1567.66,-1855.4L1563.07,-1842.15L1556.78,-1832.83L1555.5,-1828.9L1551.25,-1815.65L1543.53,-1802.75L1542.6,-1802.4L1530.29,-1794.77L1526.02,-1789.15L1517.04,-1780.67L1515.71,-1775.9L1514.42,-1762.66L1517.04,-1753.19L1529.27,-1762.66L1530.29,-1764.94L1534.83,-1775.9L1538.62,-1789.15L1543.53,-1800.44L1556.78,-1801.23L1570.03,-1795.62L1583.28,-1799.2L1588.36,-1802.4L1596.53,-1804.29L1609.78,-1806.1L1623.03,-1808.41L1636.28,-1811.43L1649.53,-1806.75L1662.78,-1803.77L1670.51,-1802.4L1676.03,-1800.24L1688.47,-1789.15L1686.33,-1775.9L1682.34,-1762.66L1684.21,-1749.41L1688.45,-1736.16L1688.04,-1722.91L1689.28,-1716.28L1689.41,-1722.91L1689.58,-1736.16L1698.85,-1749.41L1702.53,-1752.01L1703.69,-1762.66L1703.78,-1775.9L1702.73,-1789.15L1702.53,-1793.72L1700.22,-1802.4L1699.6,-1815.65L1701.73,-1828.9L1701.18,-1842.15L1697.52,-1855.4L1691.83,-1868.65L1689.28,-1876.1L1683.93,-1881.9L1679.07,-1895.15L1676.03,-1900.14L1665.18,-1908.4" style="fill:none;fill-rule:nonzero;stroke:black;stroke-width:2px;"/>
                        <path id="_91" serif:id="9" d="M1402.12,-1033.95L1397.79,-1036.91L1384.54,-1037.37L1376.97,-1033.95L1371.29,-1025.12L1358.05,-1030.05L1349.76,-1033.95L1344.8,-1036.6L1341.74,-1033.95L1331.93,-1020.7L1331.55,-1019.92L1326.38,-1007.45L1321.41,-994.201L1319.71,-980.952L1321.41,-967.703L1331.55,-963.875L1336.08,-967.703L1344.8,-975.983L1347.41,-980.952L1358.05,-993.386L1358.81,-994.201L1366.48,-1007.45L1371.29,-1018.36L1384.54,-1018.59L1397.79,-1020.57L1397.98,-1020.7L1402.12,-1033.95" style="fill:none;fill-rule:nonzero;stroke:black;stroke-width:2px;"/>
                        <path id="_92" serif:id="9" d="M1328.75,-1563.92L1318.3,-1574.47L1310.16,-1563.92L1314.63,-1550.67L1312.82,-1537.42L1305.35,-1524.17L1305.05,-1523.65L1299.04,-1510.92L1294.94,-1497.67L1291.8,-1490.18L1285.83,-1484.42L1278.55,-1477.33L1273.61,-1471.17L1276.24,-1457.92L1278.55,-1453.35L1284.15,-1444.67L1291.8,-1437.91L1295.33,-1431.42L1298.2,-1418.18L1297.44,-1404.93L1295.33,-1391.68L1300.47,-1378.43L1305.05,-1375.24L1318.3,-1369.42L1331.37,-1365.18L1331.55,-1365.09L1331.75,-1365.18L1339.15,-1378.43L1331.55,-1389.8L1330.72,-1391.68L1327.75,-1404.93L1326.2,-1418.18L1331.55,-1429.31L1333.4,-1431.42L1340.16,-1444.67L1344.8,-1448.66L1358.05,-1445.28L1371.29,-1445.35L1384.54,-1455.05L1391.43,-1457.92L1384.54,-1463.14L1380.59,-1471.17L1371.29,-1477.87L1360.96,-1484.42L1358.05,-1486.26L1344.8,-1493.91L1342.79,-1497.67L1335.86,-1510.92L1334.18,-1524.17L1332.17,-1537.42L1332.7,-1550.67L1331.55,-1555.9L1328.75,-1563.92" style="fill:none;fill-rule:nonzero;stroke:black;stroke-width:2px;"/>
                        <path id="_131" serif:id="13" d="M1320.51,-1391.68L1318.3,-1403.24L1307.7,-1391.68L1318.3,-1386.19L1320.51,-1391.68" style="fill:none;fill-rule:nonzero;stroke:rgb(128,128,128);stroke-width:2px;"/>
                        <path id="_132" serif:id="13" d="M1318.61,-1510.92L1318.3,-1511.94L1317.88,-1510.92L1307.06,-1497.67L1316.86,-1484.42L1318.3,-1483.61L1319.19,-1484.42L1323.88,-1497.67L1318.61,-1510.92" style="fill:none;fill-rule:nonzero;stroke:rgb(128,128,128);stroke-width:2px;"/>
                        <path id="_133" serif:id="13" d="M1310.39,-1457.92L1305.05,-1463.84L1297.16,-1457.92L1302.31,-1444.67L1305.05,-1436.42L1309.4,-1431.42L1318.3,-1426.24L1320.8,-1431.42L1323.83,-1444.67L1318.3,-1454.37L1310.39,-1457.92" style="fill:none;fill-rule:nonzero;stroke:rgb(128,128,128);stroke-width:2px;"/>
                        <path id="_93" serif:id="9" d="M1429.53,-1444.67L1424.29,-1451.3L1418.52,-1444.67L1424.29,-1434.88L1429.53,-1444.67" style="fill:none;fill-rule:nonzero;stroke:black;stroke-width:2px;"/>
                        <path id="_94" serif:id="9" d="M1439.93,-1431.42L1437.54,-1435.84L1428.48,-1431.42L1432.81,-1418.18L1437.54,-1415.81L1439.68,-1418.18L1439.93,-1431.42" style="fill:none;fill-rule:nonzero;stroke:black;stroke-width:2px;"/>
                        <path id="_95" serif:id="9" d="M1647.42,-1683.16L1636.28,-1689.79L1623.03,-1691.64L1609.78,-1690.07L1596.53,-1689.82L1583.28,-1684.47L1581.58,-1683.16L1573.69,-1669.91L1570.03,-1660.28L1558.26,-1669.91L1556.78,-1670.23L1543.53,-1676.25L1530.29,-1679.96L1517.04,-1679.73L1503.79,-1677.68L1490.54,-1674.83L1477.29,-1675.14L1464.04,-1673.09L1459.59,-1669.91L1461.45,-1656.66L1464.04,-1654.93L1477.29,-1653.24L1490.54,-1648.81L1503.79,-1646.11L1517.04,-1654.37L1530.29,-1647.7L1543.53,-1644.88L1556.78,-1654.27L1570.03,-1654.41L1578.19,-1643.41L1583.28,-1638.46L1596.53,-1635.46L1608.68,-1643.41L1609.78,-1643.93L1610.26,-1643.41L1623.03,-1635.08L1626.82,-1630.16L1636.28,-1617.13L1636.58,-1616.91L1649.53,-1604.91L1651.66,-1603.66L1662.78,-1594.23L1666.71,-1590.42L1676.03,-1578.61L1679.27,-1577.17L1684.46,-1563.92L1677.35,-1550.67L1682.74,-1537.42L1689.28,-1524.17L1697.26,-1510.92L1692.12,-1497.67L1692.72,-1484.42L1702.53,-1471.87L1703.68,-1471.17L1712.02,-1457.92L1713.88,-1444.67L1713.06,-1431.42L1713.62,-1418.18L1715.77,-1413.98L1719.92,-1404.93L1729.02,-1395.89L1738.62,-1391.68L1742.27,-1389.94L1748.7,-1391.68L1755.52,-1394.57L1765.88,-1404.93L1768.77,-1408.95L1772.72,-1404.93L1768.77,-1397.66L1762.79,-1391.68L1759,-1378.43L1763.67,-1365.18L1768.77,-1352.19L1768.89,-1351.93L1776.4,-1338.68L1782.02,-1332.88L1795.27,-1325.95L1797.16,-1325.43L1808.52,-1320.64L1814.79,-1312.18L1808.52,-1302.56L1802.21,-1298.93L1795.27,-1292.73L1790.97,-1285.68L1783.65,-1272.43L1782.02,-1264.71L1780.28,-1259.19L1782.02,-1245.94L1768.77,-1234.4L1765.24,-1232.69L1755.52,-1228.13L1742.27,-1227.27L1729.02,-1226.54L1715.77,-1231.44L1714.49,-1232.69L1702.53,-1245.94L1689.28,-1248.68L1676.03,-1245.94L1662.78,-1244.61L1649.53,-1242.79L1636.28,-1237.93L1629.82,-1232.69L1624.07,-1219.44L1623.03,-1212.81L1620.73,-1206.19L1609.78,-1195.7L1594.05,-1206.19L1583.28,-1214.39L1570.03,-1212.37L1564.58,-1206.19L1560.4,-1192.94L1560.17,-1179.69L1556.78,-1174.49L1544.93,-1166.44L1543.53,-1164.03L1542.21,-1153.19L1543.53,-1151.14L1556.78,-1146.9L1567.09,-1153.19L1570.03,-1156.61L1573.96,-1153.19L1583.28,-1146.39L1586.26,-1139.94L1584.52,-1126.69L1584.49,-1113.44L1583.28,-1106.31L1582.24,-1100.19L1583.28,-1093.57L1584.2,-1086.95L1594.15,-1073.7L1594.23,-1060.45L1583.28,-1054.15L1579.67,-1047.2L1576.66,-1033.95L1570.03,-1029.61L1556.78,-1028.31L1543.53,-1026.65L1536.42,-1020.7L1530.29,-1008.11L1530.02,-1007.45L1522,-994.201L1517.04,-990.707L1506.34,-980.952L1503.79,-979.334L1491.09,-967.703L1490.54,-966.498L1484.67,-954.453L1484.35,-941.204L1485.38,-927.955L1490.54,-918.552L1493.99,-914.706L1502.54,-901.457L1503.79,-896.272L1507.57,-888.207L1511.67,-874.958L1517.04,-867.107L1520.92,-861.709L1530.29,-853.544L1533.81,-848.46L1533.94,-835.21L1537.39,-821.961L1537.97,-808.712L1536.31,-795.463L1543.53,-793.873L1556.78,-790.069L1570.03,-791.179L1573.03,-795.463L1574.91,-808.712L1570.03,-820.757L1569.03,-821.961L1570.03,-822.679L1583.28,-828.643L1590.91,-835.21L1594.04,-848.46L1591.31,-861.709L1590.79,-874.958L1596.39,-888.207L1596.53,-888.639L1602.77,-901.457L1605.45,-914.706L1609.78,-920.161L1617.92,-927.955L1623.03,-932.09L1628.38,-941.204L1625.42,-954.453L1623.03,-961.078L1611.55,-967.703L1611.9,-980.952L1609.78,-981.767L1596.53,-986.252L1591,-994.201L1591.02,-1007.45L1594.68,-1020.7L1596.53,-1022.05L1609.78,-1025.06L1621.77,-1033.95L1615.22,-1047.2L1609.78,-1053.82L1598.49,-1060.45L1609.78,-1067.07L1623.03,-1078.02L1631.08,-1086.95L1636.28,-1092.35L1649.53,-1087.81L1662.78,-1088.38L1669.77,-1100.19L1670.61,-1113.44L1676.03,-1126.15L1678.07,-1126.69L1689.28,-1127.5L1702.53,-1139.09L1703.73,-1139.94L1715.77,-1151.77L1729.02,-1150.07L1735.38,-1153.19L1742.27,-1157.34L1752.08,-1166.44L1742.27,-1175.88L1739.31,-1179.69L1734.41,-1192.94L1741.23,-1206.19L1742.27,-1207.95L1755.52,-1211.49L1761.92,-1206.19L1768.77,-1199.98L1775.21,-1192.94L1775.05,-1179.69L1775.64,-1166.44L1778.59,-1153.19L1782.02,-1145.02L1783.68,-1139.94L1790.92,-1126.69L1795.27,-1124.2L1808.52,-1122.3L1818.33,-1126.69L1821.77,-1130.3L1828.04,-1139.94L1824.33,-1153.19L1821.77,-1157.45L1808.52,-1156.61L1797.23,-1166.44L1795.27,-1170.1L1788.48,-1179.69L1788.47,-1192.94L1795.27,-1198.08L1808.52,-1201.71L1821.77,-1203.24L1835.02,-1203.31L1848.27,-1201.84L1850.92,-1206.19L1861.52,-1214.19L1867.85,-1219.44L1868.73,-1232.69L1863.48,-1245.94L1861.52,-1249.8L1856.25,-1259.19L1857.48,-1272.43L1861.52,-1274.54L1874.77,-1282.94L1880.04,-1285.68L1888.01,-1290.87L1897.31,-1298.93L1889.41,-1312.18L1888.01,-1313.55L1878.85,-1325.43L1876.93,-1338.68L1874.77,-1342.94L1872.24,-1351.93L1874.77,-1361.25L1876.51,-1365.18L1883.52,-1378.43L1874.77,-1388.07L1870.8,-1391.68L1872.95,-1404.93L1871.24,-1418.18L1861.52,-1427.69L1857.68,-1431.42L1852.92,-1444.67L1848.27,-1457.44L1847.77,-1457.92L1835.02,-1462.12L1821.77,-1459.63L1818.74,-1457.92L1808.52,-1452.21L1795.27,-1452.97L1782.02,-1454.82L1774.45,-1457.92L1782.02,-1465.02L1786.91,-1471.17L1795.13,-1484.42L1793.03,-1497.67L1787.23,-1510.92L1782.02,-1516.36L1777.47,-1524.17L1782.02,-1533.78L1787.75,-1537.42L1786.57,-1550.67L1782.02,-1556.64L1777,-1563.92L1773.95,-1577.17L1768.94,-1590.42L1768.77,-1590.68L1758.52,-1603.66L1755.52,-1614.33L1754.53,-1616.91L1751.9,-1630.16L1749.13,-1643.41L1748.41,-1656.66L1742.27,-1666.81L1738.72,-1669.91L1729.02,-1671.88L1715.77,-1672.89L1702.53,-1672.61L1689.28,-1671.65L1676.03,-1676.6L1662.78,-1679.79L1649.53,-1682.6L1647.42,-1683.16" style="fill:none;fill-rule:nonzero;stroke:black;stroke-width:2px;"/>
                        <path id="_96" serif:id="9" d="M1671.61,-1007.45L1662.78,-1010.57L1660.87,-1007.45L1662.78,-1004.14L1671.61,-1007.45" style="fill:none;fill-rule:nonzero;stroke:black;stroke-width:2px;"/>
                        <path id="_97" serif:id="9" d="M1706.12,-1020.7L1702.53,-1029.09L1690.54,-1020.7L1699.57,-1007.45L1702.53,-1004.55L1705.2,-1007.45L1706.12,-1020.7" style="fill:none;fill-rule:nonzero;stroke:black;stroke-width:2px;"/>
                        <path id="_98" serif:id="9" d="M1698.48,-1033.95L1689.28,-1040.08L1684.18,-1033.95L1689.28,-1021.68L1698.48,-1033.95" style="fill:none;fill-rule:nonzero;stroke:black;stroke-width:2px;"/>
                        <path id="_99" serif:id="9" d="M1755.52,-1196.55L1759.34,-1192.94L1755.52,-1184.66L1742.27,-1191.77L1741.86,-1192.94L1742.27,-1193.69L1755.52,-1196.55" style="fill:none;fill-rule:nonzero;stroke:black;stroke-width:2px;"/>
                        <path id="_134" serif:id="13" d="M1764.69,-1431.42L1755.52,-1441.09L1748.64,-1431.42L1755.52,-1428.59L1764.69,-1431.42" style="fill:none;fill-rule:nonzero;stroke:rgb(128,128,128);stroke-width:2px;"/>
                        <path id="_135" serif:id="13" d="M1569.11,-980.952L1556.78,-988.878L1543.53,-986.662L1533.1,-980.952L1530.29,-979.568L1517.04,-969.741L1514.33,-967.703L1503.79,-956.134L1502.65,-954.453L1503.11,-941.204L1503.79,-940.12L1515.13,-927.955L1517.04,-925.14L1530.29,-916.1L1531.88,-914.706L1536.03,-901.457L1538.92,-888.207L1540.4,-874.958L1543.53,-870.542L1551.44,-861.709L1556.78,-850.169L1557.5,-848.46L1570.03,-838.138L1583.28,-843.707L1585.66,-848.46L1583.38,-861.709L1583.28,-862.285L1577.98,-874.958L1583.28,-882.981L1585.33,-888.207L1586.29,-901.457L1583.28,-912.586L1570.03,-912.553L1567.3,-914.706L1556.78,-926.535L1553.94,-927.955L1556.43,-941.204L1556.78,-941.666L1567.26,-954.453L1570.03,-959.753L1573.03,-967.703L1570.03,-979.209L1569.11,-980.952" style="fill:none;fill-rule:nonzero;stroke:rgb(128,128,128);stroke-width:2px;"/>
                        <path id="_171" serif:id="17" d="M1559.16,-901.457L1556.78,-903.456L1553.36,-901.457L1550.21,-888.207L1555.69,-874.958L1556.78,-873.703L1559.17,-874.958L1564.81,-888.207L1559.16,-901.457" style="fill:none;fill-rule:nonzero;stroke:black;stroke-width:2px;"/>
                        <path id="_172" serif:id="17" d="M1572.91,-861.709L1570.03,-868.082L1565.97,-861.709L1569.94,-848.46L1570.03,-848.386L1570.21,-848.46L1572.91,-861.709" style="fill:none;fill-rule:nonzero;stroke:black;stroke-width:2px;"/>
                        <path id="_173" serif:id="17" d="M1557.6,-967.703L1556.78,-968.862L1543.53,-975.512L1530.29,-970.339L1526.75,-967.703L1517.04,-959.695L1512.14,-954.453L1514.06,-941.204L1517.04,-938.077L1530.29,-934.974L1539.98,-941.204L1543.53,-945.336L1550.54,-954.453L1556.78,-966.254L1557.6,-967.703" style="fill:none;fill-rule:nonzero;stroke:black;stroke-width:2px;"/>
                        <path id="_136" serif:id="13" d="M1685.71,-1179.69L1676.03,-1183.39L1667.35,-1179.69L1662.78,-1176.29L1654.24,-1166.44L1662.78,-1160.62L1666.02,-1153.19L1676.03,-1144.98L1689.28,-1143.98L1696.91,-1153.19L1700.27,-1166.44L1689.28,-1179L1685.71,-1179.69" style="fill:none;fill-rule:nonzero;stroke:rgb(128,128,128);stroke-width:2px;"/>
                        <path id="_137" serif:id="13" d="M1841.74,-1444.67L1835.02,-1451.33L1821.77,-1446.84L1818.28,-1444.67L1808.52,-1438.17L1795.27,-1437.35L1784.26,-1431.42L1795.27,-1421.89L1797.83,-1418.18L1795.27,-1405.99L1795.13,-1404.93L1790.28,-1391.68L1782.02,-1381.19L1777.96,-1378.43L1782.02,-1374.23L1790.85,-1365.18L1795.27,-1357.07L1799.92,-1351.93L1808.52,-1346.67L1821.77,-1340.51L1823.84,-1338.68L1832.44,-1325.43L1832.74,-1312.18L1835.02,-1306.29L1839.67,-1298.93L1848.27,-1290.14L1861.52,-1286.05L1873.81,-1298.93L1868.98,-1312.18L1868.43,-1325.43L1868.19,-1338.68L1864.54,-1351.93L1866.43,-1365.18L1874.77,-1376.55L1875.86,-1378.43L1874.77,-1379.63L1861.52,-1391.68L1864.71,-1404.93L1861.52,-1418.18L1848.27,-1431.08L1847.83,-1431.42L1841.74,-1444.67" style="fill:none;fill-rule:nonzero;stroke:rgb(128,128,128);stroke-width:2px;"/>
                        <path id="_174" serif:id="17" d="M1841.06,-1431.42L1835.02,-1443.79L1821.77,-1437.1L1811.73,-1431.42L1811.97,-1418.18L1808.52,-1407.18L1807.71,-1404.93L1798.3,-1391.68L1797.75,-1378.43L1808.26,-1365.18L1808.52,-1364.9L1821.77,-1353.38L1822.85,-1351.93L1835.02,-1340.79L1836.91,-1338.68L1841.47,-1325.43L1841.46,-1312.18L1848.27,-1303.45L1861.07,-1298.93L1861.52,-1298.75L1861.69,-1298.93L1861.82,-1312.18L1863.08,-1325.43L1863.49,-1338.68L1861.52,-1345.92L1859.39,-1351.93L1860.65,-1365.18L1861.52,-1366.74L1869.55,-1378.43L1861.52,-1385.6L1856.31,-1391.68L1859.67,-1404.93L1855.98,-1418.18L1848.27,-1425.69L1841.06,-1431.42" style="fill:none;fill-rule:nonzero;stroke:black;stroke-width:2px;"/>
                        <path id="_13---Alps" serif:id="13 - Alps" d="M1625.58,-1683.16L1623.03,-1683.76L1609.78,-1683.48L1600.32,-1683.16L1596.53,-1682.81L1588.06,-1669.91L1596.53,-1662.84L1609.78,-1659.48L1612.76,-1656.66L1623.03,-1645.88L1624.95,-1643.41L1635.2,-1630.16L1636.28,-1628.68L1649.53,-1618.66L1654.07,-1616.91L1662.78,-1611.88L1676.03,-1604.09L1676.27,-1603.66L1682.91,-1590.42L1689.28,-1585.29L1697.69,-1577.17L1702.53,-1567.11L1708.25,-1563.92L1709.89,-1550.67L1714.17,-1537.42L1715.77,-1536.11L1720.51,-1524.17L1718.92,-1510.92L1715.77,-1505.58L1708.94,-1497.67L1715.77,-1486.67L1726.01,-1484.42L1729.02,-1483.55L1736.93,-1471.17L1742.27,-1466.6L1755.52,-1465.43L1763.35,-1471.17L1768.77,-1474.45L1780.5,-1484.42L1782.02,-1489.12L1783.44,-1497.67L1782.02,-1500.86L1778.91,-1510.92L1771.54,-1524.17L1773.62,-1537.42L1771.74,-1550.67L1768.77,-1556.58L1765.53,-1563.92L1765.73,-1577.17L1760.1,-1590.42L1755.52,-1597.89L1752.56,-1603.66L1747.77,-1616.91L1745.5,-1630.16L1742.27,-1640.34L1740.86,-1643.41L1738.28,-1656.66L1729.02,-1665.33L1715.77,-1666.25L1702.53,-1663.15L1689.28,-1662.13L1677.09,-1669.91L1676.03,-1670.36L1662.78,-1675.08L1649.53,-1678.22L1636.28,-1681.76L1625.58,-1683.16" style="fill:none;fill-rule:nonzero;stroke:rgb(128,128,128);stroke-width:2px;"/>
                        <path id="_175" serif:id="17" d="M1670.36,-1669.91L1662.78,-1672.67L1649.53,-1675.98L1636.28,-1679.51L1623.03,-1679.88L1609.78,-1677.32L1596.53,-1673.55L1594.14,-1669.91L1596.53,-1667.92L1609.78,-1664.33L1617.89,-1656.66L1623.03,-1651.27L1629.14,-1643.41L1636.28,-1634.21L1641.19,-1630.16L1649.53,-1623.73L1662.78,-1620.53L1672.32,-1616.91L1676.03,-1615.43L1682.84,-1603.66L1689.05,-1590.42L1689.28,-1590.23L1702.53,-1577.39L1703.31,-1577.17L1715.77,-1569.3L1724.7,-1577.17L1729.02,-1579.15L1733.9,-1577.17L1739.52,-1563.92L1729.02,-1552.64L1727.03,-1550.67L1724.16,-1537.42L1728.43,-1524.17L1724.92,-1510.92L1720.67,-1497.67L1729.02,-1493.87L1738.34,-1484.42L1742.27,-1478.84L1755.52,-1475.34L1768.77,-1482.6L1770.92,-1484.42L1777.93,-1497.67L1775.51,-1510.92L1768.77,-1523.63L1768.44,-1524.17L1767.47,-1537.42L1763.53,-1550.67L1757.99,-1563.92L1759.34,-1577.17L1755.52,-1590.21L1755.44,-1590.42L1748.7,-1603.66L1744.33,-1616.91L1742.27,-1629.96L1742.22,-1630.16L1736.11,-1643.41L1733.47,-1656.66L1729.02,-1660.83L1715.77,-1660.49L1702.53,-1657.27L1689.28,-1657.3L1676.03,-1665.35L1670.36,-1669.91" style="fill:none;fill-rule:nonzero;stroke:black;stroke-width:2px;"/>
                        <path id="_910" serif:id="9" d="M929.654,-994.201L920.821,-995.029L914.196,-994.201L907.572,-992.939L894.985,-980.952L894.322,-978.744L891.311,-967.703L894.322,-965.754L907.572,-956.11L909.559,-954.453L907.572,-951.969L904.652,-941.204L899.487,-927.955L904.085,-914.706L907.572,-906.425L910.411,-901.457L907.572,-899.118L904.072,-888.207L907.572,-883.683L913.436,-874.958L920.821,-870.216L934.07,-863.268L935.963,-861.709L947.319,-854.643L955.913,-861.709L960.568,-867.86L963.329,-874.958L966.788,-888.207L965.361,-901.457L967.903,-914.706L971.452,-927.955L968.882,-941.204L962.158,-954.453L960.568,-957.633L954.429,-967.703L949.047,-980.952L947.319,-983.16L934.07,-993.774L929.654,-994.201" style="fill:none;fill-rule:nonzero;stroke:black;stroke-width:2px;"/>
                        <path id="_9---Kimberley-Plateau" serif:id="9 - Kimberley Plateau" d="M881.956,-914.706L881.073,-915.095L867.824,-926.128L857.473,-914.706L854.575,-906.977L853.25,-901.457L847.348,-888.207L847.214,-874.958L841.326,-870.774L829.238,-861.709L828.076,-860.814L819.986,-848.46L814.827,-838.409L810.513,-835.21L801.578,-832.485L788.329,-830.471L775.079,-827.582L767.508,-821.961L761.83,-815.175L759.977,-808.712L761.83,-803.616L765.685,-795.463L773.273,-782.214L775.079,-779.942L788.329,-770.169L790.978,-768.964L801.578,-765.002L814.827,-764.899L821.331,-768.964L827.594,-782.214L828.076,-782.79L838.486,-795.463L841.326,-802.69L854.575,-802.823L867.824,-803.728L875.697,-808.712L876.729,-821.961L877.813,-835.21L878.655,-848.46L873.984,-861.709L876.317,-874.958L881.073,-887.75L881.404,-888.207L884.47,-901.457L881.956,-914.706" style="fill:none;fill-rule:nonzero;stroke:black;stroke-width:2px;"/>
                        <path id="_911" serif:id="9" d="M552.252,-1471.17L549.843,-1475.59L546.057,-1471.17L536.593,-1466.94L524.124,-1457.92L523.344,-1457.12L512.813,-1444.67L510.095,-1431.42L511.199,-1418.18L510.095,-1414.86L508.367,-1404.93L496.846,-1396.65L492.17,-1391.68L483.597,-1386.38L473.66,-1378.43L483.597,-1366.28L484.643,-1365.18L488.851,-1351.93L483.597,-1339.23L482.899,-1338.68L473.057,-1325.43L470.347,-1319.47L466.877,-1312.18L460.109,-1298.93L457.098,-1297.09L443.849,-1296.47L430.6,-1292.64L422.871,-1285.68L423.975,-1272.43L430.048,-1259.19L430.6,-1256.24L432.049,-1245.94L433.25,-1232.69L437.874,-1219.44L443.849,-1212.01L448.923,-1206.19L443.849,-1195.82L439.952,-1192.94L430.6,-1182.34L429.317,-1179.69L430.6,-1174.01L433.009,-1166.44L430.6,-1162.36L428.391,-1153.19L422.346,-1139.94L422.446,-1126.69L423.373,-1113.44L430.6,-1110.18L443.849,-1106L457.098,-1105.94L466.291,-1113.44L470.347,-1115.63L479.381,-1113.44L470.347,-1108.82L463.477,-1100.19L457.098,-1097.42L443.849,-1090.97L440.436,-1086.95L430.6,-1080.7L426.529,-1073.7L420.423,-1060.45L422.629,-1047.2L430.6,-1039.99L443.849,-1037.24L457.098,-1038.79L470.347,-1039.3L483.597,-1042.31L496.846,-1047.08L510.095,-1046.09L523.344,-1044.62L536.593,-1044.97L549.843,-1038.11L563.092,-1035.31L576.341,-1039.92L584.968,-1047.2L589.59,-1053.61L597.442,-1060.45L602.84,-1063.31L606.778,-1060.45L616.089,-1054.4L629.338,-1053.43L642.587,-1059.96L643.117,-1060.45L653.628,-1073.7L655.174,-1086.95L655.836,-1093.57L656.439,-1100.19L669.086,-1107.33L677.603,-1113.44L682.335,-1118.18L691.799,-1113.44L695.584,-1110.65L706.044,-1100.19L708.833,-1099.09L722.083,-1094.89L735.332,-1092.25L748.581,-1099.12L756.53,-1100.19L761.83,-1101.46L764.239,-1100.19L775.079,-1096.58L788.329,-1088.6L789.026,-1086.95L793.376,-1073.7L798.634,-1060.45L801.578,-1059.3L803.05,-1060.45L812.343,-1073.7L814.827,-1083.63L815.337,-1086.95L814.827,-1087.96L805.475,-1100.19L806.396,-1113.44L814.827,-1118.9L818.949,-1113.44L828.076,-1101.71L829.786,-1100.19L841.326,-1091.68L847.348,-1086.95L841.326,-1080.54L832.493,-1073.7L831.757,-1060.45L834.842,-1047.2L828.076,-1035.42L826.751,-1033.95L828.076,-1027.32L829.969,-1020.7L841.326,-1011.53L846.746,-1020.7L854.575,-1030.83L863.408,-1033.95L867.824,-1035.91L872.24,-1033.95L874.449,-1020.7L881.073,-1008.08L881.901,-1007.45L894.322,-996.99L900.533,-1007.45L896.414,-1020.7L894.322,-1025.12L886.373,-1033.95L891.533,-1047.2L890.789,-1060.45L894.322,-1065.27L899.475,-1073.7L907.572,-1077.09L920.821,-1077.01L927.097,-1073.7L930.915,-1060.45L920.821,-1047.98L917.509,-1047.2L917.288,-1033.95L930.095,-1020.7L934.07,-1015.73L947.319,-1012.55L960.568,-1011.76L973.818,-1009.61L979.614,-1007.45L987.067,-1002.03L1000.32,-994.201L987.067,-985.999L982.249,-980.952L987.067,-974.717L1000.32,-969.823L1013.57,-976.946L1021.77,-980.952L1026.82,-983.896L1040.06,-987.724L1053.31,-988.313L1066.56,-989.32L1079.81,-992.18L1086.09,-994.201L1093.06,-997.145L1106.31,-1001.27L1119.56,-1001.31L1129.61,-994.201L1129.64,-980.952L1132.81,-977.117L1146.06,-978.744L1148.02,-980.952L1159.31,-990.048L1166.26,-994.201L1172.56,-1001.61L1175.98,-1007.45L1175.36,-1020.7L1176.63,-1033.95L1181.18,-1047.2L1185.81,-1050.57L1199.05,-1060.45L1209.07,-1073.7L1199.05,-1086.53L1198.42,-1086.95L1185.81,-1092.47L1181.28,-1100.19L1172.56,-1107.57L1159.61,-1113.44L1159.31,-1113.63L1146.25,-1126.69L1146.06,-1126.91L1132.81,-1139.75L1132.51,-1139.94L1119.56,-1151.84L1117.72,-1153.19L1111.79,-1166.44L1116.13,-1179.69L1119.56,-1186.79L1121.74,-1192.94L1119.56,-1203.7L1118.78,-1206.19L1106.31,-1217.97L1104.87,-1219.44L1101.83,-1232.69L1100.6,-1245.94L1093.06,-1254.03L1079.81,-1258.73L1078.55,-1259.19L1066.56,-1266.38L1060.51,-1272.43L1053.31,-1283.38L1050.79,-1285.68L1040.06,-1288.81L1026.82,-1290.35L1013.57,-1288.41L1000.32,-1287.65L987.067,-1295.1L973.818,-1291.1L961.893,-1285.68L960.568,-1285.37L960.292,-1285.68L950.2,-1298.93L947.319,-1300.59L942.587,-1298.93L934.07,-1296.28L924.336,-1285.68L922.587,-1272.43L920.821,-1270.4L916.145,-1272.43L907.572,-1282.15L906.177,-1285.68L894.322,-1295.48L881.073,-1287.08L867.824,-1286.24L854.575,-1296.99L841.326,-1297.28L839.117,-1298.93L828.076,-1302.01L819.796,-1298.93L814.827,-1294.52L802.597,-1285.68L801.578,-1284.48L788.329,-1280.16L775.079,-1285.17L774.133,-1285.68L761.83,-1297.17L748.581,-1298.93L744.855,-1312.18L736.922,-1325.43L738.881,-1338.68L735.332,-1345.53L729.711,-1351.93L722.083,-1356.42L708.833,-1362.89L704.693,-1365.18L695.584,-1370.12L682.335,-1374.67L669.086,-1370.06L662.216,-1365.18L655.836,-1354.41L642.587,-1372.63L634.156,-1378.43L629.338,-1380.73L617.895,-1391.68L622.867,-1404.93L620.584,-1418.18L616.089,-1423.77L602.84,-1430.82L596.215,-1431.42L589.59,-1431.92L578.138,-1444.67L576.341,-1446.93L563.423,-1457.92L563.092,-1458.4L552.252,-1471.17" style="fill:none;fill-rule:nonzero;stroke:black;stroke-width:2px;"/>
                        <path id="_138" serif:id="13" d="M1074.26,-1126.69L1066.56,-1131.33L1053.31,-1136.61L1040.06,-1139.67L1026.82,-1135.18L1013.57,-1132.62L1000.32,-1132.21L987.067,-1128.9L983.708,-1126.69L973.818,-1114.37L972.949,-1113.44L973.818,-1111.14L982.498,-1100.19L987.067,-1097.99L1000.32,-1096.41L1013.57,-1093.16L1026.82,-1091.44L1040.06,-1090.16L1053.31,-1089.14L1066.56,-1089.89L1079.81,-1088.6L1084.23,-1086.95L1079.81,-1084.14L1066.56,-1077.25L1056.85,-1073.7L1053.31,-1072.09L1040.06,-1071.56L1026.82,-1068.18L1013.57,-1065.58L1000.32,-1060.45L1013.57,-1056.37L1026.82,-1051.75L1037.22,-1047.2L1040.06,-1046.61L1053.31,-1045.97L1066.56,-1046.05L1073.79,-1047.2L1079.81,-1048.23L1093.06,-1057.5L1096.12,-1060.45L1106.31,-1071.97L1113.54,-1073.7L1119.56,-1074.43L1132.81,-1077.39L1146.06,-1080.43L1159.31,-1085.07L1160.98,-1086.95L1159.31,-1091.45L1152.48,-1100.19L1146.06,-1102.31L1132.81,-1104.79L1119.56,-1108.28L1110.78,-1113.44L1106.31,-1116.82L1093.06,-1120.54L1079.81,-1123.12L1074.26,-1126.69" style="fill:none;fill-rule:nonzero;stroke:rgb(128,128,128);stroke-width:2px;"/>
                        <path id="_139" serif:id="13" d="M966.147,-1232.69L960.568,-1234.58L954.68,-1232.69L947.319,-1230.94L934.07,-1219.75L933.702,-1219.44L920.821,-1213.49L908.436,-1206.19L907.572,-1204.98L895.527,-1192.94L894.322,-1187.97L891.774,-1179.69L890.625,-1166.44L894.322,-1157.61L898.999,-1153.19L907.572,-1151.3L920.821,-1148.09L934.07,-1147.48L947.319,-1151.62L950.457,-1153.19L960.568,-1159.6L969.497,-1166.44L973.818,-1169.09L987.067,-1176.57L994.638,-1179.69L1000.32,-1181.42L1013.57,-1183.4L1026.82,-1186.75L1040.06,-1190.11L1046.9,-1192.94L1053.31,-1194.76L1066.56,-1200.55L1071.48,-1206.19L1067.54,-1219.44L1066.56,-1220.97L1053.31,-1228.8L1040.06,-1229.87L1026.82,-1231.14L1013.57,-1230.01L1000.32,-1228.94L987.067,-1227.09L973.818,-1229.04L966.147,-1232.69" style="fill:none;fill-rule:nonzero;stroke:rgb(128,128,128);stroke-width:2px;"/>
                        <path id="_1310" serif:id="13" d="M539.538,-1232.69L536.593,-1235.92L523.344,-1234.66L521.412,-1232.69L520.541,-1219.44L522.381,-1206.19L517.973,-1192.94L523.344,-1185.3L533.754,-1179.69L535.351,-1166.44L523.344,-1158.6L514.511,-1153.19L513.502,-1139.94L523.344,-1129.18L527.319,-1126.69L530.234,-1113.44L523.344,-1111.67L510.095,-1109.23L496.846,-1101.95L494.547,-1100.19L483.597,-1092.64L470.347,-1087.7L469.097,-1086.95L457.098,-1076.77L452.295,-1073.7L446.091,-1060.45L457.098,-1055.64L470.347,-1057.86L479.916,-1060.45L483.597,-1061.49L496.846,-1063.62L510.095,-1070.12L513.775,-1073.7L523.344,-1081.08L531.901,-1086.95L536.593,-1093.98L544.237,-1100.19L549.843,-1105.8L563.092,-1111.42L576.341,-1113.44L586.278,-1126.69L576.341,-1133.92L563.092,-1139.94L576.341,-1142.7L585.665,-1153.19L589.59,-1159.08L602.84,-1163.29L607.571,-1166.44L608.26,-1179.69L602.84,-1184.88L589.59,-1180.89L586.94,-1179.69L576.341,-1177.04L563.092,-1175.18L549.843,-1175.96L539.906,-1179.69L548.237,-1192.94L549.843,-1195.46L563.092,-1199.75L573.33,-1206.19L563.092,-1214.23L549.843,-1215.57L545.81,-1219.44L539.538,-1232.69" style="fill:none;fill-rule:nonzero;stroke:rgb(128,128,128);stroke-width:2px;"/>
                        <path id="_1---Continent" serif:id="1 - Continent" d="M1641.19,-1722.91L1636.28,-1727.82L1623.03,-1731.74L1609.78,-1731.01L1596.53,-1724.56L1594.85,-1722.91L1583.28,-1715.15L1571.73,-1709.66L1570.03,-1704.14L1564.88,-1696.41L1556.78,-1694.84L1543.53,-1694.71L1540.95,-1696.41L1535.91,-1709.66L1530.29,-1715.34L1520.07,-1722.91L1517.04,-1724.99L1503.79,-1729.61L1490.54,-1724.72L1489.26,-1722.91L1478.8,-1709.66L1477.29,-1708.08L1464.04,-1700.73L1450.79,-1698.31L1438.72,-1696.41L1437.54,-1696L1424.29,-1688.61L1411.04,-1683.84L1403.76,-1683.16L1397.79,-1680.45L1384.54,-1675.93L1371.29,-1671.36L1365.86,-1669.91L1358.05,-1659.97L1354.5,-1656.66L1355.24,-1643.41L1357.7,-1630.16L1353.08,-1616.91L1344.8,-1604.65L1344.06,-1603.66L1331.55,-1591.81L1318.3,-1596.2L1305.05,-1599.89L1291.8,-1600.11L1284.96,-1590.42L1282.49,-1577.17L1278.55,-1567.45L1272.72,-1577.17L1269.17,-1590.42L1276.56,-1603.66L1278.55,-1605.36L1290.9,-1616.91L1291.8,-1618.08L1305.05,-1628.9L1306.67,-1630.16L1305.05,-1630.51L1291.8,-1632.02L1281.27,-1630.16L1278.55,-1628L1265.3,-1618.07L1262.78,-1616.91L1252.05,-1608.51L1238.8,-1604.27L1232.86,-1603.66L1225.55,-1594.03L1212.3,-1591.47L1199.05,-1590.73L1197.96,-1590.42L1199.05,-1588.75L1212.3,-1588.02L1225.55,-1589.07L1236.15,-1590.42L1238.8,-1591.79L1239.48,-1590.42L1249.46,-1577.17L1248.35,-1563.92L1251.62,-1550.67L1252.05,-1549.56L1254.02,-1537.42L1256.82,-1524.17L1252.05,-1520.44L1238.8,-1521.95L1232.38,-1524.17L1225.55,-1537.42L1222.36,-1550.67L1212.3,-1555.52L1199.05,-1558.25L1185.81,-1562.14L1182.75,-1563.92L1172.56,-1568.06L1166.71,-1563.92L1170.49,-1550.67L1168.64,-1537.42L1167.26,-1524.17L1159.31,-1516.22L1151.51,-1510.92L1146.06,-1507.61L1132.81,-1500.89L1128.96,-1497.67L1122.78,-1484.42L1119.56,-1473.58L1117.67,-1471.17L1106.31,-1464.26L1094.16,-1457.92L1093.06,-1457.67L1079.81,-1453.65L1066.56,-1446.38L1053.31,-1446.23L1049.13,-1444.67L1040.06,-1441.54L1026.82,-1432.98L1023.2,-1431.42L1013.57,-1428.06L1000.32,-1429.34L987.067,-1430.1L973.818,-1431.25L972.346,-1431.42L960.568,-1432.88L947.319,-1435.21L934.07,-1436.63L920.821,-1436.73L907.572,-1438.26L894.322,-1442.35L888.744,-1444.67L881.073,-1449.88L867.824,-1453.39L854.575,-1454.69L841.326,-1455.58L828.076,-1455.63L815.773,-1457.92L814.827,-1458.17L801.578,-1460.7L788.329,-1464.71L778.137,-1471.17L775.079,-1472.88L761.83,-1479.23L748.581,-1481.84L735.332,-1483.58L733.992,-1484.42L724.943,-1497.67L727.321,-1510.92L722.083,-1511.43L708.833,-1522.02L707.612,-1524.17L695.584,-1527.79L682.335,-1527.82L669.086,-1526.94L655.836,-1526.99L642.587,-1525.89L629.338,-1525.02L616.089,-1524.8L602.84,-1524.49L597.419,-1524.17L589.59,-1522.36L576.341,-1521.03L563.092,-1523.5L560.683,-1524.17L549.843,-1525.47L536.593,-1529.33L526.614,-1537.42L523.344,-1539.36L512.501,-1550.67L510.095,-1552.1L496.846,-1555.04L483.597,-1560.34L478.729,-1563.92L470.347,-1565.64L457.098,-1565.84L443.849,-1565.87L430.6,-1565.53L422.709,-1563.92L417.35,-1560.1L404.101,-1555.57L390.852,-1554.79L377.603,-1552.78L364.354,-1551.44L356.611,-1550.67L351.104,-1545.43L348.528,-1537.42L350.987,-1524.17L351.104,-1521.23L352.325,-1510.92L364.354,-1499.05L366.819,-1497.67L377.603,-1486.36L378.119,-1484.42L378.765,-1471.17L378.496,-1457.92L377.603,-1451.81L375.976,-1444.67L369.521,-1431.42L364.354,-1423.71L363.622,-1418.18L361.311,-1404.93L355.772,-1391.68L351.104,-1385.41L349.427,-1378.43L346.64,-1365.18L346.609,-1351.93L338.529,-1338.68L337.855,-1337.8L324.606,-1329.62L323.757,-1325.43L323.301,-1312.18L315.119,-1298.93L311.357,-1287.21L310.967,-1285.68L309.813,-1272.43L308.385,-1259.19L304.462,-1245.94L300.907,-1232.69L298.107,-1222.75L296.809,-1219.44L293.553,-1206.19L298.107,-1194.98L303.407,-1192.94L306.057,-1179.69L302.877,-1166.44L300.316,-1153.19L298.107,-1144.91L296.015,-1139.94L296.846,-1126.69L297.445,-1113.44L298.107,-1112.42L303.407,-1100.19L306.343,-1086.95L309.416,-1073.7L311.357,-1068.5L321.294,-1060.45L322.548,-1047.2L324.606,-1036.86L329.574,-1033.95L337.855,-1031.03L345.216,-1033.95L351.104,-1040.06L357.729,-1033.95L364.354,-1028.98L373.817,-1020.7L377.603,-1016.46L383.234,-1007.45L390.852,-1000.02L401.692,-994.201L404.101,-993.049L417.35,-992.361L430.6,-986.84L443.849,-987.288L457.098,-992.729L470.347,-985.56L479.18,-980.952L483.597,-978.428L496.846,-971.316L506.783,-967.703L510.095,-966.378L523.344,-961.814L536.593,-958.021L549.843,-954.755L550.726,-954.453L563.092,-950.421L576.341,-948.13L589.59,-945.621L602.84,-942.186L604.312,-941.204L616.089,-931.11L617.929,-927.955L624.133,-914.706L629.338,-908.081L632.577,-901.457L638.861,-888.207L642.587,-876.283L643.078,-874.958L643.661,-861.709L642.587,-853.759L641.673,-848.46L642.587,-837.86L642.776,-835.21L654.466,-821.961L655.836,-820.826L669.086,-815.751L682.335,-814.39L685.791,-808.712L691.72,-795.463L695.584,-791.046L708.833,-789.008L722.083,-787.433L727.824,-782.214L730.179,-768.964L735.332,-762.34L745.094,-755.715L748.581,-752.835L752.366,-742.466L761.83,-732.186L766.485,-729.217L775.079,-722.15L788.329,-720.529L801.578,-723.102L814.827,-716.736L816.655,-715.967L828.076,-707.251L841.326,-705.231L854.575,-707.377L867.824,-713.141L871.417,-715.967L881.073,-727.837L883.022,-729.217L894.322,-740.518L899.418,-742.466L907.572,-745.885L920.821,-744.919L925.917,-742.466L934.07,-732.83L935.798,-729.217L941.864,-715.967L947.319,-704.374L948.203,-702.718L960.568,-691.125L961.515,-689.469L964.601,-676.22L972.423,-662.971L973.818,-660.932L983.534,-649.721L973.818,-637.576L973.038,-636.472L963.218,-623.223L970.032,-609.974L973.818,-607.882L987.067,-606.419L1000.32,-606.661L1013.57,-605.557L1026.82,-607.467L1040.06,-607.324L1053.31,-601.606L1066.56,-603.791L1075.84,-609.974L1079.81,-614.65L1093.06,-619.767L1103,-623.223L1106.31,-624.137L1119.56,-627.335L1132.81,-630.712L1146.06,-634.579L1159.31,-632.056L1172.56,-631.017L1185.81,-630.676L1199.05,-630.794L1212.3,-624.283L1214.95,-623.223L1225.55,-613.587L1238.8,-612.182L1243.22,-623.223L1244.99,-636.472L1249.61,-649.721L1248.93,-662.971L1238.8,-675.729L1238.2,-676.22L1238.8,-689.469L1246.75,-702.718L1250.54,-715.967L1249.31,-729.217L1238.8,-740.937L1225.55,-741.485L1212.3,-739.154L1199.05,-733.633L1190.22,-742.466L1199.05,-755.715L1212.3,-755.715L1225.55,-768.964L1238.8,-782.214L1252.05,-783.87L1265.3,-791.046L1269.72,-795.463L1278.55,-799.539L1287.72,-808.712L1291.8,-814.012L1305.05,-821.961L1318.3,-817.545L1328.9,-808.712L1331.55,-807.056L1344.8,-808.712L1351.42,-821.961L1344.8,-831.898L1340.38,-835.21L1344.8,-848.46L1358.05,-851.11L1371.29,-852.245L1384.54,-850.352L1391.17,-848.46L1397.79,-844.043L1404.42,-835.21L1411.04,-826.378L1412.7,-821.961L1420.98,-808.712L1424.29,-795.463L1426.33,-782.214L1429.81,-768.964L1430.92,-755.715L1428.93,-742.466L1428.27,-729.217L1427.75,-715.967L1427.13,-702.718L1426.08,-689.469L1426.36,-676.22L1428.71,-662.971L1430.92,-649.721L1437.54,-637.677L1438.37,-636.472L1442.51,-623.223L1445.91,-609.974L1442.75,-596.725L1442.51,-583.475L1450.79,-573.015L1464.04,-573.381L1471.35,-583.475L1476.85,-596.725L1477.29,-597.234L1479.5,-596.725L1490.54,-585.683L1491.01,-583.475L1496.77,-570.226L1503.79,-559.386L1505.88,-570.226L1507.04,-583.475L1508.06,-596.725L1509.43,-609.974L1508.64,-623.223L1506.12,-636.472L1503.92,-649.721L1503.79,-651.581L1499.57,-662.971L1503.79,-669.038L1504.79,-676.22L1509.71,-689.469L1517.04,-700.735L1518.04,-702.718L1524.62,-715.967L1530.29,-721.977L1543.53,-726.172L1553.21,-729.217L1556.78,-730.93L1570.03,-740.426L1571.98,-742.466L1574,-755.715L1573.88,-768.964L1575.85,-782.214L1583.28,-793.605L1583.84,-795.463L1587.98,-808.712L1596.53,-818.078L1608.28,-821.961L1609.78,-823.038L1617.86,-835.21L1622.08,-848.46L1623.03,-856.409L1623.62,-861.709L1624.46,-874.958L1623.03,-885.558L1622.77,-888.207L1623.03,-888.344L1633.2,-901.457L1636.28,-914.706L1647.32,-927.955L1649.53,-935.999L1656.47,-941.204L1662.78,-946.725L1676.03,-953.625L1676.63,-954.453L1689.28,-957.766L1702.53,-962.295L1712.34,-967.703L1715.77,-970.43L1725.19,-980.952L1729.02,-991.362L1729.95,-994.201L1733,-1007.45L1742.15,-1020.7L1742.27,-1020.84L1755.25,-1033.95L1755.52,-1034.97L1762.43,-1047.2L1768.77,-1055.08L1782.02,-1051.93L1793.56,-1060.45L1795.27,-1063.1L1801.69,-1073.7L1804.67,-1086.95L1808.52,-1090.67L1821.77,-1097.55L1823.86,-1100.19L1835.02,-1109.03L1839.62,-1113.44L1848.27,-1119.47L1852.18,-1126.69L1855.5,-1139.94L1860.39,-1153.19L1861.52,-1154.85L1867.19,-1153.19L1872.19,-1139.94L1872.69,-1126.69L1874.77,-1125.63L1876.53,-1126.69L1888.01,-1130.4L1891.14,-1139.94L1898.19,-1153.19L1901.26,-1155.68L1904.64,-1166.44L1907.52,-1179.69L1906.8,-1192.94L1904.74,-1206.19L1902.63,-1219.44L1902.19,-1232.69L1903.13,-1245.94L1904.67,-1259.19L1907.07,-1272.43L1909.59,-1285.68L1908.48,-1298.93L1905.86,-1312.18L1904.47,-1325.43L1904.99,-1338.68L1902.1,-1351.93L1901.26,-1354.07L1892.61,-1365.18L1890.25,-1378.43L1888.01,-1387.83L1884.64,-1391.68L1883.5,-1404.93L1881.82,-1418.18L1877.31,-1431.42L1874.77,-1442.56L1873.31,-1444.67L1868.29,-1457.92L1863.84,-1471.17L1861.52,-1474.66L1848.27,-1484.14L1848.04,-1484.42L1843.76,-1497.67L1835.02,-1505.15L1826.58,-1510.92L1821.77,-1517.55L1815.79,-1524.17L1812.3,-1537.42L1808.52,-1549.79L1807.77,-1550.67L1795.27,-1556.39L1788.7,-1563.92L1783.1,-1577.17L1782.02,-1579.42L1775.05,-1590.42L1768.77,-1600.29L1766.1,-1603.66L1760.12,-1616.91L1758.49,-1630.16L1758.01,-1643.41L1758.5,-1656.66L1757.65,-1669.91L1755.52,-1673.58L1742.27,-1677.64L1729.02,-1678.19L1715.77,-1679.7L1702.53,-1682.66L1700.12,-1683.16L1689.28,-1692.08L1676.03,-1692.64L1662.78,-1694.04L1656.4,-1696.41L1654.07,-1709.66L1649.53,-1717.41L1641.19,-1722.91" style="fill:none;fill-rule:nonzero;stroke:black;stroke-width:2px;"/>
                        <path id="_912" serif:id="9" d="M1104.53,-715.967L1093.06,-723.515L1080.89,-715.967L1079.81,-714.968L1073.25,-702.718L1079.81,-695.505L1085.09,-689.469L1093.06,-680.822L1100.47,-676.22L1106.31,-669.957L1115.62,-676.22L1119.56,-683.89L1120.65,-689.469L1119.56,-692.054L1115.23,-702.718L1106.31,-714.731L1104.53,-715.967" style="fill:none;fill-rule:nonzero;stroke:black;stroke-width:2px;"/>
                        <path id="_913" serif:id="9" d="M1495.29,-715.967L1490.54,-718.929L1488.69,-715.967L1488.34,-702.718L1490.54,-698.35L1503.79,-697.969L1505.69,-702.718L1503.79,-709.711L1495.29,-715.967" style="fill:none;fill-rule:nonzero;stroke:black;stroke-width:2px;"/>
                        <path id="_914" serif:id="9" d="M1265.3,-1352.46L1266.45,-1351.93L1278.55,-1345.31L1291.8,-1341.33L1294.74,-1338.68L1301.56,-1325.43L1302.21,-1312.18L1295.48,-1298.93L1295.48,-1285.68L1305.05,-1273.38L1305.75,-1272.43L1308.23,-1259.19L1311.67,-1245.94L1318.3,-1236.66L1326.25,-1232.69L1318.3,-1224.74L1305.05,-1222.75L1300.63,-1219.44L1291.8,-1214.14L1278.55,-1213.55L1271.92,-1219.44L1265.3,-1224.26L1257.57,-1232.69L1252.05,-1240.05L1246.75,-1245.94L1244.1,-1259.19L1238.8,-1268.02L1237.78,-1272.43L1230.65,-1285.68L1231.17,-1298.93L1236.2,-1312.18L1238.8,-1321.29L1241.17,-1325.43L1241.68,-1338.68L1245.62,-1351.93L1252.05,-1356.03L1265.3,-1352.46" style="fill:none;fill-rule:nonzero;stroke:black;stroke-width:2px;"/>
                        <path id="_915" serif:id="9" d="M1344.8,-1325.43L1351.42,-1312.18L1347,-1298.93L1344.8,-1285.68L1338.17,-1298.93L1338.17,-1312.18L1344.8,-1325.43" style="fill:none;fill-rule:nonzero;stroke:black;stroke-width:2px;"/>
                        <path id="_916" serif:id="9" d="M1358.05,-1403.98L1364.93,-1391.68L1363.93,-1378.43L1371.29,-1365.18L1366.33,-1351.93L1363.72,-1338.68L1358.05,-1328.74L1344.8,-1325.43L1341.26,-1338.68L1344.8,-1341.09L1353.31,-1351.93L1357.85,-1365.18L1357.6,-1378.43L1344.8,-1391.34L1344.58,-1391.68L1344.8,-1396.65L1358.05,-1403.98" style="fill:none;fill-rule:nonzero;stroke:black;stroke-width:2px;"/>
                        <path id="_51" serif:id="5" d="M1641.4,-1709.66L1636.28,-1714.29L1623.03,-1717.32L1609.78,-1715.89L1596.53,-1711.32L1594.35,-1709.66L1593.22,-1696.41L1583.28,-1694.38L1570.03,-1685.59L1563.56,-1683.16L1556.78,-1681.93L1552.66,-1683.16L1543.53,-1686.94L1530.29,-1695.6L1528.89,-1696.41L1525.59,-1709.66L1517.04,-1716.91L1503.79,-1720.7L1491.02,-1709.66L1490.54,-1708.19L1480.2,-1696.41L1477.29,-1695.3L1464.04,-1691.29L1450.79,-1688.7L1437.54,-1685.22L1430.75,-1683.16L1424.29,-1677.81L1416.4,-1669.91L1411.85,-1656.66L1411.04,-1651.36L1407.59,-1643.41L1403.59,-1630.16L1400,-1616.91L1397.79,-1615.15L1389.59,-1603.66L1384.54,-1594.03L1382.95,-1590.42L1384.54,-1587.1L1397.79,-1580.28L1411.04,-1588.52L1412.93,-1590.42L1424.29,-1599.25L1431.74,-1603.66L1437.54,-1606.24L1450.79,-1608.87L1464.04,-1609.27L1477.29,-1610.29L1490.54,-1607.2L1503.79,-1604.68L1517.04,-1606.83L1530.29,-1612.99L1543.53,-1610.54L1556.78,-1608.97L1570.03,-1605.87L1571.36,-1603.66L1578.87,-1590.42L1580.63,-1577.17L1577.98,-1563.92L1576.66,-1550.67L1579.31,-1537.42L1580.63,-1524.17L1570.03,-1510.92L1559.15,-1497.67L1557.89,-1484.42L1556.78,-1482.08L1547.02,-1471.17L1543.53,-1461.71L1541.64,-1457.92L1531.23,-1444.67L1532.18,-1431.42L1541.01,-1418.18L1543.53,-1414.1L1548.3,-1404.93L1555.68,-1391.68L1553,-1378.43L1543.53,-1371.07L1530.29,-1373.75L1526.5,-1378.43L1517.04,-1386.07L1512.48,-1391.68L1503.79,-1401.98L1500.61,-1404.93L1493.69,-1418.18L1490.54,-1422.07L1487.15,-1431.42L1478.23,-1444.67L1477.29,-1445.41L1464.04,-1450.35L1450.79,-1455.34L1448.53,-1457.92L1437.54,-1468.47L1433.4,-1471.17L1424.29,-1477.8L1411.04,-1484.2L1410.16,-1484.42L1397.79,-1492.85L1384.54,-1493.66L1375.08,-1497.67L1371.29,-1499.38L1358.05,-1505.75L1346.62,-1510.92L1344.8,-1512.35L1342.51,-1524.17L1341.58,-1537.42L1341.95,-1550.67L1341.07,-1563.92L1331.55,-1573.58L1327.99,-1577.17L1318.3,-1585.54L1305.71,-1590.42L1305.05,-1590.68L1304.38,-1590.42L1298.3,-1577.17L1299.99,-1563.92L1305.05,-1553.25L1306.18,-1550.67L1305.05,-1544.43L1302.56,-1537.42L1294.66,-1524.17L1291.8,-1511.7L1291.49,-1510.92L1287.38,-1497.67L1278.55,-1489.05L1265.3,-1486.78L1257.13,-1497.67L1252.05,-1503.48L1244.81,-1510.92L1238.8,-1514.43L1225.55,-1518.21L1213.16,-1524.17L1212.3,-1533.63L1211.83,-1537.42L1199.05,-1545.94L1187.13,-1537.42L1191.05,-1524.17L1199.05,-1510.92L1185.81,-1502.59L1180.74,-1497.67L1172.56,-1491.2L1164.23,-1484.42L1159.31,-1479.04L1153.71,-1471.17L1148.04,-1457.92L1146.06,-1449.64L1140.76,-1444.67L1132.81,-1440.95L1119.56,-1436.88L1106.31,-1434.96L1093.06,-1432.34L1091.5,-1431.42L1079.81,-1422.39L1072.94,-1418.18L1066.56,-1412.79L1059.37,-1404.93L1047.63,-1391.68L1040.06,-1387.78L1026.82,-1387.96L1013.57,-1389.09L1000.32,-1389.54L989.275,-1391.68L987.067,-1392.34L973.818,-1399.35L966.751,-1404.93L960.568,-1408.36L947.319,-1415L940.695,-1418.18L934.07,-1419.19L920.821,-1420.54L907.572,-1421.66L894.322,-1424.69L881.073,-1428.61L872.24,-1431.42L867.824,-1432.53L854.575,-1435.34L841.326,-1436.13L828.076,-1435.49L814.827,-1437.63L801.578,-1442.54L788.329,-1443.76L786.436,-1444.67L775.079,-1450.79L768.896,-1457.92L761.83,-1462.63L753.098,-1471.17L748.581,-1472.51L735.332,-1473.71L722.083,-1479.16L717.666,-1484.42L711.231,-1497.67L708.833,-1502.09L695.584,-1510.66L694.638,-1510.92L695.584,-1511.47L697.745,-1524.17L695.584,-1524.82L682.335,-1524.85L669.616,-1524.17L669.086,-1523.64L665.773,-1524.17L655.836,-1524.25L654.732,-1524.17L642.587,-1515.6L629.338,-1515.92L616.089,-1517.24L602.84,-1516.92L589.59,-1515.04L576.341,-1514.44L563.092,-1516.48L549.843,-1519.8L538.152,-1524.17L536.593,-1524.54L523.344,-1532.4L517.054,-1537.42L510.095,-1545.82L503.242,-1550.67L496.846,-1551.59L483.597,-1553.38L470.347,-1562.24L457.098,-1562.18L443.849,-1561.57L430.6,-1560.54L417.35,-1552.82L404.101,-1550.76L390.852,-1551.06L384.227,-1550.67L377.603,-1548.59L364.354,-1541.2L360.379,-1537.42L364.354,-1524.17L372.577,-1510.92L377.603,-1507.75L384.848,-1497.67L387.153,-1484.42L386.9,-1471.17L386.312,-1457.92L385.045,-1444.67L382.951,-1431.42L377.603,-1418.47L377.433,-1418.18L372.183,-1404.93L364.354,-1395.09L363.676,-1391.68L356.587,-1378.43L355.626,-1365.18L358.503,-1351.93L355.809,-1338.68L351.104,-1330.95L346.372,-1325.43L339.28,-1312.18L337.855,-1310.51L329.974,-1298.93L324.606,-1288.2L323.316,-1285.68L321.888,-1272.43L320.771,-1259.19L318.888,-1245.94L323.161,-1232.69L324.606,-1230.92L334.738,-1219.44L337.287,-1206.19L339.937,-1192.94L340.735,-1179.69L339.71,-1166.44L337.855,-1157.17L337.027,-1153.19L334.262,-1139.94L331.923,-1126.69L331.57,-1113.44L336.048,-1100.19L337.855,-1098.35L350.425,-1086.95L351.104,-1086.3L364.354,-1075.32L366.392,-1073.7L372.667,-1060.45L377.603,-1052.58L379.629,-1047.2L386.861,-1033.95L390.852,-1028.85L404.101,-1020.99L404.621,-1020.7L417.35,-1012.78L430.6,-1009.49L443.849,-1008.76L457.098,-1009.41L470.347,-1011.46L483.597,-1009.97L490.45,-1007.45L496.846,-1004.8L510.095,-998.922L523.344,-998.454L536.593,-1000.38L546.898,-994.201L549.843,-990.124L553.954,-980.952L563.092,-973.488L576.341,-970.323L589.59,-969.868L602.84,-969.769L616.089,-967.828L617.108,-967.703L629.338,-965.053L642.587,-961.468L655.836,-958.502L663.933,-954.453L656.366,-941.204L655.836,-940.803L648.265,-927.955L650.015,-914.706L655.836,-908.081L664.375,-901.457L669.086,-896.946L682.335,-889.412L695.584,-896.272L700.17,-901.457L708.833,-905.628L722.083,-905.211L735.332,-909.334L748.581,-910.731L754.977,-901.457L748.581,-891.694L746.511,-888.207L743.218,-874.958L745.931,-861.709L741.534,-848.46L735.332,-835.787L735.145,-835.21L726.034,-821.961L725.14,-808.712L735.332,-804.344L741.646,-795.463L747.352,-782.214L748.581,-779.729L753.195,-768.964L761.83,-756.068L762.095,-755.715L773.521,-742.466L775.079,-741.275L788.329,-736.906L801.578,-736.722L814.827,-733.423L828.076,-732.576L841.326,-729.89L842.105,-729.217L854.575,-722.451L867.045,-729.217L867.824,-729.879L875.452,-742.466L876.77,-755.715L875.794,-768.964L881.073,-779.863L885.49,-782.214L894.322,-784.131L907.572,-787.491L920.821,-793.3L929.051,-782.214L934.07,-777.118L944.107,-782.214L947.319,-791.046L960.568,-788.838L972.034,-782.214L973.818,-775.079L975.041,-768.964L973.818,-766.4L962.396,-755.715L961.121,-742.466L962.827,-729.217L973.818,-720.657L987.067,-718.955L1000.32,-720.699L1013.57,-723.328L1022,-715.967L1025.16,-702.718L1026.82,-701.968L1040.06,-696.425L1053.31,-695.124L1065.2,-689.469L1066.56,-688.846L1079.81,-677.209L1080.75,-676.22L1082.4,-662.971L1092.63,-649.721L1093.06,-649.363L1106.31,-647.466L1110.39,-649.721L1119.56,-655.268L1128.89,-662.971L1132.81,-666.169L1143.88,-676.22L1146.06,-684.049L1159.31,-683.37L1172.56,-679.917L1177.63,-689.469L1176.86,-702.718L1172.56,-707.938L1161.52,-715.967L1159.31,-720.576L1154.21,-729.217L1146.06,-735.841L1133.83,-729.217L1132.81,-728.012L1130.16,-729.217L1119.56,-732.245L1109.04,-742.466L1113.13,-755.715L1119.56,-761.772L1131,-768.964L1132.81,-769.638L1146.06,-770.316L1158.2,-782.214L1159.31,-783.772L1172.56,-792.598L1178.44,-795.463L1184.79,-808.712L1185.81,-809.994L1199.05,-815.091L1212.3,-817.12L1223.25,-821.961L1225.55,-822.789L1238.8,-825.058L1252.05,-822.95L1265.3,-824.542L1277.75,-835.21L1278.55,-836.094L1286.7,-848.46L1291.8,-860.053L1293.45,-861.709L1299.79,-874.958L1302.03,-888.207L1305.05,-891.993L1312.79,-901.457L1318.3,-909.61L1324.61,-914.706L1331.55,-918.754L1342.97,-927.955L1344.8,-929.752L1355.19,-941.204L1358.05,-944.402L1371.29,-950.557L1379.58,-954.453L1384.54,-957.91L1397.79,-964.691L1403.31,-967.703L1411.04,-972.584L1422.4,-980.952L1424.29,-982.104L1425.95,-980.952L1430.92,-967.703L1435.13,-954.453L1437.54,-950.377L1441.05,-941.204L1445.78,-927.955L1450.79,-918.192L1451.88,-914.706L1453.06,-901.457L1453,-888.207L1455.5,-874.958L1463.6,-861.709L1464.04,-860.93L1470.27,-848.46L1477.29,-837.103L1478.33,-835.21L1487.23,-821.961L1490.54,-812.687L1491.51,-808.712L1490.54,-803.034L1489.14,-795.463L1488.13,-782.214L1484.62,-768.964L1477.29,-755.715L1469.88,-742.466L1465.26,-729.217L1465.29,-715.967L1473.07,-702.718L1473.37,-689.469L1470.83,-676.22L1474.34,-662.971L1477.29,-657.671L1484.3,-649.721L1490.54,-644.903L1492.41,-649.721L1490.54,-662.971L1496.63,-676.22L1503.79,-680.544L1506.63,-689.469L1513.97,-702.718L1513.59,-715.967L1506.04,-729.217L1507.34,-742.466L1509.55,-755.715L1517.04,-762.426L1526.36,-768.964L1530.29,-770.608L1543.53,-770.687L1550.16,-768.964L1546.21,-755.715L1543.53,-749.422L1540.61,-742.466L1542.16,-729.217L1543.53,-729.052L1544.06,-729.217L1556.78,-735.319L1570.03,-742.322L1570.17,-742.466L1571.43,-755.715L1570.37,-768.964L1571.61,-782.214L1580.67,-795.463L1583.28,-804.927L1584.33,-808.712L1596.16,-821.961L1596.53,-822.249L1609.78,-831.733L1612.09,-835.21L1609.78,-843.275L1607.76,-848.46L1602.6,-861.709L1604.71,-874.958L1607.09,-888.207L1609.78,-892.395L1622.1,-901.457L1623.03,-903.136L1627.95,-914.706L1634.92,-927.955L1636.28,-930.715L1642.2,-941.204L1643.76,-954.453L1649.53,-964.296L1655.49,-967.703L1662.78,-973.308L1676.03,-971.407L1689.28,-971.794L1701.03,-980.952L1702.53,-982.019L1715.77,-990.889L1718.47,-994.201L1723.45,-1007.45L1728.94,-1020.7L1729.02,-1020.82L1741.03,-1033.95L1742.27,-1035.75L1748.41,-1047.2L1748.14,-1060.45L1745.13,-1073.7L1755.52,-1082.24L1760.3,-1086.95L1768.77,-1098.69L1771.93,-1100.19L1782.02,-1102.27L1795.27,-1108.56L1805.54,-1113.44L1808.52,-1113.87L1821.77,-1116.11L1833.81,-1126.69L1835.02,-1128.71L1844.48,-1139.94L1847.57,-1153.19L1848.27,-1157.27L1852.24,-1166.44L1861.52,-1172.91L1867.53,-1179.69L1871.25,-1192.94L1874.77,-1201.69L1881.04,-1206.19L1886.53,-1219.44L1886.27,-1232.69L1883.7,-1245.94L1878.92,-1259.19L1882.1,-1272.43L1888.01,-1274.38L1901.26,-1277.37L1904.56,-1285.68L1905.72,-1298.93L1903.18,-1312.18L1901.26,-1325.43L1901.76,-1338.68L1901.26,-1341.33L1888.01,-1346.96L1886.32,-1351.93L1888.01,-1361.52L1888.34,-1365.18L1889,-1378.43L1888.01,-1382.58L1880.03,-1391.68L1880.14,-1404.93L1878.73,-1418.18L1874.77,-1429.64L1872.9,-1431.42L1863.78,-1444.67L1863.02,-1457.92L1861.52,-1465.72L1848.27,-1470.47L1835.02,-1471.13L1834.67,-1471.17L1835.02,-1472.19L1836.35,-1484.42L1837.91,-1497.67L1835.02,-1500.15L1821.77,-1507.49L1810.67,-1510.92L1808.52,-1514.23L1796.42,-1524.17L1808.52,-1529.05L1809.48,-1537.42L1808.52,-1540.58L1799.91,-1550.67L1795.27,-1552.79L1785.57,-1563.92L1782.02,-1574.57L1781.08,-1577.17L1773.07,-1590.42L1768.77,-1597.17L1763.64,-1603.66L1758.47,-1616.91L1756.97,-1630.16L1756.36,-1643.41L1756.8,-1656.66L1756.14,-1669.91L1755.52,-1670.98L1742.27,-1674.81L1715.77,-1677.49L1702.53,-1679.41L1689.28,-1681.65L1676.03,-1683.1L1675.65,-1683.16L1662.78,-1687.47L1649.53,-1693.1L1643.47,-1696.41L1641.4,-1709.66" style="fill:none;fill-rule:nonzero;stroke:rgb(128,128,128);stroke-width:2px;"/>
                        <path id="_52" serif:id="5" d="M1902.46,-1206.19L1901.26,-1214.76L1891.55,-1206.19L1892.31,-1192.94L1892.53,-1179.69L1891.43,-1166.44L1888.01,-1160.53L1884.7,-1153.19L1884.84,-1139.94L1888.01,-1137.88L1888.69,-1139.94L1890.33,-1153.19L1901.26,-1162.07L1902.64,-1166.44L1904.58,-1179.69L1903.96,-1192.94L1902.46,-1206.19" style="fill:none;fill-rule:nonzero;stroke:rgb(128,128,128);stroke-width:2px;"/>
                        <path id="_53" serif:id="5" d="M674.894,-848.46L669.086,-860.237L655.836,-850.568L654.978,-848.46L655.836,-846.303L669.086,-841.835L674.894,-848.46" style="fill:none;fill-rule:nonzero;stroke:rgb(128,128,128);stroke-width:2px;"/>
                    </g>
                </g>
            </g>
            <g transform="matrix(0.963859,0.222754,-0.318632,0.963859,718.367,-473.902)">
                <g transform="matrix(-14.0722,2.91179,1.74129,5.88314,53347.3,-10303.3)">
                    <rect x="3680" y="180" width="12" height="7" style="fill:white;"/>
                </g>
                <g transform="matrix(-7.03624,1.45593,1.74129,5.88314,27426.4,-4941.91)">
                    <g transform="matrix(7,0,0,7,3697.31,186.031)">
                    </g>
                    <text x="3678.7px" y="186.031px" style="font-family:'BloggerSans-Medium', 'Blogger Sans';font-weight:500;font-size:7px;">600 m</text>
                </g>
            </g>
            <g transform="matrix(0.995963,0.075058,-0.107365,0.995963,174.932,-129.628)">
                <g transform="matrix(-8.20895,1.69858,1.74129,5.88314,31736.1,-5831.51)">
                    <rect x="3680" y="180" width="12" height="7" style="fill:white;"/>
                </g>
                <g transform="matrix(-7.03624,1.45593,1.74129,5.88314,27391.7,-4934.74)">
                    <g transform="matrix(7,0,0,7,3688.66,186.031)">
                    </g>
                    <text x="3677.34px" y="186.031px" style="font-family:'BloggerSans-Medium', 'Blogger Sans';font-weight:500;font-size:7px;">0 m</text>
                </g>
            </g>
            <g id="Scale" transform="matrix(-1,0,0,1,3618.55,-1.7053e-13)">
                <g transform="matrix(0.943326,0,0,0.943326,75.1759,-1295.19)">
                    <g transform="matrix(7.32141,0,0,6.12157,-171.131,-2999.56)">
                        <g transform="matrix(14.6933,0,0,14.6933,219.435,1056.91)">
                        </g>
                        <text x="188.843px" y="1056.91px" style="font-family:'BloggerSans-Medium', 'Blogger Sans';font-weight:500;font-size:14.693px;">0 km</text>
                    </g>
                    <g transform="matrix(7.32141,0,0,6.12157,658.74,-2999.56)">
                        <g transform="matrix(14.6933,0,0,14.6933,220.47,1056.91)">
                        </g>
                        <text x="189.907px" y="1056.91px" style="font-family:'BloggerSans-Medium', 'Blogger Sans';font-weight:500;font-size:14.693px;">1800</text>
                    </g>
                </g>
                <g>
                    <g transform="matrix(7.2485,0,0,6.06061,-24908.7,472.187)">
                        <path d="M3608,264L3728,264" style="fill:none;stroke:rgb(215,215,215);stroke-width:2px;stroke-linecap:round;stroke-miterlimit:1.5;"/>
                    </g>
                    <g transform="matrix(7.2485,0,0,5.69072,-24908.7,568.264)">
                        <path d="M3728,264L3728,255.48" style="fill:none;stroke:rgb(215,215,215);stroke-width:2.06px;stroke-linecap:round;stroke-miterlimit:1.5;"/>
                    </g>
                    <g transform="matrix(7.2485,0,0,5.69072,-24908.7,568.264)">
                        <path d="M3704,264L3704,255.48" style="fill:none;stroke:rgb(215,215,215);stroke-width:2.06px;stroke-linecap:round;stroke-miterlimit:1.5;"/>
                    </g>
                    <g transform="matrix(7.2485,0,0,5.69072,-24908.7,568.264)">
                        <path d="M3680,264L3680,255.48" style="fill:none;stroke:rgb(215,215,215);stroke-width:2.06px;stroke-linecap:round;stroke-miterlimit:1.5;"/>
                    </g>
                    <g transform="matrix(7.2485,0,0,5.69072,-24908.7,568.264)">
                        <path d="M3656,264L3656,255.48" style="fill:none;stroke:rgb(215,215,215);stroke-width:2.06px;stroke-linecap:round;stroke-miterlimit:1.5;"/>
                    </g>
                    <g transform="matrix(7.2485,0,0,5.69072,-24908.7,568.264)">
                        <path d="M3632,264L3632,255.48" style="fill:none;stroke:rgb(215,215,215);stroke-width:2.06px;stroke-linecap:round;stroke-miterlimit:1.5;"/>
                    </g>
                    <g transform="matrix(7.2485,0,0,5.69072,-24908.7,568.264)">
                        <path d="M3608,264L3608,255.48" style="fill:none;stroke:rgb(215,215,215);stroke-width:2.06px;stroke-linecap:round;stroke-miterlimit:1.5;"/>
                    </g>
                </g>
            </g>
            <g id="North">
                <g transform="matrix(0.611111,0,0,0.611111,370.176,347.265)">
                    <g transform="matrix(-7.2485,0,0,6.06061,28527.3,472.187)">
                        <path d="M3812,36L3824,72L3812,62L3800,72L3812,36Z" style="fill:none;stroke:black;stroke-width:3.27px;stroke-linecap:round;stroke-miterlimit:1.5;"/>
                    </g>
                    <g transform="matrix(-7.2485,0,0,6.06061,28527.3,472.187)">
                        <path d="M3812,36L3812,62" style="fill:none;stroke:black;stroke-width:1.64px;stroke-linecap:round;stroke-miterlimit:1.5;"/>
                    </g>
                    <g transform="matrix(-7.2485,0,0,6.06061,28527.3,472.187)">
                        <path d="M3812,36L3824,72L3812,62L3812,36Z" style="stroke:black;stroke-width:1.64px;stroke-linecap:round;stroke-miterlimit:1.5;"/>
                    </g>
                </g>
                <g transform="matrix(-7.2485,0,0,6.06061,28549,472.187)">
                    <g transform="matrix(14,0,0,14,3816.34,41.061)">
                    </g>
                    <text x="3807.66px" y="41.061px" style="font-family:'BloggerSans-Medium', 'Blogger Sans';font-weight:500;font-size:14px;">N</text>
                </g>
            </g>
        </g>
    </g>
</svg>
