<?xml version="1.0" encoding="UTF-8" standalone="no"?>
<!DOCTYPE svg PUBLIC "-//W3C//DTD SVG 1.1//EN" "http://www.w3.org/Graphics/SVG/1.1/DTD/svg11.dtd">
<svg width="100%" height="100%" viewBox="0 0 288 288" version="1.1" xmlns="http://www.w3.org/2000/svg" xmlns:xlink="http://www.w3.org/1999/xlink" xml:space="preserve" xmlns:serif="http://www.serif.com/" style="fill-rule:evenodd;clip-rule:evenodd;stroke-linejoin:round;stroke-miterlimit:1.5;">
    <g transform="matrix(1,0,0,1,-2588,0)">
        <g id="Transit-Map" serif:id="Transit Map" transform="matrix(-0.137959,0,0,0.165,2963.61,-77.9108)">
            <rect x="635.018" y="472.187" width="2087.57" height="1745.46" style="fill:none;"/>
            <g id="river" transform="matrix(-7.68147,0,0,6.42262,2749.93,-16291.6)">
                <path d="M185.944,2638L200.994,2638L200.994,2653.85C200.994,2660.73 198.351,2667.94 194.638,2672.58C191.859,2676.06 182.394,2692.05 179.135,2696.13C176.798,2699.05 175.525,2702.68 175.525,2706.42L175.525,2776.19C175.525,2781.21 174.33,2786.15 172.039,2790.6C170.084,2794.41 156.927,2810.36 154.973,2814.16C153.613,2816.81 152.994,2818.52 152.994,2822L152.994,2854L137.944,2854L137.944,2822C137.944,2815.48 139.038,2812.25 141.587,2807.28C143.542,2803.48 156.699,2787.53 158.654,2783.72C159.851,2781.39 160.475,2778.81 160.475,2776.19L160.475,2706.42C160.475,2699.26 162.912,2692.32 167.383,2686.72C170.642,2682.65 180.108,2666.66 182.886,2663.18C184.73,2660.88 185.944,2657.27 185.944,2653.85L185.944,2638Z" style="fill:rgb(215,215,215);"/>
                <path d="M185.944,2638L200.994,2638L200.994,2653.85C200.994,2660.73 198.351,2667.94 194.638,2672.58C191.859,2676.06 182.394,2692.05 179.135,2696.13C176.798,2699.05 175.525,2702.68 175.525,2706.42L175.525,2776.19C175.525,2781.21 174.33,2786.15 172.039,2790.6C170.084,2794.41 156.927,2810.36 154.973,2814.16C153.613,2816.81 152.994,2818.52 152.994,2822L152.994,2854L137.944,2854L137.944,2822C137.944,2815.48 139.038,2812.25 141.587,2807.28C143.542,2803.48 156.699,2787.53 158.654,2783.72C159.851,2781.39 160.475,2778.81 160.475,2776.19L160.475,2706.42C160.475,2699.26 162.912,2692.32 167.383,2686.72C170.642,2682.65 180.108,2666.66 182.886,2663.18C184.73,2660.88 185.944,2657.27 185.944,2653.85L185.944,2638ZM187.832,2639.89L187.832,2653.85C187.832,2657.7 186.438,2661.76 184.36,2664.36C181.582,2667.84 172.116,2683.83 168.857,2687.9C164.653,2693.16 162.363,2699.69 162.363,2706.42L162.363,2776.19C162.363,2779.11 161.667,2781.99 160.332,2784.59C158.378,2788.39 145.22,2804.34 143.266,2808.15C140.866,2812.82 139.832,2815.86 139.832,2822L139.832,2852.11L151.106,2852.11L151.106,2822C151.106,2818.14 151.785,2816.24 153.294,2813.3C155.249,2809.5 168.406,2793.54 170.36,2789.74C172.514,2785.55 173.637,2780.91 173.637,2776.19L173.637,2706.42C173.637,2702.25 175.056,2698.2 177.661,2694.95C180.92,2690.87 190.386,2674.88 193.164,2671.41C196.643,2667.06 199.106,2660.3 199.106,2653.85L199.106,2639.89L187.832,2639.89Z" style="fill:rgb(215,215,215);"/>
            </g>
            <g transform="matrix(-6.6907,0,0,5.59422,2595.97,-13947.5)">
                <circle cx="144" cy="2733.98" r="96.018" style="fill:none;stroke:rgb(255,195,5);stroke-width:4.33px;"/>
            </g>
            <g transform="matrix(-7.68147,0,0,6.42262,2738.64,-16291.6)">
                <path d="M120.144,2806L168,2806L202.596,2805.98L226.548,2805.99" style="fill:none;stroke:rgb(255,87,51);stroke-width:3.77px;stroke-linecap:round;"/>
            </g>
            <g transform="matrix(-7.48886,-0.214303,0.256307,6.13745,2047.11,-15535)">
                <path d="M65.31,2731.47L99.653,2732.67L120.144,2758L122.104,2815.28" style="fill:none;stroke:rgb(255,87,51);stroke-width:4.05px;stroke-linecap:round;"/>
            </g>
            <g transform="matrix(-7.68147,0,0,6.42262,2738.64,-16291.6)">
                <path d="M120.003,2642.4L120.144,2758L120.144,2806L115.131,2806L85.5,2835.63" style="fill:none;stroke:rgb(88,24,69);stroke-width:3.77px;stroke-linecap:round;"/>
            </g>
            <g transform="matrix(-7.68147,0,0,6.42262,2738.64,-16291.6)">
                <path d="M48,2758L120,2758L155,2726L224.33,2726" style="fill:none;stroke:rgb(199,0,57);stroke-width:3.77px;stroke-linecap:round;"/>
            </g>
            <g id="stations" transform="matrix(1.05973,0,0,1.05973,-146.569,-157.405)">
                <g transform="matrix(-11.3278,0,0,9.09092,3981.13,-23340)">
                    <ellipse cx="240.04" cy="2710" rx="0.96" ry="1" style="fill:white;stroke:black;stroke-width:0.62px;"/>
                </g>
                <g transform="matrix(-11.3278,0,0,9.09092,4147.84,-23340)">
                    <ellipse cx="240.04" cy="2710" rx="0.96" ry="1" style="fill:white;stroke:black;stroke-width:0.62px;"/>
                </g>
                <g transform="matrix(-11.3278,0,0,9.09092,4317.68,-23339.4)">
                    <ellipse cx="240.04" cy="2710" rx="0.96" ry="1" style="fill:white;stroke:black;stroke-width:0.62px;"/>
                </g>
                <g transform="matrix(-11.3278,0,0,9.09092,4443.95,-23243.2)">
                    <ellipse cx="240.04" cy="2710" rx="0.96" ry="1" style="fill:white;stroke:black;stroke-width:0.62px;"/>
                </g>
                <g transform="matrix(-11.3278,0,0,9.09092,4242.08,-22855.1)">
                    <ellipse cx="240.04" cy="2710" rx="0.96" ry="1" style="fill:white;stroke:black;stroke-width:0.62px;"/>
                </g>
                <g transform="matrix(-11.3278,0,0,9.09092,4495.6,-22716.4)">
                    <ellipse cx="240.04" cy="2710" rx="0.96" ry="1" style="fill:white;stroke:black;stroke-width:0.62px;"/>
                </g>
                <g transform="matrix(-11.3278,0,0,9.09092,3799.92,-22855.1)">
                    <ellipse cx="240.04" cy="2710" rx="0.96" ry="1" style="fill:white;stroke:black;stroke-width:0.62px;"/>
                </g>
                <g transform="matrix(-11.3278,0,0,9.09092,4571.88,-23279.4)">
                    <ellipse cx="240.04" cy="2710" rx="0.96" ry="1" style="fill:white;stroke:black;stroke-width:0.62px;"/>
                </g>
                <g transform="matrix(-11.3278,0,0,9.09092,4571.88,-23424.8)">
                    <ellipse cx="240.04" cy="2710" rx="0.96" ry="1" style="fill:white;stroke:black;stroke-width:0.62px;"/>
                </g>
                <g transform="matrix(-11.3278,0,0,9.09092,4571.88,-23564.2)">
                    <ellipse cx="240.04" cy="2710" rx="0.96" ry="1" style="fill:white;stroke:black;stroke-width:0.62px;"/>
                </g>
                <g transform="matrix(-11.3278,0,0,9.09092,4571.88,-23846)">
                    <ellipse cx="240.04" cy="2710" rx="0.96" ry="1" style="fill:white;stroke:black;stroke-width:0.62px;"/>
                </g>
                <g transform="matrix(-11.3278,0,0,9.09092,4745.85,-23341.1)">
                    <ellipse cx="240.04" cy="2710" rx="0.96" ry="1" style="fill:white;stroke:black;stroke-width:0.62px;"/>
                </g>
                <g transform="matrix(-11.3278,0,0,9.09092,5093.77,-23146)">
                    <ellipse cx="240.04" cy="2710" rx="0.96" ry="1" style="fill:white;stroke:black;stroke-width:0.62px;"/>
                </g>
                <g transform="matrix(-11.3278,0,0,9.09092,4919.81,-23146)">
                    <ellipse cx="240.04" cy="2710" rx="0.96" ry="1" style="fill:white;stroke:black;stroke-width:0.62px;"/>
                </g>
                <g transform="matrix(-11.3278,0,0,9.09092,4745.85,-23146)">
                    <ellipse cx="240.04" cy="2710" rx="0.96" ry="1" style="fill:white;stroke:black;stroke-width:0.62px;"/>
                </g>
                <g transform="matrix(-11.3278,0,0,9.09092,4838.4,-22868.4)">
                    <ellipse cx="240.04" cy="2710" rx="0.96" ry="1" style="fill:white;stroke:black;stroke-width:0.62px;"/>
                </g>
                <g transform="matrix(-11.3278,0,0,9.09092,4944.3,-22997.1)">
                    <ellipse cx="240.04" cy="2710" rx="0.96" ry="1" style="fill:white;stroke:black;stroke-width:0.62px;"/>
                </g>
                <g transform="matrix(-11.3278,0,0,9.09092,4735.7,-23637.5)">
                    <ellipse cx="240.04" cy="2710" rx="0.96" ry="1" style="fill:white;stroke:black;stroke-width:0.62px;"/>
                </g>
                <g transform="matrix(-11.3278,0,0,9.09092,4249.3,-23708.1)">
                    <ellipse cx="240.04" cy="2710" rx="0.96" ry="1" style="fill:white;stroke:black;stroke-width:0.62px;"/>
                </g>
                <g transform="matrix(-11.3278,0,0,9.09092,3970.75,-23575.7)">
                    <ellipse cx="240.04" cy="2710" rx="0.96" ry="1" style="fill:white;stroke:black;stroke-width:0.62px;"/>
                </g>
                <g transform="matrix(-11.3278,0,0,9.09092,3795.84,-23161.4)">
                    <ellipse cx="240.04" cy="2710" rx="0.96" ry="1" style="fill:white;stroke:black;stroke-width:0.62px;"/>
                </g>
                <g transform="matrix(-11.3278,0,0,9.09092,3851.44,-22997.1)">
                    <ellipse cx="240.04" cy="2710" rx="0.96" ry="1" style="fill:white;stroke:black;stroke-width:0.62px;"/>
                </g>
                <g transform="matrix(-11.3278,0,0,9.09092,4189.45,-22740.4)">
                    <ellipse cx="240.04" cy="2710" rx="0.96" ry="1" style="fill:white;stroke:black;stroke-width:0.62px;"/>
                </g>
                <g transform="matrix(-11.3278,0,0,9.09092,4821.96,-22676.3)">
                    <ellipse cx="240.04" cy="2710" rx="0.96" ry="1" style="fill:white;stroke:black;stroke-width:0.62px;"/>
                </g>
                <g transform="matrix(-11.3278,0,0,9.09092,4895.05,-23506.7)">
                    <ellipse cx="240.04" cy="2710" rx="0.96" ry="1" style="fill:white;stroke:black;stroke-width:0.62px;"/>
                </g>
            </g>
            <g id="transfer" transform="matrix(1.05973,0,0,1.05973,-146.569,-157.405)">
                <g transform="matrix(-18.8796,0,0,15.1515,6797.37,-39765.4)">
                    <ellipse cx="240.04" cy="2710" rx="0.96" ry="1" style="fill:white;stroke:black;stroke-width:0.37px;"/>
                </g>
                <g transform="matrix(-18.8796,0,0,15.1515,5786.62,-39279.5)">
                    <ellipse cx="240.04" cy="2710" rx="0.96" ry="1" style="fill:white;stroke:black;stroke-width:0.37px;"/>
                </g>
                <g transform="matrix(-18.8796,0,0,15.1515,6512.88,-39201.7)">
                    <ellipse cx="240.04" cy="2710" rx="0.96" ry="1" style="fill:white;stroke:black;stroke-width:0.37px;"/>
                </g>
                <g transform="matrix(-18.8796,0,0,15.1515,5621.14,-39764.2)">
                    <ellipse cx="240.04" cy="2710" rx="0.96" ry="1" style="fill:white;stroke:black;stroke-width:0.37px;"/>
                </g>
                <g transform="matrix(-18.8796,0,0,15.1515,6384.63,-40124.8)">
                    <ellipse cx="240.04" cy="2710" rx="0.96" ry="1" style="fill:white;stroke:black;stroke-width:0.37px;"/>
                </g>
                <g transform="matrix(-7.98441,0,0,6.76254,2805.74,-17159)">
                    <path d="M114.918,2751C115.372,2751 115.808,2751.18 116.13,2751.49C116.451,2751.81 116.631,2752.24 116.631,2752.69C116.631,2754.3 116.631,2756.7 116.631,2758.31C116.631,2758.76 116.451,2759.19 116.13,2759.51C115.808,2759.82 115.372,2760 114.918,2760C114.85,2760 114.781,2760 114.713,2760C114.259,2760 113.823,2759.82 113.502,2759.51C113.181,2759.19 113,2758.76 113,2758.31C113,2756.7 113,2754.3 113,2752.69C113,2752.24 113.181,2751.81 113.502,2751.49C113.823,2751.18 114.259,2751 114.713,2751C114.781,2751 114.85,2751 114.918,2751Z" style="fill:white;stroke:black;stroke-width:0.85px;"/>
                </g>
                <g transform="matrix(-7.98441,0,0,6.76254,2769.5,-17159)">
                    <path d="M114.918,2751C115.372,2751 115.808,2751.18 116.13,2751.49C116.451,2751.81 116.631,2752.24 116.631,2752.69C116.631,2754.3 116.631,2756.7 116.631,2758.31C116.631,2758.76 116.451,2759.19 116.13,2759.51C115.808,2759.82 115.372,2760 114.918,2760C114.85,2760 114.781,2760 114.713,2760C114.259,2760 113.823,2759.82 113.502,2759.51C113.181,2759.19 113,2758.76 113,2758.31C113,2756.7 113,2754.3 113,2752.69C113,2752.24 113.181,2751.81 113.502,2751.49C113.823,2751.18 114.259,2751 114.713,2751C114.781,2751 114.85,2751 114.918,2751Z" style="fill:white;stroke:black;stroke-width:0.85px;"/>
                </g>
                <g transform="matrix(-4.88904e-16,6.67592,8.08801,4.14086e-16,-20416,869.325)">
                    <path d="M114.918,2751C115.372,2751 115.808,2751.18 116.13,2751.49C116.451,2751.81 116.631,2752.24 116.631,2752.69C116.631,2754.3 116.631,2756.7 116.631,2758.31C116.631,2758.76 116.451,2759.19 116.13,2759.51C115.808,2759.82 115.372,2760 114.918,2760C114.85,2760 114.781,2760 114.713,2760C114.259,2760 113.823,2759.82 113.502,2759.51C113.181,2759.19 113,2758.76 113,2758.31C113,2756.7 113,2754.3 113,2752.69C113,2752.24 113.181,2751.81 113.502,2751.49C113.823,2751.18 114.259,2751 114.713,2751C114.781,2751 114.85,2751 114.918,2751Z" style="fill:white;stroke:black;stroke-width:0.85px;"/>
                </g>
                <g transform="matrix(-4.88904e-16,6.67592,8.08801,4.14086e-16,-20416.2,1014.68)">
                    <path d="M114.918,2751C115.372,2751 115.808,2751.18 116.13,2751.49C116.451,2751.81 116.631,2752.24 116.631,2752.69C116.631,2754.3 116.631,2756.7 116.631,2758.31C116.631,2758.76 116.451,2759.19 116.13,2759.51C115.808,2759.82 115.372,2760 114.918,2760C114.85,2760 114.781,2760 114.713,2760C114.259,2760 113.823,2759.82 113.502,2759.51C113.181,2759.19 113,2758.76 113,2758.31C113,2756.7 113,2754.3 113,2752.69C113,2752.24 113.181,2751.81 113.502,2751.49C113.823,2751.18 114.259,2751 114.713,2751C114.781,2751 114.85,2751 114.918,2751Z" style="fill:white;stroke:black;stroke-width:0.85px;"/>
                </g>
            </g>
            <g transform="matrix(-7.68147,0,0,6.42262,2180.38,-16878.1)">
                <g transform="matrix(13.2109,0,0,13.2109,39.0359,2750.1)">
                </g>
                <text x="31.611px" y="2750.1px" style="font-family:'BloggerSans-Medium', 'Blogger Sans';font-weight:500;font-size:13.211px;">B</text>
            </g>
            <g transform="matrix(-7.68147,0,0,6.42262,2503,-16692.3)">
                <g transform="matrix(13.2109,0,0,13.2109,39.0821,2750.1)">
                </g>
                <text x="31.565px" y="2750.1px" style="font-family:'BloggerSans-Medium', 'Blogger Sans';font-weight:500;font-size:13.211px;">A</text>
            </g>
            <g transform="matrix(-7.68147,0,0,6.42262,1442.96,-16505.6)">
                <g transform="matrix(13.2109,0,0,13.2109,38.6396,2750.1)">
                </g>
                <text x="32.008px" y="2750.1px" style="font-family:'BloggerSans-Medium', 'Blogger Sans';font-weight:500;font-size:13.211px;">C</text>
            </g>
            <g transform="matrix(-7.68147,0,0,6.42262,1535.14,-15985.6)">
                <g transform="matrix(13.2109,0,0,13.2109,39.1151,2750.1)">
                </g>
                <text x="31.532px" y="2750.1px" style="font-family:'BloggerSans-Medium', 'Blogger Sans';font-weight:500;font-size:13.211px;">D</text>
            </g>
        </g>
    </g>
</svg>
